<svg width="164" height="98" viewBox="0 0 164 98" fill="none" xmlns="http://www.w3.org/2000/svg">
<path d="M33.095 8.97363H5.22949V60.7668H33.095V8.97363Z" fill="#EBEBEB"/>
<path d="M31.6939 10.4761H6.34277V59.2241H31.6939V10.4761Z" fill="#FAFAFA"/>
<path d="M31.6939 11.0499L6.34277 44.4158V10.4761H31.6939V11.0499Z" fill="#F5F5F5"/>
<path d="M32.2438 24.4983H6.34277V25.0167H32.2438V24.4983Z" fill="#EBEBEB"/>
<path d="M32.2438 36.1075H6.34277V36.6259H32.2438V36.1075Z" fill="#EBEBEB"/>
<path d="M32.2438 47.7163H6.34277V48.2347H32.2438V47.7163Z" fill="#EBEBEB"/>
<path d="M18.3789 24.7561L18.3789 60.6029H19.6606L19.6606 24.7561H18.3789Z" fill="#EBEBEB"/>
<path d="M11.8044 10.4761H11.2241V24.7589H11.8044V10.4761Z" fill="#EBEBEB"/>
<path d="M16.8112 10.4761H16.231V24.7589H16.8112V10.4761Z" fill="#EBEBEB"/>
<path d="M21.8136 10.4761H21.2334V24.7589H21.8136V10.4761Z" fill="#EBEBEB"/>
<path d="M26.819 10.4761H26.2388V24.7589H26.819V10.4761Z" fill="#EBEBEB"/>
<path d="M5.23137 8.09412H4.05225V61.0855H5.23137V8.09412Z" fill="#F5F5F5"/>
<path d="M34.2738 61.2326L33.0947 60.7673V8.09412H34.2738V61.2326Z" fill="#E0E0E0"/>
<path d="M34.2759 7.56091H4.05225V8.97376H34.2759V7.56091Z" fill="#E0E0E0"/>
<path d="M35.073 61.4059H3.21582V62.7223H35.073V61.4059Z" fill="#E0E0E0"/>
<path d="M33.0946 60.767L35.0707 61.4059H3.21582L5.22918 60.767H33.0946Z" fill="#EBEBEB"/>
<path d="M152.96 41.2596C152.96 41.2596 150.989 41.1125 151.171 45.6838C151.353 50.255 151.805 52.6901 151.805 52.6901C151.805 52.6901 151.746 53.7052 150.987 53.5051C150.227 53.3049 148.801 52.3188 148.095 53.0566C147.389 53.7944 147.629 54.9854 148.594 56.3765C149.558 57.7677 151.581 60.8658 151.763 61.1479C151.945 61.43 152.012 61.9436 151.474 61.8929C150.935 61.8423 147.307 60.5693 146.825 62.3872C146.343 64.2051 149.658 67.5974 150.013 67.9735C150.367 68.3496 150.388 68.5907 150.246 68.8197C150.104 69.0488 148.92 68.5015 147.874 68.1832C146.827 67.865 145.56 67.6842 145.366 68.757C145.173 69.8299 146.634 72.9715 152.098 76.2721L154.727 77.6295L157.216 75.9876C162.342 72.13 163.479 68.8631 163.186 67.8143C162.892 66.7656 161.645 67.0766 160.634 67.5009C159.623 67.9253 158.502 68.5931 158.336 68.3809C158.171 68.1688 158.166 67.9277 158.483 67.5154C158.8 67.1031 161.769 63.3877 161.114 61.6277C160.459 59.8677 156.973 61.512 156.454 61.6157C155.934 61.7193 155.943 61.1986 156.095 60.9044C156.246 60.6103 157.959 57.3048 158.786 55.8293C159.613 54.3537 159.763 53.1603 158.961 52.4756C158.159 51.7908 156.864 52.9433 156.127 53.2205C155.391 53.4978 155.237 52.4973 155.237 52.4973C155.237 52.4973 155.449 50.0284 155.188 45.4595C154.927 40.8907 152.923 41.2596 152.923 41.2596" fill="#EBEBEB"/>
<path d="M153.116 45.3534C153.118 45.3855 153.118 45.4177 153.116 45.4498L153.136 45.7295C153.153 45.9706 153.176 46.3443 153.206 46.8096C153.267 47.7475 153.346 49.1049 153.439 50.7806C153.619 54.1367 153.831 58.773 154.045 63.894C154.26 69.015 154.462 73.6561 154.623 77.0099C154.707 78.6855 154.772 80.0405 154.819 80.9832C154.842 81.4509 154.859 81.8126 154.87 82.0657C154.87 82.1839 154.87 82.2779 154.87 82.3454C154.872 82.3775 154.872 82.4097 154.87 82.4418C154.87 82.4418 154.87 82.4105 154.87 82.3454C154.87 82.2803 154.87 82.1863 154.849 82.0657C154.833 81.8246 154.807 81.4509 154.777 80.9856C154.716 80.0501 154.64 78.6927 154.544 77.0147C154.362 73.6586 154.152 69.0222 153.936 63.8988C153.719 58.7754 153.521 54.1415 153.358 50.7854C153.276 49.1121 153.209 47.7548 153.164 46.8121C153.141 46.3467 153.122 45.9827 153.111 45.7319C153.111 45.6114 153.111 45.5173 153.111 45.4498C153.111 45.3823 153.116 45.3534 153.116 45.3534Z" fill="#E0E0E0"/>
<path d="M150.04 54.52C150.099 54.5601 150.154 54.607 150.203 54.6599C150.305 54.7563 150.436 54.901 150.62 55.0745C150.967 55.4314 151.435 55.9353 151.939 56.5019C152.442 57.0684 152.871 57.5651 153.225 57.9485L153.617 58.3873C153.668 58.4371 153.714 58.493 153.754 58.5536C153.754 58.5536 153.689 58.5102 153.589 58.4162C153.488 58.3222 153.356 58.1751 153.174 57.9991C152.829 57.6399 152.37 57.1287 151.864 56.5525L150.571 55.1059C150.415 54.9347 150.284 54.7876 150.177 54.6671C150.126 54.6235 150.08 54.5742 150.04 54.52Z" fill="#E0E0E0"/>
<path d="M154.012 58.4742C153.994 58.4549 154.956 57.4134 156.161 56.1476C157.366 54.8818 158.361 53.874 158.379 53.8957C158.398 53.9174 157.447 54.9566 156.233 56.2223C155.019 57.4881 154.033 58.4959 154.012 58.4742Z" fill="#E0E0E0"/>
<path d="M154.003 66.3559C154.06 66.3092 154.121 66.2688 154.185 66.2354L154.7 65.9364C155.134 65.6953 155.732 65.3337 156.378 64.9238C157.023 64.5139 157.599 64.1234 158.009 63.8364L158.499 63.4965C158.556 63.4494 158.619 63.4112 158.687 63.3832C158.637 63.4377 158.581 63.4869 158.522 63.5302C158.412 63.6195 158.252 63.7448 158.056 63.8967C157.653 64.1981 157.084 64.6007 156.425 65.013C155.765 65.4253 155.171 65.7652 154.728 66.0015C154.495 66.1197 154.325 66.2113 154.197 66.2716C154.136 66.3077 154.071 66.336 154.003 66.3559Z" fill="#E0E0E0"/>
<path d="M149.649 63.5906C149.712 63.6135 149.773 63.6434 149.83 63.6798C149.945 63.7425 150.108 63.8365 150.297 63.9522C150.697 64.1933 151.247 64.5188 151.851 64.8901C152.454 65.2614 152.997 65.6134 153.389 65.8545C153.585 65.9823 153.741 66.0836 153.855 66.1583C153.914 66.1913 153.968 66.2327 154.016 66.2813C153.952 66.2588 153.891 66.2289 153.834 66.192C153.72 66.1294 153.557 66.0353 153.368 65.9196C152.969 65.6785 152.419 65.353 151.816 64.9817C151.212 64.6104 150.669 64.2584 150.278 64.0173C150.082 63.8919 149.926 63.7883 149.812 63.7135C149.698 63.6388 149.644 63.605 149.649 63.5906Z" fill="#E0E0E0"/>
<path d="M148.784 70.5554C148.866 70.5837 148.944 70.6226 149.017 70.6711L149.63 71.0207C150.145 71.3173 150.851 71.744 151.629 72.2045C152.407 72.665 153.109 73.1038 153.614 73.41L154.209 73.7886C154.285 73.8306 154.356 73.8816 154.421 73.9405C154.34 73.9089 154.262 73.8702 154.188 73.8247L153.575 73.4751C153.062 73.1762 152.354 72.7518 151.575 72.2889C150.797 71.826 150.096 71.392 149.592 71.0834L148.996 70.7049C148.921 70.6611 148.85 70.6111 148.784 70.5554Z" fill="#E0E0E0"/>
<path d="M154.306 73.8275C154.377 73.7655 154.455 73.7122 154.539 73.6684L155.177 73.2658C155.718 72.9258 156.461 72.4532 157.274 71.9084C158.088 71.3635 158.801 70.8547 159.318 70.481L159.933 70.0398C160.005 69.9802 160.083 69.9292 160.166 69.8879C160.101 69.9541 160.031 70.0153 159.957 70.0712C159.817 70.1845 159.614 70.346 159.36 70.5413C158.852 70.9295 158.139 71.4527 157.328 71.9879C156.517 72.5232 155.769 72.9957 155.231 73.3188C154.956 73.4803 154.732 73.6081 154.574 73.6949C154.488 73.7469 154.398 73.7913 154.306 73.8275Z" fill="#E0E0E0"/>
<path d="M158.256 78.5216H150.983L153.357 97.1104H155.883L158.256 78.5216Z" fill="#E0E0E0"/>
<path d="M151.361 80.8049C151.361 80.8049 151.361 80.8314 151.4 80.8724C151.448 80.9293 151.508 80.9739 151.575 81.0026C151.702 81.0479 151.838 81.0625 151.971 81.0454C152.104 81.0282 152.232 80.9798 152.344 80.9037C152.638 80.7374 152.894 80.4071 153.276 80.2624C153.712 80.1172 154.182 80.1266 154.612 80.2889C155.05 80.4432 155.469 80.6529 155.858 80.9134C156.183 81.1243 156.521 81.312 156.87 81.4752C157.108 81.5856 157.359 81.6611 157.618 81.6994C157.688 81.7101 157.759 81.7149 157.83 81.7138C157.876 81.7138 157.902 81.7138 157.902 81.7138C157.557 81.659 157.221 81.5543 156.905 81.4028C156.564 81.2303 156.233 81.037 155.914 80.8242C155.521 80.5545 155.096 80.3382 154.649 80.1804C154.194 80.01 153.696 80.004 153.237 80.1636C153.042 80.2449 152.863 80.3599 152.705 80.5035C152.574 80.6237 152.434 80.7348 152.288 80.8362C152.187 80.9082 152.073 80.9569 151.952 80.979C151.832 81.001 151.708 80.9959 151.589 80.964C151.504 80.9272 151.426 80.8731 151.361 80.8049Z" fill="#F5F5F5"/>
<path d="M151.625 84.231C151.625 84.231 151.684 84.1538 151.798 84.0308C151.962 83.8609 152.16 83.7308 152.378 83.6499C152.702 83.5282 153.046 83.4741 153.39 83.4908C153.814 83.5249 154.237 83.5845 154.655 83.6692C155.082 83.7552 155.518 83.7739 155.95 83.7246C156.303 83.6776 156.647 83.576 156.971 83.4233C157.189 83.3225 157.394 83.1963 157.584 83.0472C157.657 82.997 157.722 82.9361 157.777 82.8663C157.509 83.0487 157.228 83.2099 156.936 83.3485C156.618 83.4866 156.282 83.5775 155.939 83.6186C155.516 83.6581 155.09 83.6362 154.673 83.5535C154.25 83.4673 153.822 83.4102 153.392 83.3823C153.035 83.3709 152.68 83.4357 152.348 83.5728C152.123 83.6662 151.923 83.8132 151.763 84.0019C151.721 84.0543 151.684 84.1108 151.653 84.1707C151.641 84.1889 151.631 84.2093 151.625 84.231Z" fill="#F5F5F5"/>
<path d="M157.434 86.0632C157.374 86.0141 157.306 85.9773 157.233 85.9547C157.039 85.8808 156.836 85.8361 156.63 85.8221C156.325 85.8021 156.019 85.8199 155.719 85.8751C155.381 85.933 155.019 86.0294 154.635 86.1162C154.28 86.2016 153.916 86.2437 153.551 86.2416C153.256 86.234 152.964 86.1686 152.692 86.0487C152.443 85.9297 152.221 85.759 152.039 85.5472C152.067 85.6205 152.109 85.687 152.163 85.7425C152.3 85.9049 152.468 86.0362 152.657 86.1283C152.936 86.2646 153.238 86.3416 153.547 86.3549C153.921 86.3642 154.294 86.3237 154.658 86.2344C155.045 86.15 155.406 86.0511 155.737 85.9933C156.03 85.9349 156.327 85.909 156.625 85.9161C156.899 85.9299 157.171 85.9793 157.434 86.0632Z" fill="#F5F5F5"/>
<path d="M152.27 88.6404C152.49 88.5424 152.734 88.5172 152.969 88.568C153.225 88.6326 153.473 88.7281 153.708 88.8525C154.009 89.0028 154.334 89.0951 154.668 89.125C155.275 89.1817 155.885 89.0356 156.406 88.7079C156.562 88.61 156.708 88.4944 156.839 88.3631C156.928 88.2667 156.972 88.2112 156.968 88.204C156.775 88.3593 156.573 88.5026 156.364 88.6331C155.85 88.9268 155.262 89.0552 154.677 89.002C153.99 88.9634 153.461 88.5367 152.983 88.4812C152.799 88.4481 152.611 88.4648 152.435 88.5295C152.319 88.5801 152.265 88.6355 152.27 88.6404Z" fill="#F5F5F5"/>
<path d="M152.675 92.2087C152.883 92.2142 153.09 92.1713 153.281 92.0833C153.647 91.9579 154.099 91.6686 154.628 91.4516C154.873 91.3477 155.134 91.2905 155.399 91.2829C155.614 91.2832 155.827 91.3335 156.021 91.4299C156.197 91.5278 156.351 91.6644 156.471 91.8302C156.461 91.7726 156.437 91.7186 156.401 91.6735C156.314 91.54 156.197 91.4301 156.061 91.3528C155.858 91.2389 155.632 91.1762 155.401 91.1696C155.122 91.1701 154.845 91.2266 154.586 91.3359C154.038 91.5625 153.6 91.8615 153.25 92.0038C152.901 92.146 152.672 92.1894 152.675 92.2087Z" fill="#F5F5F5"/>
<path d="M153.032 93.8702C153.18 93.9441 153.337 93.9961 153.498 94.0245C153.877 94.1193 154.262 94.1862 154.649 94.2246C155.037 94.2646 155.426 94.2766 155.815 94.2608C155.977 94.266 156.138 94.2457 156.295 94.2005C156.295 94.1644 155.558 94.2005 154.663 94.1017C153.769 94.0028 153.042 93.8341 153.032 93.8702Z" fill="#F5F5F5"/>
<path d="M154.129 11.1029H131.674V26.379H154.129V11.1029Z" fill="#E0E0E0"/>
<path d="M153.336 11.7273H132.455V25.6942H153.336V11.7273Z" fill="#FAFAFA"/>
<path d="M146.302 16.8192H139.49V20.6623H146.302V16.8192Z" fill="#E0E0E0"/>
<path d="M160.44 97.3563C160.44 97.3924 124.521 97.4189 80.2245 97.4189C35.9282 97.4189 0 97.3924 0 97.3563C0 97.3201 35.9119 97.2936 80.2245 97.2936C124.537 97.2936 160.44 97.3225 160.44 97.3563Z" fill="#263238"/>
<path d="M60.4355 0H108.521V47.3834C108.521 48.4206 108.123 49.4153 107.414 50.1487C106.705 50.8821 105.744 51.2941 104.741 51.2941H60.4355V0Z" fill="#EBEBEB"/>
<path d="M104.549 15.2662C104.549 15.3699 95.8599 15.4542 85.1406 15.4542C74.4213 15.4542 65.7271 15.3699 65.7271 15.2662C65.7271 15.1625 74.4167 15.0781 85.1406 15.0781C95.8645 15.0781 104.549 15.1625 104.549 15.2662Z" fill="#455A64"/>
<path d="M85.3695 18.7456C85.3695 18.8492 81.0771 18.9336 75.7804 18.9336C70.4837 18.9336 66.189 18.8492 66.189 18.7456C66.189 18.6419 70.4837 18.5575 75.7804 18.5575C81.0771 18.5575 85.3695 18.6371 85.3695 18.7456Z" fill="#455A64"/>
<path d="M93.0365 18.4201C93.0365 18.5238 91.8994 18.6082 90.4965 18.6082C89.0937 18.6082 87.9565 18.5238 87.9565 18.4201C87.9565 18.3164 89.0937 18.2321 90.4965 18.2321C91.8994 18.2321 93.0365 18.3164 93.0365 18.4201Z" fill="#455A64"/>
<path d="M105.587 18.2053C105.587 18.3089 103.336 18.3933 100.558 18.3933C97.7803 18.3933 95.5293 18.3089 95.5293 18.2053C95.5293 18.1016 97.7803 18.0172 100.558 18.0172C103.336 18.0172 105.587 18.1016 105.587 18.2053Z" fill="#455A64"/>
<path d="M83.7681 22.0655C83.7681 22.1716 79.7297 22.256 74.7476 22.256C69.7654 22.256 65.7271 22.1716 65.7271 22.0655C65.7271 21.9594 69.7654 21.8774 74.7476 21.8774C79.7297 21.8774 83.7681 21.9618 83.7681 22.0655Z" fill="#455A64"/>
<path d="M105.587 21.9716C105.587 22.0753 101.178 22.1597 95.7388 22.1597C90.2999 22.1597 85.8887 22.0753 85.8887 21.9716C85.8887 21.868 90.2976 21.7836 95.7388 21.7836C101.18 21.7836 105.587 21.8655 105.587 21.9716Z" fill="#455A64"/>
<path d="M105.587 25.318C105.587 25.4217 103.625 25.5061 101.202 25.5061C98.778 25.5061 96.8159 25.4217 96.8159 25.318C96.8159 25.2144 98.7803 25.1276 101.202 25.1276C103.623 25.1276 105.587 25.2119 105.587 25.318Z" fill="#455A64"/>
<path d="M87.4434 11.5412C87.4434 11.6449 82.685 11.7293 76.8174 11.7293C70.9497 11.7293 66.189 11.6449 66.189 11.5412C66.189 11.4375 70.9474 11.3531 76.8174 11.3531C82.6873 11.3531 87.4434 11.4375 87.4434 11.5412Z" fill="#FF725E"/>
<path d="M117.008 28.7319H23.9064C22.0313 28.7319 20.5112 30.3047 20.5112 32.2448V93.5638C20.5112 95.5039 22.0313 97.0766 23.9064 97.0766H117.008C118.883 97.0766 120.403 95.5039 120.403 93.5638V32.2448C120.403 30.3047 118.883 28.7319 117.008 28.7319Z" fill="#263238"/>
<path d="M16.4727 92.0208H124.695V93.7085C124.695 94.8467 124.258 95.9382 123.481 96.7431C122.703 97.5479 121.648 98 120.548 98H20.6205C19.5205 98 18.4654 97.5479 17.6875 96.7431C16.9097 95.9382 16.4727 94.8467 16.4727 93.7085V92.0208Z" fill="#263238"/>
<path d="M117.579 31.4465H23.3311V89.1635H117.579V31.4465Z" fill="#455A64"/>
<path d="M60.7476 92.0208H61.1693H62.3997L66.9647 92.0015L82.235 91.9678H82.3469L82.291 92.069L81.6851 93.1443L81.0443 94.2799L81.0256 94.3137H80.9883L62.0898 94.2775H62.0735V94.263L61.0831 92.597L60.8338 92.1751L60.7545 92.0353C60.7545 92.0353 60.7895 92.0859 60.8478 92.1823L61.1134 92.6043C61.3464 92.978 61.682 93.5229 62.1224 94.2293L62.0968 94.2148L80.9953 94.1787L80.9394 94.2124L81.5802 93.0768L82.1861 92.0015L82.242 92.1028L67.0347 92.069L62.4393 92.0401H61.1903H60.8617L60.7476 92.0208Z" fill="#455A64"/>
<path d="M120.401 92.0203C120.401 92.0565 98.0302 92.083 70.4584 92.083C42.8866 92.083 20.5112 92.0565 20.5112 92.0203C20.5112 91.9842 42.8679 91.9576 70.4584 91.9576C98.0489 91.9576 120.401 91.9866 120.401 92.0203Z" fill="#455A64"/>
<path d="M94.9001 19.9198C95.6417 19.9198 96.353 20.2246 96.8774 20.7672C97.4018 21.3098 97.6964 22.0457 97.6964 22.813V28.7368H89.354V23.2663C89.3537 22.8267 89.4371 22.3914 89.5996 21.9853C89.762 21.5791 90.0003 21.2101 90.3007 20.8993C90.6011 20.5884 90.9577 20.342 91.3503 20.1739C91.7429 20.0058 92.1636 19.9195 92.5884 19.9198H94.9001Z" fill="#263238"/>
<path d="M94.9002 19.9198C94.9002 19.956 87.0285 19.9753 77.3183 19.968C67.608 19.9608 59.7363 19.9222 59.7363 19.8885C59.7363 19.8547 67.6057 19.833 77.3183 19.8403C87.0309 19.8475 94.9002 19.8861 94.9002 19.9198Z" fill="#263238"/>
<path d="M94.8356 19.9125L91.3542 19.8884L86.2998 19.9198H49.1691C47.655 19.9198 46.2028 20.5421 45.1321 21.6499C44.0615 22.7576 43.46 24.2601 43.46 25.8267V89.3012H91.5476V23.1577C91.6897 19.9198 94.8356 19.9125 94.8356 19.9125Z" fill="#FAFAFA"/>
<path d="M94.8352 19.9122L65.8395 19.9773H51.3429H49.5299C49.227 19.9773 48.9287 19.9773 48.6304 20.0038C48.334 20.0363 48.0403 20.092 47.7519 20.1701C46.8815 20.4024 46.0778 20.8479 45.4086 21.4689C44.7395 22.0899 44.2244 22.8683 43.907 23.7384C43.8604 23.8855 43.7951 24.0253 43.7625 24.1748L43.653 24.6233C43.5961 24.9263 43.561 25.2334 43.5481 25.5418C43.5225 26.7835 43.5481 28.0396 43.5481 29.2885L43.5877 89.2863L43.4712 89.1658L91.5588 89.1995L91.4749 89.2863L91.4982 53.6035L91.5262 35.7621L91.5425 26.8414V24.6112V23.4949C91.5355 23.309 91.5425 23.1228 91.5635 22.938C91.5759 22.7524 91.6047 22.5684 91.6497 22.3883C91.7998 21.6514 92.2166 21.0018 92.8148 20.5728C93.1103 20.3597 93.4368 20.1969 93.7819 20.0906C94.124 19.9838 94.4781 19.9238 94.8352 19.9122ZM94.8352 19.9122C94.4757 19.9286 94.12 19.9942 93.7772 20.1074C93.4329 20.214 93.1072 20.3767 92.8125 20.5896C92.2183 21.019 91.8062 21.668 91.6614 22.4027C91.617 22.5821 91.5889 22.7653 91.5775 22.95C91.5584 23.135 91.5522 23.3211 91.5588 23.507V26.851L91.5775 35.7717L91.6054 53.6131L91.6264 89.296V89.3876H91.5402L43.4526 89.4189H43.3384V89.2984L43.3757 29.3006C43.3757 28.0493 43.3757 26.8028 43.392 25.5467C43.4056 25.2302 43.4414 24.9151 43.4992 24.604L43.6157 24.1459C43.6483 23.9916 43.7159 23.8469 43.7625 23.6974C44.0891 22.8054 44.6183 22.0078 45.3053 21.3716C45.9923 20.7355 46.817 20.2796 47.71 20.0423C48.0062 19.9631 48.3076 19.9067 48.6118 19.8736C48.9171 19.8567 49.2223 19.8398 49.5229 19.8471H51.3359H65.8326L94.8352 19.9122Z" fill="#263238"/>
<path d="M50.7049 31.3405H59.0939L59.1079 34.2481H58.7047C58.5743 33.2082 58.1983 32.5042 57.5769 32.1361C57.0866 31.9023 56.5506 31.7893 56.0109 31.8058V39.4004C56.0109 39.9333 56.0995 40.2853 56.2789 40.4589C56.4584 40.6325 56.8312 40.7193 57.3998 40.7193V41.0857H52.434V40.7193C52.9769 40.7193 53.3404 40.63 53.5175 40.454C53.6946 40.278 53.7879 39.9284 53.7879 39.4004V31.8058C53.2485 31.7924 52.7132 31.9054 52.2219 32.1361C51.5555 32.5146 51.1779 33.2162 51.0917 34.2481H50.6909L50.7049 31.3405Z" fill="#FF725E"/>
<path d="M84.9477 32.0059C84.9477 32.1096 80.3197 32.194 74.6105 32.194C68.9014 32.194 64.2734 32.1096 64.2734 32.0059C64.2734 31.9023 68.9014 31.8179 74.6105 31.8179C80.3197 31.8179 84.9477 31.8926 84.9477 32.0059Z" fill="#FF725E"/>
<path d="M72.6818 35.4151C72.6818 35.5188 70.8922 35.6031 68.6854 35.6031C66.4786 35.6031 64.689 35.5188 64.689 35.4151C64.689 35.3114 66.4786 35.2246 68.6854 35.2246C70.8922 35.2246 72.6818 35.309 72.6818 35.4151Z" fill="#455A64"/>
<path d="M62.6051 45.8404C62.6051 45.9441 59.2076 46.0285 55.0154 46.0285C50.8232 46.0285 47.4233 45.9441 47.4233 45.8404C47.4233 45.7367 50.8209 45.6523 55.0154 45.6523C59.2099 45.6523 62.6051 45.7488 62.6051 45.8404Z" fill="#455A64"/>
<path d="M79.7985 45.8404C79.7985 45.9441 76.3986 46.0285 72.2087 46.0285C68.0189 46.0285 64.6167 45.9441 64.6167 45.8404C64.6167 45.7367 68.0142 45.6523 72.2087 45.6523C76.4032 45.6523 79.7985 45.7488 79.7985 45.8404Z" fill="#FF725E"/>
<path d="M62.6051 48.6247C62.6051 48.7284 59.2076 48.8128 55.0154 48.8128C50.8232 48.8128 47.4233 48.7284 47.4233 48.6247C47.4233 48.521 50.8209 48.4366 55.0154 48.4366C59.2099 48.4366 62.6051 48.521 62.6051 48.6247Z" fill="#455A64"/>
<path d="M62.6051 51.4097C62.6051 51.5134 59.2076 51.5978 55.0154 51.5978C50.8232 51.5978 47.4233 51.5134 47.4233 51.4097C47.4233 51.306 50.8209 51.2192 55.0154 51.2192C59.2099 51.2192 62.6051 51.294 62.6051 51.4097Z" fill="#FF725E"/>
<path d="M72.6818 41.0859C72.6818 41.1896 70.8922 41.2739 68.6854 41.2739C66.4786 41.2739 64.689 41.1896 64.689 41.0859C64.689 40.9822 66.4786 40.8978 68.6854 40.8978C70.8922 40.8978 72.6818 40.9822 72.6818 41.0859Z" fill="#455A64"/>
<path d="M86.5466 45.8404C86.5466 45.9441 85.3535 46.0285 83.8831 46.0285C82.4127 46.0285 81.2173 45.9441 81.2173 45.8404C81.2173 45.7367 82.4104 45.6523 83.8831 45.6523C85.3559 45.6523 86.5466 45.7488 86.5466 45.8404Z" fill="#455A64"/>
<path d="M87.9724 35.4151C87.9724 35.5188 84.9011 35.6031 81.1144 35.6031C77.3277 35.6031 74.2563 35.5188 74.2563 35.4151C74.2563 35.3114 77.3253 35.2246 81.1144 35.2246C84.9034 35.2246 87.9724 35.309 87.9724 35.4151Z" fill="#455A64"/>
<path d="M87.3532 38.1301C87.3532 38.2337 82.2802 38.3181 76.0211 38.3181C69.762 38.3181 64.689 38.2337 64.689 38.1301C64.689 38.0264 69.762 37.942 76.0211 37.942C82.2802 37.942 87.3532 38.0336 87.3532 38.1301Z" fill="#455A64"/>
<path d="M86.5465 48.6247C86.5465 48.7284 81.6366 48.8128 75.5942 48.8128C69.5518 48.8128 64.6279 48.7284 64.6279 48.6247C64.6279 48.521 69.5355 48.4366 75.5942 48.4366C81.6529 48.4366 86.5465 48.521 86.5465 48.6247Z" fill="#455A64"/>
<path d="M86.5465 56.6849C86.5465 56.7886 81.9395 56.8729 76.2583 56.8729C70.5771 56.8729 65.9678 56.7886 65.9678 56.6849C65.9678 56.5812 70.5747 56.4968 76.2583 56.4968C81.9418 56.4968 86.5465 56.5812 86.5465 56.6849Z" fill="#FF725E"/>
<path d="M86.5465 59.3946C86.5465 59.4983 81.9395 59.5827 76.2583 59.5827C70.5771 59.5827 65.9678 59.4983 65.9678 59.3946C65.9678 59.2909 70.5747 59.2065 76.2583 59.2065C81.9418 59.2065 86.5465 59.2909 86.5465 59.3946Z" fill="#455A64"/>
<path d="M86.5465 62.1049C86.5465 62.2086 81.9395 62.293 76.2583 62.293C70.5771 62.293 65.9678 62.2086 65.9678 62.1049C65.9678 62.0013 70.5747 61.9169 76.2583 61.9169C81.9418 61.9169 86.5465 62.0013 86.5465 62.1049Z" fill="#455A64"/>
<path d="M86.5465 64.8149C86.5465 64.9186 81.9395 65.0029 76.2583 65.0029C70.5771 65.0029 65.9678 64.9186 65.9678 64.8149C65.9678 64.7112 70.5747 64.6268 76.2583 64.6268C81.9418 64.6268 86.5465 64.7112 86.5465 64.8149Z" fill="#455A64"/>
<path d="M77.8153 67.5247C77.8153 67.5754 77.1512 67.6236 76.0793 67.6573C75.0073 67.6911 73.516 67.7128 71.8848 67.7128C70.2536 67.7128 68.7669 67.6911 67.6903 67.6573C66.6137 67.6236 65.9565 67.5754 65.9565 67.5247C65.9565 67.4741 66.6183 67.4259 67.6903 67.3921C68.7622 67.3584 70.2536 67.3367 71.8848 67.3367C73.516 67.3367 75.0004 67.3584 76.0793 67.3921C77.1582 67.4259 77.8153 67.4717 77.8153 67.5247Z" fill="#455A64"/>
<path d="M82.818 51.5543C82.818 51.6579 78.8565 51.7423 73.963 51.7423C69.0694 51.7423 65.1079 51.6579 65.1079 51.5543C65.1079 51.4506 69.0694 51.3662 73.963 51.3662C78.8565 51.3662 82.818 51.4506 82.818 51.5543Z" fill="#455A64"/>
<path d="M62.2463 56.9913L63.3392 77.9091L43.5715 80.4696L43.5552 56.8129L62.2463 56.9913Z" fill="#E0E0E0"/>
<path d="M36.6522 55.5418L36.5137 77.7322L63.3393 77.9114L63.4778 55.721L36.6522 55.5418Z" fill="#F5F5F5"/>
<path d="M37.5683 56.9464L37.4473 76.3425L62.3877 76.5092L62.5088 57.1131L37.5683 56.9464Z" fill="#FF725E"/>
<g opacity="0.2">
<path d="M37.4448 76.3396L46.2323 64.3424L51.5803 71.9202L55.2668 67.9131L62.3881 76.5059L37.4448 76.3396Z" fill="black"/>
</g>
<g opacity="0.2">
<path d="M53.9269 62.9151C53.9245 63.3171 53.807 63.7095 53.5891 64.0424C53.3713 64.3754 53.0628 64.634 52.7029 64.7855C52.3429 64.9371 51.9476 64.9748 51.5669 64.8938C51.1863 64.8128 50.8374 64.6169 50.5644 64.3307C50.2914 64.0446 50.1066 63.681 50.0333 63.2862C49.96 62.8913 50.0016 62.4828 50.1527 62.1124C50.3039 61.742 50.5579 61.4263 50.8825 61.2052C51.2071 60.9841 51.5878 60.8677 51.9764 60.8705C52.2343 60.8721 52.4893 60.9263 52.7269 61.0299C52.9646 61.1335 53.1801 61.2846 53.3613 61.4745C53.5424 61.6644 53.6856 61.8893 53.7826 62.1365C53.8797 62.3837 53.9287 62.6483 53.9269 62.9151Z" fill="black"/>
</g>
<path d="M65.9214 83.1432C65.9214 83.228 65.8971 83.311 65.8515 83.3816C65.8059 83.4522 65.7411 83.5072 65.6653 83.5396C65.5895 83.5721 65.5061 83.5806 65.4257 83.5641C65.3452 83.5475 65.2713 83.5066 65.2133 83.4466C65.1553 83.3866 65.1158 83.3101 65.0998 83.2269C65.0838 83.1436 65.092 83.0573 65.1234 82.9789C65.1548 82.9005 65.2079 82.8335 65.2761 82.7863C65.3444 82.7392 65.4245 82.714 65.5066 82.714C65.5611 82.7137 65.6152 82.7246 65.6657 82.746C65.7162 82.7675 65.762 82.7991 65.8006 82.839C65.8392 82.8789 65.8697 82.9263 65.8904 82.9785C65.9112 83.0308 65.9217 83.0867 65.9214 83.1432Z" fill="#263238"/>
<path d="M68.3848 83.1431C68.3848 83.228 68.3604 83.311 68.3148 83.3816C68.2693 83.4522 68.2045 83.5072 68.1287 83.5396C68.0529 83.5721 67.9695 83.5806 67.889 83.5641C67.8086 83.5475 67.7347 83.5066 67.6767 83.4466C67.6187 83.3866 67.5792 83.3101 67.5631 83.2269C67.5471 83.1436 67.5554 83.0573 67.5867 82.9789C67.6181 82.9005 67.6713 82.8335 67.7395 82.7863C67.8077 82.7392 67.8879 82.714 67.97 82.714C68.08 82.714 68.1855 82.7592 68.2633 82.8397C68.3411 82.9202 68.3848 83.0293 68.3848 83.1431Z" fill="#263238"/>
<path d="M70.8452 83.1431C70.8452 83.228 70.8209 83.311 70.7753 83.3816C70.7297 83.4522 70.6649 83.5072 70.5891 83.5396C70.5134 83.5721 70.43 83.5806 70.3495 83.5641C70.269 83.5475 70.1951 83.5066 70.1371 83.4466C70.0791 83.3866 70.0396 83.3101 70.0236 83.2269C70.0076 83.1436 70.0158 83.0573 70.0472 82.9789C70.0786 82.9005 70.1318 82.8335 70.2 82.7863C70.2682 82.7392 70.3484 82.714 70.4304 82.714C70.5404 82.714 70.6459 82.7592 70.7237 82.8397C70.8015 82.9202 70.8452 83.0293 70.8452 83.1431Z" fill="#263238"/>
<path d="M79.9146 73.1712C79.9146 73.2749 76.5147 73.3593 72.3225 73.3593C68.1303 73.3593 64.7305 73.2749 64.7305 73.1712C64.7305 73.0675 68.1303 72.9832 72.3225 72.9832C76.5147 72.9832 79.9146 73.0675 79.9146 73.1712Z" fill="#FF725E"/>
<path d="M86.663 75.9561C86.663 76.0598 81.7531 76.1442 75.6968 76.1442C69.6404 76.1442 64.7305 76.0598 64.7305 75.9561C64.7305 75.8525 69.6404 75.7681 75.6968 75.7681C81.7531 75.7681 86.663 75.8525 86.663 75.9561Z" fill="#455A64"/>
<path d="M135.473 80.9081L135.344 94.2747L151.502 94.4418L151.632 81.0752L135.473 80.9081Z" fill="#F5F5F5"/>
<path d="M135.466 81.4442L135.394 93.1277L150.417 93.2281L150.489 81.5446L135.466 81.4442Z" fill="#FF725E"/>
<path opacity="0.2" d="M135.39 93.1225L140.682 85.8967L143.904 90.4608L146.125 88.0473L150.413 93.2238L135.39 93.1225Z" fill="black"/>
<g opacity="0.2">
<path d="M145.319 85.0481C145.318 85.2905 145.248 85.5271 145.117 85.728C144.986 85.9289 144.8 86.0852 144.584 86.1769C144.367 86.2686 144.129 86.2918 143.899 86.2434C143.67 86.195 143.459 86.0773 143.294 85.9051C143.129 85.7329 143.018 85.5139 142.973 85.276C142.929 85.0381 142.953 84.7918 143.044 84.5684C143.135 84.3451 143.288 84.1546 143.483 84.0211C143.679 83.8876 143.908 83.8171 144.142 83.8185C144.456 83.8204 144.756 83.951 144.977 84.1815C145.197 84.412 145.32 84.7237 145.319 85.0481Z" fill="black"/>
</g>
<path d="M132.546 79.2014L132.462 92.5677L148.62 92.6757L148.704 79.3094L132.546 79.2014Z" fill="#F5F5F5"/>
<path d="M133.099 80.0465L133.026 91.73L148.049 91.8304L148.122 80.1469L133.099 80.0465Z" fill="#FF725E"/>
<path opacity="0.2" d="M133.021 91.7268L138.313 84.501L141.535 89.065L143.756 86.6516L148.044 91.828L133.021 91.7268Z" fill="black"/>
<g opacity="0.2">
<path d="M142.949 83.6426C142.947 83.8853 142.876 84.1222 142.744 84.323C142.613 84.5239 142.426 84.6797 142.209 84.7707C141.991 84.8617 141.752 84.8837 141.523 84.8341C141.293 84.7844 141.083 84.6653 140.919 84.4918C140.755 84.3183 140.644 84.0982 140.601 83.8596C140.558 83.621 140.585 83.3745 140.677 83.1515C140.77 82.9285 140.925 82.739 141.122 82.607C141.318 82.4751 141.549 82.4067 141.783 82.4106C142.095 82.4156 142.393 82.5479 142.611 82.7786C142.829 83.0093 142.95 83.3198 142.949 83.6426Z" fill="black"/>
</g>
<path d="M130.437 78.0508L130.354 91.4171L146.511 91.5251L146.595 78.1588L130.437 78.0508Z" fill="#F5F5F5"/>
<path d="M130.988 78.8937L130.916 90.5771L145.939 90.6775L146.011 78.994L130.988 78.8937Z" fill="#FF725E"/>
<path opacity="0.2" d="M130.911 90.5741L136.203 83.3459L139.425 87.9124L141.644 85.4966L145.934 90.673L130.911 90.5741Z" fill="black"/>
<g opacity="0.2">
<path d="M140.837 82.4878C140.836 82.7305 140.765 82.9674 140.633 83.1682C140.501 83.3691 140.315 83.5249 140.097 83.6159C139.88 83.7069 139.641 83.729 139.411 83.6793C139.182 83.6296 138.971 83.5105 138.807 83.337C138.643 83.1635 138.533 82.9434 138.49 82.7048C138.447 82.4662 138.473 82.2197 138.566 81.9967C138.659 81.7737 138.813 81.5842 139.01 81.4523C139.207 81.3203 139.438 81.2519 139.672 81.2558C139.984 81.2608 140.281 81.3931 140.5 81.6238C140.718 81.8545 140.839 82.165 140.837 82.4878Z" fill="black"/>
</g>
<path d="M128.598 79.7878L128.469 93.1544L144.627 93.3216L144.756 79.955L128.598 79.7878Z" fill="#F5F5F5"/>
<path d="M128.62 80.3302L128.547 92.0137L143.57 92.114L143.643 80.4306L128.62 80.3302Z" fill="#455A64"/>
<path opacity="0.2" d="M128.541 92.0114L133.833 84.7832L137.055 89.3472L139.274 86.9338L143.564 92.1102L128.541 92.0114Z" fill="black"/>
<g opacity="0.2">
<path d="M138.477 83.9247C138.476 84.1674 138.404 84.4042 138.273 84.6051C138.141 84.806 137.954 84.9618 137.737 85.0528C137.519 85.1438 137.281 85.1658 137.051 85.1162C136.821 85.0665 136.611 84.9474 136.447 84.7739C136.283 84.6004 136.172 84.3803 136.129 84.1417C136.086 83.9031 136.113 83.6566 136.206 83.4336C136.298 83.2106 136.453 83.0211 136.65 82.8891C136.847 82.7572 137.077 82.6888 137.312 82.6927C137.624 82.6965 137.922 82.8283 138.141 83.0593C138.359 83.2903 138.48 83.6015 138.477 83.9247Z" fill="black"/>
</g>
<path d="M153.547 84.4526H144.219V97.3587H153.547V84.4526Z" fill="#263238"/>
<path d="M126.36 84.4526V97.3563H145.002V84.4526H126.36ZM137.673 87.505H133.712C133.484 87.505 133.266 87.4115 133.106 87.2451C132.945 87.0787 132.854 86.853 132.854 86.6177C132.854 86.3824 132.945 86.1567 133.106 85.9903C133.266 85.8239 133.484 85.7305 133.712 85.7305H137.673C137.901 85.7305 138.119 85.8239 138.28 85.9903C138.441 86.1567 138.531 86.3824 138.531 86.6177C138.531 86.853 138.441 87.0787 138.28 87.2451C138.119 87.4115 137.901 87.505 137.673 87.505Z" fill="#FF725E"/>
<path d="M106.263 59.1156C106.007 59.1993 105.789 59.3777 105.651 59.6169C105.513 59.8561 105.465 60.1394 105.515 60.4129C105.566 60.6864 105.712 60.9311 105.926 61.1004C106.14 61.2697 106.406 61.3518 106.675 61.3312C106.943 61.3105 107.195 61.1885 107.382 60.9883C107.569 60.7881 107.679 60.5237 107.69 60.2455C107.701 59.9672 107.613 59.6944 107.442 59.4789C107.271 59.2635 107.03 59.1205 106.764 59.077" fill="#EBEBEB"/>
<path d="M109.413 54.378C109.118 54.4737 108.868 54.6782 108.709 54.9527C108.55 55.2271 108.494 55.5525 108.552 55.8667C108.61 56.181 108.777 56.4623 109.023 56.6571C109.268 56.852 109.574 56.9468 109.882 56.9236C110.19 56.9003 110.48 56.7606 110.695 56.531C110.911 56.3014 111.037 55.998 111.05 55.6784C111.063 55.3587 110.962 55.0453 110.767 54.7975C110.571 54.5497 110.294 54.385 109.989 54.3346" fill="#EBEBEB"/>
<path d="M116.141 33.4984C114.044 33.3151 111.903 33.8022 110.455 35.3982C109.737 36.2056 109.201 37.1685 108.886 38.2169C108.572 39.2653 108.487 40.3729 108.638 41.4595C106.396 42.4239 105.175 45.375 106.044 47.7281C106.913 50.0812 109.733 51.4169 112.021 50.5803C112.539 51.9367 113.389 53.1301 114.488 54.0428C115.587 54.9556 116.897 55.5562 118.289 55.7855C119.681 56.0147 121.107 55.8647 122.426 55.3502C123.744 54.8357 124.911 53.9745 125.81 52.8515C128.007 53.365 130.47 53.3337 132.334 51.9932C134.199 50.6526 135.019 47.716 133.611 45.8933C136.144 45.2544 137.431 41.9827 136.68 39.3981C135.93 36.8135 133.679 34.9618 131.279 33.9131C129.692 33.2187 127.711 32.857 126.357 33.9589C125.813 33.092 125.076 32.3724 124.208 31.86C123.34 31.3476 122.366 31.0572 121.367 31.0131C120.369 30.969 119.375 31.1724 118.468 31.6064C117.561 32.0404 116.767 32.6924 116.153 33.508" fill="#F5F5F5"/>
<path d="M116.141 33.4983C116.141 33.4983 116.183 33.4405 116.27 33.3296C116.397 33.167 116.534 33.0117 116.677 32.8642C117.24 32.2918 117.9 31.8331 118.626 31.5117C119.151 31.2762 119.704 31.1141 120.271 31.0295C120.949 30.9318 121.639 30.9538 122.31 31.0946C123.086 31.2563 123.827 31.5653 124.496 32.0059C125.25 32.5038 125.894 33.1611 126.385 33.9347H126.325C126.9 33.4859 127.599 33.2377 128.32 33.2259C129.084 33.2115 129.844 33.3372 130.566 33.5972C131.333 33.866 132.071 34.2158 132.768 34.6411C133.509 35.0832 134.194 35.6185 134.807 36.2348C135.456 36.8803 135.99 37.6394 136.385 38.4771C136.58 38.9141 136.73 39.3716 136.832 39.8417C136.925 40.324 136.957 40.8167 136.928 41.3076C136.869 42.3212 136.555 43.3014 136.016 44.1501C135.736 44.5807 135.386 44.9582 134.982 45.2664C134.57 45.5809 134.104 45.8116 133.609 45.9463L133.64 45.8523C133.945 46.2561 134.159 46.7257 134.266 47.2266C134.372 47.7356 134.385 48.2606 134.304 48.7744C134.131 49.83 133.642 50.8026 132.906 51.5543C132.131 52.301 131.171 52.8087 130.132 53.0202C129.081 53.2425 128 53.2759 126.938 53.1191C126.549 53.0684 126.164 52.9889 125.787 52.9069L125.847 52.8852C125.16 53.7499 124.312 54.4637 123.355 54.9845C122.397 55.5052 121.348 55.8225 120.27 55.9175C119.192 56.0125 118.106 55.8834 117.077 55.5378C116.048 55.1922 115.096 54.6371 114.277 53.9051C113.257 53.0132 112.462 51.8779 111.961 50.5972L112.031 50.6285C111.387 50.843 110.706 50.9163 110.033 50.8437C109.36 50.771 108.708 50.5541 108.121 50.2066C107.562 49.8944 107.072 49.4656 106.681 48.9472C106.291 48.4289 106.009 47.8323 105.853 47.1952C105.59 45.9967 105.756 44.7403 106.319 43.6583C106.818 42.6598 107.632 41.8684 108.626 41.4161L108.603 41.4619C108.47 40.5065 108.519 39.5334 108.748 38.5976C109.039 37.3869 109.625 36.2733 110.449 35.362C110.688 35.104 110.949 34.8692 111.229 34.6604C111.719 34.2961 112.261 34.0137 112.835 33.8238C113.906 33.4831 115.032 33.3707 116.146 33.4935C116.146 33.4935 116.072 33.4935 115.927 33.4935C115.783 33.4935 115.568 33.4766 115.284 33.4766C114.456 33.477 113.632 33.6112 112.844 33.8744C112.275 34.0662 111.739 34.3493 111.255 34.7135C110.978 34.9207 110.721 35.1539 110.486 35.4103C110.235 35.691 110.006 35.9917 109.801 36.3096C109.348 37.017 109.014 37.7988 108.813 38.6217C108.591 39.5481 108.545 40.5102 108.678 41.4546V41.486L108.647 41.5004C107.674 41.9484 106.877 42.7266 106.389 43.7065C105.835 44.767 105.669 45.9992 105.923 47.1759C106.082 47.8001 106.365 48.383 106.755 48.8874C107.144 49.3918 107.631 49.8066 108.184 50.1053C108.759 50.4442 109.396 50.6557 110.054 50.7263C110.712 50.7968 111.378 50.7249 112.008 50.5152L112.057 50.4983L112.077 50.5489C112.588 51.8366 113.395 52.9753 114.429 53.8655C115.463 54.7557 116.692 55.3703 118.008 55.6554C119.43 55.9285 120.895 55.8083 122.258 55.3071C123.62 54.8058 124.83 53.9412 125.766 52.8008L125.789 52.7719H125.824C126.199 52.8539 126.579 52.9334 126.966 52.9816C128.013 53.1358 129.079 53.1032 130.116 52.8852C131.133 52.6801 132.075 52.184 132.833 51.4531C133.55 50.7201 134.026 49.7718 134.192 48.7431C134.28 48.2518 134.27 47.7468 134.16 47.2601C134.051 46.7733 133.845 46.3153 133.556 45.915L133.5 45.8427L133.588 45.8186C134.068 45.6866 134.52 45.4634 134.921 45.1603C135.31 44.8544 135.645 44.4827 135.914 44.0609C136.443 43.23 136.752 42.2696 136.809 41.2762C136.84 40.792 136.81 40.3056 136.718 39.8296C136.619 39.3685 136.472 38.9198 136.28 38.4915C135.893 37.6642 135.367 36.9141 134.728 36.2758C134.121 35.6648 133.443 35.1343 132.71 34.6966C132.02 34.2727 131.29 33.9237 130.531 33.655C129.82 33.398 129.07 33.2724 128.317 33.2838C127.614 33.2927 126.932 33.5325 126.369 33.9685L126.334 33.9974L126.308 33.9588C125.383 32.5083 123.939 31.4966 122.293 31.1452C121.63 31.0029 120.947 30.9776 120.275 31.0705C118.929 31.2681 117.676 31.8961 116.691 32.8667C116.503 33.0595 116.363 33.2138 116.277 33.3223C116.19 33.4308 116.141 33.4983 116.141 33.4983Z" fill="#263238"/>
<path d="M130.554 41.0134C130.554 41.117 126.42 41.2014 121.324 41.2014C116.228 41.2014 112.096 41.117 112.096 41.0134C112.096 40.9097 116.228 40.8253 121.324 40.8253C126.42 40.8253 130.554 40.9097 130.554 41.0134Z" fill="#455A64"/>
<path d="M130.554 43.0966C130.554 43.2003 126.42 43.2847 121.324 43.2847C116.228 43.2847 112.096 43.2003 112.096 43.0966C112.096 42.9929 116.228 42.9061 121.324 42.9061C126.42 42.9061 130.554 42.9809 130.554 43.0966Z" fill="#455A64"/>
<path d="M130.554 45.1579C130.554 45.2616 126.42 45.346 121.324 45.346C116.228 45.346 112.096 45.2616 112.096 45.1579C112.096 45.0542 116.228 44.9698 121.324 44.9698C126.42 44.9698 130.554 45.0542 130.554 45.1579Z" fill="#455A64"/>
<path d="M130.554 47.2291C130.554 47.3327 126.42 47.4171 121.324 47.4171C116.228 47.4171 112.096 47.3327 112.096 47.2291C112.096 47.1254 116.228 47.041 121.324 47.041C126.42 47.041 130.554 47.1254 130.554 47.2291Z" fill="#455A64"/>
</svg>
