<svg width="50" height="47" viewBox="0 0 50 47" fill="none" xmlns="http://www.w3.org/2000/svg">
<path d="M22.5 19.9752C22.5 19.6636 22.6317 19.3647 22.8661 19.1443C23.1005 18.924 23.4185 18.8002 23.75 18.8002H32.5C32.8315 18.8002 33.1495 18.924 33.3839 19.1443C33.6183 19.3647 33.75 19.6636 33.75 19.9752C33.75 20.2868 33.6183 20.5857 33.3839 20.806C33.1495 21.0264 32.8315 21.1502 32.5 21.1502H23.75C23.4185 21.1502 23.1005 21.0264 22.8661 20.806C22.6317 20.5857 22.5 20.2868 22.5 19.9752ZM22.5 27.0252C22.5 26.7136 22.6317 26.4147 22.8661 26.1943C23.1005 25.974 23.4185 25.8502 23.75 25.8502H32.5C32.8315 25.8502 33.1495 25.974 33.3839 26.1943C33.6183 26.4147 33.75 26.7136 33.75 27.0252C33.75 27.3368 33.6183 27.6357 33.3839 27.856C33.1495 28.0764 32.8315 28.2002 32.5 28.2002H23.75C23.4185 28.2002 23.1005 28.0764 22.8661 27.856C22.6317 27.6357 22.5 27.3368 22.5 27.0252ZM22.5 34.0752C22.5 33.7636 22.6317 33.4647 22.8661 33.2443C23.1005 33.024 23.4185 32.9002 23.75 32.9002H32.5C32.8315 32.9002 33.1495 33.024 33.3839 33.2443C33.6183 33.4647 33.75 33.7636 33.75 34.0752C33.75 34.3868 33.6183 34.6857 33.3839 34.906C33.1495 35.1264 32.8315 35.2502 32.5 35.2502H23.75C23.4185 35.2502 23.1005 35.1264 22.8661 34.906C22.6317 34.6857 22.5 34.3868 22.5 34.0752ZM20 19.9752C20 20.4426 19.8025 20.8909 19.4508 21.2215C19.0992 21.552 18.6223 21.7377 18.125 21.7377C17.6277 21.7377 17.1508 21.552 16.7992 21.2215C16.4475 20.8909 16.25 20.4426 16.25 19.9752C16.25 19.5078 16.4475 19.0595 16.7992 18.7289C17.1508 18.3984 17.6277 18.2127 18.125 18.2127C18.6223 18.2127 19.0992 18.3984 19.4508 18.7289C19.8025 19.0595 20 19.5078 20 19.9752ZM20 27.0252C20 27.4926 19.8025 27.9409 19.4508 28.2715C19.0992 28.602 18.6223 28.7877 18.125 28.7877C17.6277 28.7877 17.1508 28.602 16.7992 28.2715C16.4475 27.9409 16.25 27.4926 16.25 27.0252C16.25 26.5578 16.4475 26.1095 16.7992 25.7789C17.1508 25.4484 17.6277 25.2627 18.125 25.2627C18.6223 25.2627 19.0992 25.4484 19.4508 25.7789C19.8025 26.1095 20 26.5578 20 27.0252ZM18.125 35.8377C18.6223 35.8377 19.0992 35.652 19.4508 35.3215C19.8025 34.9909 20 34.5426 20 34.0752C20 33.6078 19.8025 33.1595 19.4508 32.8289C19.0992 32.4984 18.6223 32.3127 18.125 32.3127C17.6277 32.3127 17.1508 32.4984 16.7992 32.8289C16.4475 33.1595 16.25 33.6078 16.25 34.0752C16.25 34.5426 16.4475 34.9909 16.7992 35.3215C17.1508 35.652 17.6277 35.8377 18.125 35.8377ZM17.7125 7.0502C17.9711 6.36264 18.4502 5.7674 19.0838 5.34651C19.7173 4.92563 20.4742 4.69981 21.25 4.7002H28.75C29.5258 4.69981 30.2827 4.92563 30.9162 5.34651C31.5498 5.7674 32.0289 6.36264 32.2875 7.0502H36.25C37.2446 7.0502 38.1984 7.42158 38.9017 8.08264C39.6049 8.74371 40 9.64031 40 10.5752V38.7752C40 39.7101 39.6049 40.6067 38.9017 41.2677C38.1984 41.9288 37.2446 42.3002 36.25 42.3002H13.75C12.7554 42.3002 11.8016 41.9288 11.0983 41.2677C10.3951 40.6067 10 39.7101 10 38.7752V10.5752C10 9.64031 10.3951 8.74371 11.0983 8.08264C11.8016 7.42158 12.7554 7.0502 13.75 7.0502H17.7125ZM21.25 7.0502C20.9185 7.0502 20.6005 7.17399 20.3661 7.39435C20.1317 7.6147 20 7.91357 20 8.2252C20 8.53683 20.1317 8.83569 20.3661 9.05605C20.6005 9.2764 20.9185 9.4002 21.25 9.4002H28.75C29.0815 9.4002 29.3995 9.2764 29.6339 9.05605C29.8683 8.83569 30 8.53683 30 8.2252C30 7.91357 29.8683 7.6147 29.6339 7.39435C29.3995 7.17399 29.0815 7.0502 28.75 7.0502H21.25ZM17.7125 9.4002H13.75C13.4185 9.4002 13.1005 9.52399 12.8661 9.74435C12.6317 9.9647 12.5 10.2636 12.5 10.5752V38.7752C12.5 39.0868 12.6317 39.3857 12.8661 39.606C13.1005 39.8264 13.4185 39.9502 13.75 39.9502H36.25C36.5815 39.9502 36.8995 39.8264 37.1339 39.606C37.3683 39.3857 37.5 39.0868 37.5 38.7752V10.5752C37.5 10.2636 37.3683 9.9647 37.1339 9.74435C36.8995 9.52399 36.5815 9.4002 36.25 9.4002H32.2875C32.0289 10.0878 31.5498 10.683 30.9162 11.1039C30.2827 11.5248 29.5258 11.7506 28.75 11.7502H21.25C20.4742 11.7506 19.7173 11.5248 19.0838 11.1039C18.4502 10.683 17.9711 10.0878 17.7125 9.4002Z" fill="white"/>
</svg>
