<svg width="54" height="54" viewBox="0 0 54 54" fill="none" xmlns="http://www.w3.org/2000/svg">
<path fill-rule="evenodd" clip-rule="evenodd" d="M27 45C36.9416 45 45 36.9416 45 27C45 17.0584 36.9416 9 27 9C17.0584 9 9 17.0584 9 27C9 36.9416 17.0584 45 27 45ZM27 47.25C38.1836 47.25 47.25 38.1836 47.25 27C47.25 15.8164 38.1836 6.75 27 6.75C15.8164 6.75 6.75 15.8164 6.75 27C6.75 38.1836 15.8164 47.25 27 47.25Z" fill="white"/>
<path fill-rule="evenodd" clip-rule="evenodd" d="M18.782 31.5C20.5314 35.811 23.7545 38.25 27.0001 38.25C30.2469 38.25 33.4689 35.811 35.2183 31.5H18.782ZM27.0001 40.5C22.4574 40.5 18.5199 37.071 16.5849 32.0625C16.5659 32.0142 16.5472 31.9658 16.5286 31.9174C16.0269 30.5775 17.1001 29.25 18.5323 29.25H35.4691C36.9013 29.25 37.9756 30.5775 37.4716 31.9174C37.4534 31.9658 37.4351 32.0142 37.4165 32.0625C35.4804 37.071 31.5429 40.5 27.0001 40.5Z" fill="white"/>
<path d="M23.9649 25.2472C24.1111 24.8444 24.0672 24.3528 23.9469 23.905C23.802 23.3894 23.5699 22.9024 23.2606 22.465C22.607 21.5324 21.5236 20.6763 20.06 20.6133C18.5446 20.5503 17.4129 21.5122 16.7154 22.5325C16.3804 23.0237 16.1171 23.5601 15.9335 24.1255C15.7726 24.6273 15.6871 25.1403 15.7434 25.5509C15.7563 25.6445 15.7926 25.7334 15.8489 25.8093C15.9053 25.8852 15.9798 25.9456 16.0657 25.9851C16.1516 26.0246 16.246 26.0417 16.3403 26.0351C16.4346 26.0284 16.5257 25.9981 16.6051 25.9469C17.0551 25.6589 17.5265 25.264 17.963 24.8995C18.161 24.733 18.3534 24.5733 18.5311 24.4327C19.1634 23.9332 19.6561 23.6485 20.0634 23.6283C20.4515 23.6092 20.8992 23.8308 21.464 24.2538C21.6665 24.4045 21.8622 24.5643 22.0647 24.7308L22.2841 24.9097C22.5586 25.1313 22.8511 25.3585 23.1459 25.5363C23.217 25.5792 23.2967 25.6058 23.3793 25.6142C23.4619 25.6226 23.5453 25.6127 23.6236 25.585C23.7019 25.5574 23.7731 25.5127 23.8321 25.4543C23.8911 25.3959 23.9365 25.3252 23.9649 25.2472ZM29.9397 25.2472C29.7935 24.8444 29.8385 24.3528 29.9589 23.905C30.0849 23.437 30.3177 22.9342 30.6451 22.465C31.2976 21.5324 32.3821 20.6763 33.8457 20.6133C35.36 20.5503 36.4929 21.5122 37.1904 22.5325C37.5436 23.05 37.8069 23.6103 37.9722 24.1255C38.132 24.6273 38.2175 25.1403 38.1613 25.5509C38.1482 25.6444 38.1119 25.733 38.0557 25.8088C37.9994 25.8845 37.925 25.9449 37.8393 25.9843C37.7535 26.0238 37.6593 26.041 37.5652 26.0345C37.471 26.0279 37.3801 25.9978 37.3006 25.9469C36.8506 25.6589 36.3781 25.264 35.9427 24.8995C35.7554 24.7414 35.566 24.5858 35.3746 24.4327C34.7412 23.9332 34.2496 23.6485 33.8412 23.6283C33.4531 23.6092 33.0054 23.8308 32.4417 24.2538C32.2392 24.4045 32.0435 24.5643 31.841 24.7308L31.6205 24.9097C31.3479 25.1375 31.0604 25.3468 30.7599 25.5363C30.6887 25.5794 30.6089 25.6061 30.5262 25.6147C30.4435 25.6232 30.3599 25.6133 30.2814 25.5857C30.203 25.558 30.1317 25.5133 30.0726 25.4548C30.0135 25.3962 29.9681 25.3253 29.9397 25.2472Z" fill="white"/>
</svg>
