<svg width="194" height="191" viewBox="0 0 194 191" fill="none" xmlns="http://www.w3.org/2000/svg">
<rect x="101" width="93" height="75.4054" rx="16" fill="url(#paint0_linear_312_903)"/>
<path d="M124.669 24.7858C124.669 23.4155 125.213 22.1014 126.182 21.1324C127.151 20.1635 128.465 19.6191 129.836 19.6191H166.002C167.373 19.6191 168.687 20.1635 169.656 21.1324C170.625 22.1014 171.169 23.4155 171.169 24.7858V50.6191C171.169 51.9894 170.625 53.3036 169.656 54.2725C168.687 55.2415 167.373 55.7858 166.002 55.7858H129.836C128.465 55.7858 127.151 55.2415 126.182 54.2725C125.213 53.3036 124.669 51.9894 124.669 50.6191V24.7858Z" stroke="#FFFCFA" stroke-width="2" stroke-linecap="round" stroke-linejoin="round"/>
<path d="M124.669 24.7861L147.919 40.2861L171.169 24.7861" stroke="#FFFCFA" stroke-width="2" stroke-linecap="round" stroke-linejoin="round"/>
<rect x="117" y="114" width="74.2644" height="71" rx="16" fill="url(#paint1_linear_312_903)"/>
<path d="M149.848 148.343C149.848 149.588 150.342 150.782 151.222 151.662C152.102 152.542 153.296 153.036 154.54 153.036C155.785 153.036 156.978 152.542 157.858 151.662C158.738 150.782 159.233 149.588 159.233 148.343C159.233 147.099 158.738 145.905 157.858 145.025C156.978 144.145 155.785 143.651 154.54 143.651C153.296 143.651 152.102 144.145 151.222 145.025C150.342 145.905 149.848 147.099 149.848 148.343Z" stroke="#FFFCFA" stroke-width="2" stroke-linecap="round" stroke-linejoin="round"/>
<path d="M163.389 157.192L156.752 163.829C156.165 164.415 155.37 164.744 154.541 164.744C153.712 164.744 152.917 164.415 152.33 163.829L145.692 157.192C143.942 155.442 142.75 153.212 142.267 150.785C141.784 148.358 142.032 145.842 142.979 143.555C143.927 141.269 145.53 139.314 147.588 137.939C149.646 136.564 152.065 135.831 154.54 135.831C157.015 135.831 159.434 136.564 161.492 137.939C163.55 139.314 165.154 141.269 166.101 143.555C167.048 145.842 167.296 148.358 166.813 150.785C166.331 153.212 165.139 155.442 163.389 157.192Z" stroke="#FFFCFA" stroke-width="2" stroke-linecap="round" stroke-linejoin="round"/>
<rect y="20" width="74.2644" height="71" rx="16" fill="url(#paint2_linear_312_903)"/>
<path d="M45.3123 51.5835C51.2618 51.5835 56.0832 55.5295 56.0832 60.396C56.0832 63.1318 54.5596 65.5758 52.1665 67.1914V71.1668L48.3203 68.8599C47.3346 69.0927 46.3251 69.2097 45.3123 69.2085C39.3629 69.2085 34.5415 65.2625 34.5415 60.396C34.5415 55.5295 39.3629 51.5835 45.3123 51.5835Z" stroke="#F0F0F0" stroke-width="2" stroke-linecap="round" stroke-linejoin="round"/>
<path d="M34.9273 62.7421C33.576 63.1259 32.1269 63.3335 30.6248 63.3335C28.8847 63.3373 27.156 63.0513 25.5097 62.4875L20.8332 65.2918V59.8065C18.4107 57.6876 16.9165 54.7854 16.9165 51.5835C16.9165 45.0936 23.0539 39.8335 30.6248 39.8335C38.0313 39.8335 44.0649 44.8664 44.3332 51.1625V51.6187" stroke="#F0F0F0" stroke-width="2" stroke-linecap="round" stroke-linejoin="round"/>
<path d="M32.5835 47.6665H32.6031" stroke="#F0F0F0" stroke-width="2" stroke-linecap="round" stroke-linejoin="round"/>
<path d="M26.7085 47.6665H26.7281" stroke="#F0F0F0" stroke-width="2" stroke-linecap="round" stroke-linejoin="round"/>
<path d="M42.375 59.4165H42.3946" stroke="#F0F0F0" stroke-width="2" stroke-linecap="round" stroke-linejoin="round"/>
<path d="M48.25 59.4165H48.2696" stroke="#F0F0F0" stroke-width="2" stroke-linecap="round" stroke-linejoin="round"/>
<rect x="7" y="120" width="74.2644" height="71" rx="16" fill="url(#paint3_linear_312_903)"/>
<path d="M25.125 157.5C25.125 159.913 25.6003 162.302 26.5237 164.532C27.4471 166.761 28.8006 168.787 30.5069 170.493C32.2132 172.199 34.2388 173.553 36.4682 174.476C38.6976 175.4 41.087 175.875 43.5 175.875C45.913 175.875 48.3025 175.4 50.5318 174.476C52.7612 173.553 54.7868 172.199 56.4931 170.493C58.1994 168.787 59.5529 166.761 60.4763 164.532C61.3997 162.302 61.875 159.913 61.875 157.5C61.875 155.087 61.3997 152.698 60.4763 150.468C59.5529 148.239 58.1994 146.213 56.4931 144.507C54.7868 142.801 52.7612 141.447 50.5318 140.524C48.3025 139.6 45.913 139.125 43.5 139.125C41.087 139.125 38.6976 139.6 36.4682 140.524C34.2388 141.447 32.2132 142.801 30.5069 144.507C28.8006 146.213 27.4471 148.239 26.5237 150.468C25.6003 152.698 25.125 155.087 25.125 157.5Z" stroke="white" stroke-width="2" stroke-linecap="round" stroke-linejoin="round"/>
<path d="M26.3501 151.375H60.6501" stroke="white" stroke-width="2" stroke-linecap="round" stroke-linejoin="round"/>
<path d="M26.3501 163.625H60.6501" stroke="white" stroke-width="2" stroke-linecap="round" stroke-linejoin="round"/>
<path d="M42.4793 139.125C39.0398 144.637 37.2163 151.003 37.2163 157.5C37.2163 163.997 39.0398 170.363 42.4793 175.875" stroke="white" stroke-width="2" stroke-linecap="round" stroke-linejoin="round"/>
<path d="M44.521 139.125C47.9605 144.637 49.784 151.003 49.784 157.5C49.784 163.997 47.9605 170.363 44.521 175.875" stroke="white" stroke-width="2" stroke-linecap="round" stroke-linejoin="round"/>
<rect x="54" y="56" width="74.2644" height="71" rx="16" fill="url(#paint4_linear_312_903)"/>
<path d="M78.375 76.5H85.875L89.625 85.875L84.9375 88.6875C86.9455 92.7591 90.2409 96.0545 94.3125 98.0625L97.125 93.375L106.5 97.125V104.625C106.5 105.62 106.105 106.573 105.402 107.277C104.698 107.98 103.745 108.375 102.75 108.375C95.4361 107.931 88.5378 104.825 83.3566 99.6434C78.1753 94.4622 75.0695 87.5639 74.625 80.25C74.625 79.2554 75.0201 78.3016 75.7233 77.5983C76.4266 76.8951 77.3804 76.5 78.375 76.5Z" stroke="white" stroke-width="2" stroke-linecap="round" stroke-linejoin="round"/>
<defs>
<linearGradient id="paint0_linear_312_903" x1="101" y1="27.6486" x2="193.655" y2="40.2409" gradientUnits="userSpaceOnUse">
<stop stop-color="#9F481B"/>
<stop offset="1" stop-color="#DE6526"/>
</linearGradient>
<linearGradient id="paint1_linear_312_903" x1="117" y1="140.033" x2="191.368" y2="148.605" gradientUnits="userSpaceOnUse">
<stop stop-color="#A16811"/>
<stop offset="1" stop-color="#EB9818"/>
</linearGradient>
<linearGradient id="paint2_linear_312_903" x1="3.27069e-07" y1="46.0333" x2="74.3675" y2="54.6049" gradientUnits="userSpaceOnUse">
<stop stop-color="#31663B" stop-opacity="0.68"/>
<stop offset="1" stop-color="#55B168" stop-opacity="0.59"/>
</linearGradient>
<linearGradient id="paint3_linear_312_903" x1="7" y1="146.033" x2="81.3675" y2="154.605" gradientUnits="userSpaceOnUse">
<stop stop-color="#A13217" stop-opacity="0.86"/>
<stop offset="1" stop-color="#D4411F" stop-opacity="0.75"/>
</linearGradient>
<linearGradient id="paint4_linear_312_903" x1="54" y1="82.0333" x2="128.368" y2="90.6049" gradientUnits="userSpaceOnUse">
<stop stop-color="#DBC74E" stop-opacity="0.86"/>
<stop offset="1" stop-color="#D6DD75" stop-opacity="0.67"/>
</linearGradient>
</defs>
</svg>
