<svg width="38" height="38" viewBox="0 0 38 38" fill="none" xmlns="http://www.w3.org/2000/svg">
<g clip-path="url(#clip0_327_16)">
<path d="M21.8168 11.3929C22.8837 11.1952 23.8728 10.6995 24.6698 9.96326C25.4667 9.22697 26.039 8.28014 26.3204 7.23224C26.6018 6.18435 26.5808 5.0782 26.2599 4.04173C25.939 3.00525 25.3312 2.08078 24.5069 1.37523C23.6826 0.66968 22.6755 0.211866 21.6019 0.0547337C20.5283 -0.102399 19.4322 0.0475685 18.4403 0.487293C17.4483 0.927017 16.6011 1.63854 15.9966 2.53957C15.3922 3.4406 15.0551 4.49433 15.0243 5.57892H17.8221C20.0285 5.57892 21.8168 7.36729 21.8168 9.57367V11.3929ZM11.6162 29.7707H17.8221C20.0285 29.7707 21.8168 27.9823 21.8168 25.7759V13.2525H28.4265C28.8666 13.2637 29.2843 13.4491 29.588 13.7679C29.8916 14.0867 30.0564 14.5129 30.0462 14.953V25.1513C30.1074 27.7919 29.1181 30.3489 27.2954 32.2606C25.4728 34.1723 22.9659 35.2824 20.3253 35.3472C16.4826 35.2522 13.2003 32.9959 11.6162 29.7659V29.7707ZM37.1166 7.51217C37.1166 8.03443 37.0137 8.55157 36.8139 9.03408C36.614 9.51658 36.3211 9.955 35.9518 10.3243C35.5825 10.6936 35.1441 10.9865 34.6616 11.1864C34.1791 11.3862 33.6619 11.4891 33.1396 11.4891C32.6174 11.4891 32.1002 11.3862 31.6177 11.1864C31.1352 10.9865 30.6968 10.6936 30.3275 10.3243C29.9582 9.955 29.6653 9.51658 29.4654 9.03408C29.2656 8.55157 29.1627 8.03443 29.1627 7.51217C29.1627 6.45742 29.5817 5.44587 30.3275 4.70005C31.0734 3.95423 32.0849 3.53523 33.1396 3.53523C34.1944 3.53523 35.2059 3.95423 35.9518 4.70005C36.6976 5.44587 37.1166 6.45742 37.1166 7.51217ZM31.8013 30.0462C31.7063 30.0462 31.6113 30.0462 31.5163 30.0414C32.1506 28.4817 32.4585 26.8085 32.4212 25.1252V14.9768C32.431 14.3836 32.3094 13.7955 32.065 13.2549H36.321C37.2472 13.2549 38.0001 14.0078 38.0001 14.934V23.8759C38.0001 25.5124 37.35 27.0818 36.1929 28.2389C35.0357 29.3961 33.4663 30.0462 31.8298 30.0462H31.799H31.8013Z" fill="white"/>
<path d="M1.61975 7.95403H17.822C18.7174 7.95403 19.4417 8.67841 19.4417 9.57379V25.776C19.4417 26.2056 19.2711 26.6176 18.9673 26.9214C18.6636 27.2251 18.2516 27.3958 17.822 27.3958H1.61975C1.40704 27.3958 1.19642 27.3539 0.999898 27.2725C0.803381 27.1911 0.624821 27.0718 0.474414 26.9214C0.324006 26.771 0.204696 26.5924 0.123296 26.3959C0.0418961 26.1994 0 25.9887 0 25.776L0 9.57141C0 8.67604 0.724375 7.95403 1.61975 7.95403ZM13.984 14.1195V12.4095H5.45775V14.1195H8.68062V22.9427H10.7469V14.1195H13.984Z" fill="white"/>
</g>
<defs>
<clipPath id="clip0_327_16">
<rect width="38" height="38" fill="white"/>
</clipPath>
</defs>
</svg>
