<svg width="131" height="134" viewBox="0 0 131 134" fill="none" xmlns="http://www.w3.org/2000/svg">
<path d="M30.8536 122.431C36.7001 118.529 38.1164 111.144 38.0041 104.485C37.981 103.373 38.123 102.204 37.6014 101.224C37.0798 100.243 35.8451 99.5567 34.8283 100.009C33.9865 100.385 33.6068 101.329 33.1282 102.125C32.4838 103.177 31.5559 104.026 30.4508 104.575C29.7279 104.931 28.8365 105.142 28.14 104.746C27.176 104.202 27.0802 102.878 27.1067 101.775C27.1485 99.7196 27.1925 97.6607 27.2387 95.5985C27.2651 94.4959 27.2849 93.3668 26.9548 92.3137C26.6247 91.2606 25.8687 90.2735 24.8057 89.9632C23.7427 89.6529 22.4189 90.2405 22.1647 91.3167C22.1172 91.774 22.0996 92.2338 22.1119 92.6934C22.0755 93.1522 21.8511 93.654 21.4054 93.7762C20.9597 93.8983 20.514 93.5781 20.1839 93.2513C19.0483 92.1189 18.2857 90.6697 17.5759 89.2303C16.8661 87.791 16.1762 86.3153 15.1462 85.084C14.1162 83.8526 12.6802 82.8655 11.079 82.7533C9.47793 82.641 7.76457 83.5852 7.33541 85.1335C6.90625 86.6818 7.80089 88.2796 8.78466 89.5572C10.2446 91.4521 11.9703 93.1265 13.9082 94.5289C14.2865 94.741 14.5872 95.0683 14.7665 95.4631C14.9976 96.2026 14.278 96.9256 13.5385 97.1567C12.7 97.4175 11.7954 97.3184 10.9206 97.4076C10.0457 97.4967 9.09498 97.8631 8.75165 98.672C8.27627 99.7944 9.21383 100.983 10.1448 101.782C12.0092 103.365 14.1306 104.618 16.4172 105.486C17.2359 105.793 18.0975 106.067 18.7545 106.648C19.4114 107.229 19.7944 108.229 19.3817 109.002C18.9691 109.774 17.9358 110.008 17.0708 109.837C16.2059 109.665 15.4466 109.193 14.6279 108.873C13.0994 108.279 11.1121 108.355 10.1052 109.652C9.44492 110.504 9.36899 111.705 9.6793 112.739C10.0396 113.758 10.6009 114.694 11.3299 115.492C13.7324 118.427 16.8693 120.675 20.4216 122.005C23.9705 123.28 27.2717 123.656 30.8371 122.431" fill="#EBEBEB"/>
<path d="M30.0451 125.009C29.8404 122.368 30.1111 121.606 29.1636 118.238C28.0975 114.596 26.8222 111.018 25.3441 107.523L24.1985 104.763C23.8189 103.858 23.4459 102.963 23.0233 102.122C22.2101 100.481 21.3064 98.8878 20.3163 97.348C19.3787 95.8691 18.4378 94.4991 17.5465 93.2248C16.6552 91.9505 15.7968 90.7818 14.9715 89.7485C13.6731 88.1098 12.2481 86.5755 10.7096 85.1598C10.1682 84.658 9.71921 84.285 9.4353 84.0308L9.10517 83.7501C9.06787 83.7165 9.02815 83.6856 8.98633 83.6577C9.02085 83.6937 9.05721 83.7278 9.09527 83.7601L9.4254 84.0572C9.71591 84.318 10.1451 84.7009 10.6799 85.2093C12.1981 86.642 13.6062 88.1869 14.8923 89.8311C15.7077 90.8677 16.5429 92.0396 17.4442 93.3139C18.3454 94.5882 19.2665 95.9549 20.1974 97.4405C21.1819 98.9773 22.0801 100.568 22.8879 102.204C23.3072 103.053 23.6802 103.944 24.0566 104.845C24.4329 105.746 24.8159 106.671 25.2021 107.602C26.6786 111.091 27.956 114.661 29.0283 118.295C29.979 121.655 29.7215 122.405 29.9394 125.036" fill="#E0E0E0"/>
<path d="M22.9805 102.092C23.0319 101.939 23.0684 101.78 23.0894 101.62C23.1521 101.316 23.2281 100.871 23.3139 100.323C23.4856 99.2233 23.6704 97.7014 23.8751 96.031C24.0798 94.3605 24.2911 92.8287 24.4858 91.7393C24.5816 91.1913 24.6641 90.749 24.7268 90.4485C24.7676 90.2918 24.793 90.1315 24.8028 89.9698C24.7436 90.1197 24.6972 90.2743 24.6641 90.432C24.5816 90.7324 24.4825 91.1715 24.3703 91.7162C24.1425 92.8056 23.9114 94.3242 23.71 96.0079C23.5087 97.6915 23.3304 99.1837 23.195 100.299C23.1257 100.828 23.0696 101.263 23.0267 101.62C22.9987 101.776 22.9833 101.934 22.9805 102.092Z" fill="#E0E0E0"/>
<path d="M8.62939 99.2231C8.67742 99.2389 8.72743 99.2478 8.77795 99.2495L9.20382 99.2924C9.57356 99.3254 10.1051 99.3783 10.7653 99.4608C12.0858 99.616 13.8916 99.8999 15.8757 100.299C17.8597 100.699 19.6391 101.144 20.9134 101.501C21.5538 101.676 22.0688 101.831 22.4221 101.94L22.8512 102.072C22.8982 102.089 22.947 102.1 22.9965 102.105C22.9965 102.105 22.9536 102.079 22.8611 102.042L22.4617 101.891C22.1117 101.765 21.6 101.593 20.9629 101.402C19.6919 101.012 17.9125 100.554 15.9252 100.147C13.9378 99.7414 12.1188 99.4872 10.795 99.3552C10.1348 99.2891 9.59667 99.2561 9.22362 99.2396H8.79446C8.74116 99.2228 8.68497 99.2172 8.62939 99.2231Z" fill="#E0E0E0"/>
<path d="M29.0049 117.968C29.0455 117.915 29.0788 117.858 29.1039 117.796L29.3548 117.284C29.5727 116.839 29.8698 116.188 30.2263 115.38C30.9427 113.759 31.877 111.494 32.8475 108.982C33.8181 106.469 34.7326 104.202 35.4225 102.571C35.7527 101.775 36.0399 101.121 36.2445 100.646C36.3337 100.431 36.4096 100.26 36.4657 100.121C36.4966 100.062 36.5188 99.9985 36.5318 99.933C36.4963 99.9893 36.4644 100.048 36.436 100.108L36.1851 100.62C35.9672 101.065 35.6701 101.716 35.3136 102.524C34.5972 104.142 33.663 106.407 32.6924 108.922C31.7218 111.438 30.8041 113.703 30.1174 115.33L29.2954 117.258C29.203 117.473 29.1303 117.644 29.0742 117.783C29.0464 117.843 29.0232 117.904 29.0049 117.968Z" fill="#E0E0E0"/>
<path d="M9.97656 111.603C10.0371 111.633 10.1 111.659 10.1647 111.679L10.7193 111.867L12.7595 112.547C14.4795 113.122 16.8498 113.947 19.4611 114.858C22.0724 115.769 24.4526 116.581 26.1858 117.129C27.054 117.403 27.7539 117.618 28.2424 117.76L28.7937 117.918C28.858 117.94 28.9244 117.954 28.9918 117.961C28.9313 117.931 28.8684 117.905 28.8037 117.885L28.249 117.697L26.2089 117.017C24.4889 116.443 22.1186 115.617 19.504 114.706C16.8894 113.795 14.5125 112.98 12.7826 112.435C11.9144 112.161 11.2145 111.943 10.7259 111.804L10.1746 111.646C10.1104 111.624 10.044 111.61 9.97656 111.603Z" fill="#E0E0E0"/>
<path d="M118.05 84.4739L88.6354 98.4912C87.4849 99.0394 86.9967 100.417 87.545 101.567L95.863 119.022C96.4113 120.172 97.7884 120.661 98.9388 120.112L128.353 106.095C129.504 105.547 129.992 104.17 129.444 103.019L121.125 85.5643C120.577 84.4138 119.2 83.9256 118.05 84.4739Z" fill="#EBEBEB"/>
<path d="M121.898 88.0669L88.3174 104.07L90.3042 108.239L123.885 92.2361L121.898 88.0669Z" fill="#E0E0E0"/>
<path d="M106.067 102.571L92.7124 108.935L93.3969 110.372L106.751 104.008L106.067 102.571Z" fill="#E0E0E0"/>
<path d="M119.929 99.485L106.575 105.849L107.26 107.285L120.614 100.921L119.929 99.485Z" fill="#E0E0E0"/>
<path d="M110.085 110.623L96.7305 116.987L97.415 118.423L110.769 112.059L110.085 110.623Z" fill="#E0E0E0"/>
<path d="M110.367 100.52L107.053 102.099L107.737 103.536L111.051 101.956L110.367 100.52Z" fill="#E0E0E0"/>
<path d="M122.967 94.5136L111.291 100.078L111.976 101.514L123.652 95.95L122.967 94.5136Z" fill="#E0E0E0"/>
<path d="M105.738 106.32L94.0615 111.885L94.7461 113.321L106.422 107.757L105.738 106.32Z" fill="#E0E0E0"/>
<path d="M7.54695 89.6199C6.1809 89.6193 4.84059 89.2482 3.66885 88.5459C2.49711 87.8437 1.53785 86.8367 0.893291 85.6323C0.248731 84.4279 -0.0569782 83.0711 0.00874469 81.7066C0.0744676 80.3422 0.509161 79.0211 1.2665 77.8842C2.02383 76.7473 3.07543 75.8372 4.30924 75.2508C5.54305 74.6644 6.91283 74.4238 8.27261 74.5546C9.63239 74.6853 10.9312 75.1825 12.0307 75.9933C13.1302 76.804 13.9891 77.8978 14.5159 79.1582C14.5423 79.2308 15.2059 80.921 15.0936 82.1491C15.0745 84.1377 14.2708 86.0383 12.8575 87.4374C11.4442 88.8365 9.53563 89.6208 7.54695 89.6199ZM7.54695 74.85C6.12117 74.8501 4.7273 75.2721 3.54093 76.0629C2.35456 76.8537 1.42876 77.978 0.880174 79.294C0.331584 80.61 0.184739 82.0589 0.458137 83.4582C0.731535 84.8576 1.41295 86.1447 2.41653 87.1574C3.42011 88.1702 4.70097 88.8633 6.09775 89.1494C7.49453 89.4355 8.94474 89.3019 10.2657 88.7653C11.5866 88.2287 12.7193 87.3132 13.5208 86.134C14.3224 84.9549 14.7571 83.5649 14.7701 82.1392C14.8758 80.9871 14.2188 79.31 14.2122 79.2935C13.6614 77.9798 12.7344 76.8582 11.5479 76.07C10.3613 75.2817 8.96819 74.8618 7.54365 74.8632L7.54695 74.85Z" fill="#263238"/>
<path d="M6.87691 84.6118L4.5 82.0534L5.26919 81.337L6.90992 83.1032L10.3564 79.7128L11.0959 80.4622L6.87691 84.6118Z" fill="#263238"/>
<path d="M20.3417 49.227L8.29344 59.1341C7.03868 60.1659 6.85791 62.0195 7.88969 63.2743L36.0154 97.4786C37.0472 98.7334 38.9008 98.9141 40.1556 97.8824L52.2039 87.9752C53.4586 86.9435 53.6394 85.0898 52.6076 83.8351L24.4819 49.6308C23.4501 48.376 21.5965 48.1952 20.3417 49.227Z" fill="white"/>
<path d="M24.4827 49.6384C24.4596 49.6175 24.4375 49.5955 24.4166 49.5724C24.3737 49.5328 24.3176 49.4635 24.2318 49.3842C23.7655 48.9439 23.1672 48.6694 22.5293 48.6031C21.8914 48.5369 21.2495 48.6826 20.7027 49.0178C20.3661 49.2522 20.0431 49.5057 19.7354 49.7771L8.32629 59.2055C7.86891 59.5909 7.54278 60.1091 7.39312 60.6882C7.24347 61.2673 7.2777 61.8786 7.49107 62.4374C7.64496 62.8239 7.86879 63.1786 8.15132 63.4839L11.5351 67.5907L18.9861 76.6526L36.0767 97.4275C36.2633 97.6479 36.4787 97.8422 36.7171 98.0052C36.9613 98.1598 37.2257 98.2798 37.5028 98.3617C38.0586 98.5195 38.6493 98.5045 39.1964 98.3188C39.7343 98.1046 40.2237 97.7847 40.6357 97.378L41.986 96.2687L47.2812 91.9144L49.8661 89.7917C50.2919 89.4384 50.7178 89.0918 51.1403 88.7452L51.7709 88.2236C51.9832 88.059 52.187 87.8838 52.3816 87.6987C52.7456 87.3224 52.9996 86.8537 53.116 86.3433C53.2324 85.8329 53.2068 85.3003 53.0419 84.8035C52.962 84.5602 52.8511 84.3283 52.7117 84.1135C52.5665 83.9088 52.3816 83.7041 52.2265 83.5028L51.2361 82.2978L37.2982 65.3128L27.9127 53.8541L25.3674 50.7344L24.7071 49.919C24.5586 49.7342 24.4893 49.6384 24.4893 49.6384C24.4893 49.6384 24.5685 49.7276 24.7204 49.9091L25.3806 50.7113C25.9682 51.4244 26.8365 52.4676 27.949 53.8112L37.3774 65.2369L51.345 82.1955L52.3354 83.4004C52.5005 83.6051 52.6655 83.7999 52.8273 84.0244C52.9785 84.2497 53.0994 84.4939 53.1871 84.7506C53.3614 85.276 53.3889 85.839 53.2667 86.3789C53.1446 86.9188 52.8773 87.415 52.4939 87.8142C52.2965 88.0043 52.0893 88.1839 51.8732 88.3523L51.2427 88.8673L49.9684 89.9171L47.3868 92.0398L42.085 96.4008L40.7348 97.5133C40.5037 97.6949 40.2924 97.8864 40.0448 98.0646C39.8012 98.245 39.5304 98.3854 39.2426 98.4806C38.6627 98.6788 38.036 98.6949 37.4467 98.5268C37.1529 98.4417 36.8727 98.315 36.6148 98.1505C36.3606 97.9772 36.1308 97.7707 35.9314 97.5364L18.854 76.7385L11.4031 67.6633L8.03578 63.5664C7.74334 63.2506 7.51167 62.8835 7.35242 62.4836C7.20262 62.0878 7.13739 61.665 7.16095 61.2424C7.1838 60.8331 7.29055 60.4329 7.47455 60.0666C7.65854 59.7003 7.91587 59.3757 8.23055 59.113L19.6925 49.7243C20.0077 49.4522 20.3384 49.1987 20.6829 48.965C21.0868 48.7236 21.5422 48.5815 22.0116 48.5505C22.4811 48.5195 22.9513 48.6005 23.3833 48.7867C23.7058 48.9271 24.0001 49.1251 24.2516 49.371C24.3333 49.456 24.4105 49.5452 24.4827 49.6384Z" fill="#263238"/>
<path d="M8.3687 58.9874L19.5732 72.5622L40.3051 97.6749L39.3147 98.4639C38.8597 98.8262 38.2803 98.9947 37.702 98.9329C37.1237 98.8711 36.5929 98.584 36.2247 98.1338L7.20995 62.8334C7.01254 62.5925 6.86631 62.3139 6.78021 62.0146C6.69411 61.7152 6.66993 61.4015 6.70917 61.0925C6.74841 60.7836 6.85024 60.4858 7.00843 60.2175C7.16662 59.9493 7.37785 59.716 7.62921 59.5321L8.3687 58.9874Z" fill="#FF725E"/>
<path d="M33.5111 60.7207C33.5408 60.757 30.4211 63.4376 26.5389 66.7059C22.6566 69.9741 19.4874 72.5986 19.4544 72.5623C19.4213 72.526 22.5476 69.8454 26.4299 66.5738C30.3122 63.3023 33.4814 60.6844 33.5111 60.7207Z" fill="#263238"/>
<path d="M25.4805 64.7213C27.8386 62.1712 27.6829 58.1923 25.1328 55.8342C22.5828 53.4761 18.6039 53.6318 16.2458 56.1819C13.8877 58.7319 14.0433 62.7108 16.5934 65.0689C19.1435 67.427 23.1224 67.2714 25.4805 64.7213Z" fill="white"/>
<path d="M22.2143 54.2998C22.1803 54.3035 22.146 54.3035 22.112 54.2998L21.8149 54.2569C21.6555 54.2303 21.4945 54.2148 21.3329 54.2107C21.1131 54.1939 20.8924 54.1939 20.6727 54.2107C20.0696 54.231 19.473 54.3423 18.9032 54.5408C18.146 54.7979 17.4446 55.1967 16.8366 55.7161C16.0468 56.3919 15.4388 57.2547 15.0681 58.2257C14.6973 59.1968 14.5755 60.2452 14.7139 61.2754C14.7888 61.8695 14.9547 62.4485 15.2058 62.9921C15.4461 63.5644 15.7809 64.0922 16.1961 64.5536C17.0656 65.5466 18.2301 66.2352 19.5191 66.5186C20.8082 66.802 22.1542 66.6652 23.3599 66.1283C23.6469 66.0011 23.9248 65.8544 24.1918 65.6892C24.4501 65.5197 24.6961 65.3322 24.928 65.128C25.3831 64.7401 25.7761 64.2847 26.0933 63.7778C26.8652 62.5542 27.1885 61.1006 27.0079 59.6653C26.8272 58.2299 26.1539 56.9017 25.103 55.9076C24.6682 55.4892 24.173 55.1386 23.6339 54.8677C23.4387 54.7642 23.2369 54.6738 23.0298 54.597C22.8816 54.5341 22.7294 54.4812 22.5742 54.4385L22.287 54.3527C22.2536 54.3447 22.2215 54.3325 22.1912 54.3164C22.225 54.3184 22.2583 54.325 22.2903 54.3362L22.5841 54.4055C22.7429 54.4412 22.8986 54.4898 23.0496 54.5507C23.2604 54.621 23.4657 54.7071 23.6636 54.8082C24.2156 55.0718 24.7234 55.4192 25.169 55.8382C25.8295 56.4511 26.3518 57.1977 26.7013 58.0281C27.0508 58.8586 27.2194 59.754 27.1959 60.6548C27.1586 61.7927 26.8166 62.8997 26.2056 63.8603C25.8838 64.3833 25.4829 64.8533 25.0171 65.2534C24.7786 65.462 24.526 65.654 24.2611 65.8279C23.9876 65.9993 23.7018 66.1505 23.4061 66.2801C22.1684 66.8346 20.7854 66.977 19.4606 66.6864C18.1359 66.3958 16.9395 65.6875 16.0476 64.6658C15.6198 64.1889 15.272 63.646 15.0176 63.0581C14.7633 62.4993 14.5963 61.9047 14.5224 61.2952C14.3751 60.1674 14.5324 59.0207 14.978 57.9742C15.3336 57.1468 15.8614 56.4047 16.5263 55.7973C17.1911 55.19 17.9778 54.7312 18.8339 54.4517C19.4149 54.2558 20.0232 54.1533 20.6363 54.148C20.8567 54.1383 21.0775 54.146 21.2966 54.1711C21.4599 54.1779 21.6222 54.1989 21.7819 54.2338L22.0757 54.2899L22.2143 54.2998Z" fill="#263238"/>
<path d="M15.8561 59.8723C15.8561 59.8723 15.6382 60.6943 16.9653 60.8627L18.3419 61.0443L20.1312 65.3359L20.7915 65.3722L20.8311 61.3876L24.4625 61.4404L25.3637 62.0709L25.6179 59.8492L24.6605 60.3312L21.0292 59.6346L21.7059 55.8118L21.0721 55.6698L18.4311 59.4629L17.2294 59.2484C17.2294 59.2484 16.0773 58.8621 15.8561 59.8723Z" fill="#FF725E"/>
<path d="M38.3836 16.769L61.4594 70.0942C61.6129 70.4486 61.6951 70.8297 61.7012 71.2159C61.7073 71.6021 61.6372 71.9856 61.4949 72.3447C61.3527 72.7037 61.141 73.0312 60.8721 73.3084C60.6031 73.5855 60.2822 73.807 59.9276 73.96L40.1794 82.507C39.8251 82.6605 39.4439 82.7427 39.0578 82.7488C38.6716 82.7549 38.288 82.6848 37.929 82.5425C37.5699 82.4003 37.2425 82.1886 36.9653 81.9197C36.6881 81.6507 36.4667 81.3298 36.3137 80.9752L13.2412 27.6532C12.932 26.9374 12.9196 26.1281 13.2069 25.4033C13.4941 24.6784 14.0574 24.0972 14.7729 23.7874L34.5211 15.2405C35.2361 14.9321 36.0442 14.9198 36.7682 15.2064C37.4923 15.4929 38.0732 16.0548 38.3836 16.769Z" fill="#455A64"/>
<path d="M49.6708 43.3352L24.6675 54.5511L24.8026 54.8524L49.806 43.6364L49.6708 43.3352Z" fill="#E0E0E0"/>
<path d="M110.447 80.5338L80.3353 70.8543C78.3409 70.2132 76.2044 71.3103 75.5633 73.3046L61.2679 117.776C60.6268 119.771 61.7239 121.907 63.7183 122.548L93.8301 132.228C95.8245 132.869 97.961 131.772 98.6021 129.777L112.898 85.3057C113.539 83.3113 112.442 81.1749 110.447 80.5338Z" fill="#263238"/>
<path d="M87.5889 113.188C86.8133 113.185 86.0396 113.11 85.278 112.963C78.8637 111.719 74.6315 105.638 75.8397 99.4115C76.1274 97.9188 76.7144 96.4998 77.5655 95.2402C78.4166 93.9806 79.514 92.9065 80.7916 92.0827C83.4141 90.3888 86.5901 89.7748 89.655 90.3692C92.7198 90.9636 95.4361 92.7203 97.2352 95.2717C98.112 96.5137 98.7287 97.9201 99.0481 99.4065C99.3675 100.893 99.383 102.428 99.0938 103.921C98.0275 109.391 93.1152 113.188 87.5889 113.188ZM87.305 90.475C85.0537 90.4724 82.8506 91.1275 80.9666 92.36C79.7256 93.1594 78.6593 94.202 77.8321 95.4246C77.0049 96.6473 76.4338 98.0249 76.1534 99.4742C74.9781 105.522 79.0948 111.428 85.3309 112.636C86.0747 112.783 86.8309 112.857 87.5889 112.858C92.9601 112.858 97.7337 109.173 98.7637 103.858C99.0435 102.411 99.0278 100.921 98.7175 99.4796C98.4072 98.0381 97.8087 96.6741 96.9579 95.4698C95.2184 92.9787 92.5719 91.2686 89.5862 90.706C88.835 90.5559 88.0711 90.4785 87.305 90.475Z" fill="#FF725E"/>
<path d="M88.4144 110.748C87.0558 110.743 85.7081 110.505 84.4298 110.045C75.8168 107.021 76.1272 97.9589 76.1305 97.8698V97.8169L76.1635 97.7773C76.2163 97.708 81.5379 90.7919 89.9726 93.8158C98.4074 96.8398 98.7474 105.106 98.7507 105.189V105.245L98.7177 105.291C98.6748 105.374 94.7364 110.748 88.4144 110.748ZM76.4573 97.9358C76.4573 98.6654 76.4969 106.912 84.5388 109.734C92.5806 112.557 97.9452 105.773 98.4041 105.149C98.3611 104.426 97.6976 96.9487 89.8472 94.1294C81.9968 91.3102 76.9063 97.3746 76.4573 97.9358Z" fill="#FF725E"/>
<path d="M91.4545 107.47C89.5623 107.442 87.6901 107.079 85.9249 106.397C76.7177 103.01 76.2489 98.4508 76.2324 98.2593V98.1636L76.3116 98.1108C76.3579 98.0777 81.148 94.8359 88.7871 97.5363C96.4262 100.237 98.2089 104.588 98.2815 104.773L98.3179 104.865L98.2518 104.941C98.2188 104.974 96.0235 107.47 91.4545 107.47ZM76.5757 98.3286C76.7012 98.9889 77.7774 103.049 86.0372 106.087C93.5706 108.856 97.377 105.367 97.9217 104.802C97.6147 104.142 95.5316 100.28 88.6782 97.8467C81.7422 95.3971 77.2393 97.916 76.5757 98.3286Z" fill="#FF725E"/>
<path d="M76.4483 98.0884L76.3462 98.4023L98.0747 105.467L98.1768 105.153L76.4483 98.0884Z" fill="#FF725E"/>
<path d="M84.7498 112.669C84.4862 112.673 84.2226 112.66 83.9608 112.63L83.8981 112.61C83.8222 112.564 76.3415 107.988 79.4579 99.5731C81.2604 94.7005 84.2777 92.5448 86.4929 91.5973C87.8866 90.975 89.4004 90.6673 90.9265 90.6961H90.976L91.0156 90.7258C91.0915 90.7819 98.4302 96.5459 95.1026 105.047C93.3661 109.484 90.4313 111.319 88.2755 112.062C87.1416 112.457 85.9504 112.662 84.7498 112.669ZM84.04 112.306C84.5913 112.362 91.6758 112.9 94.7955 104.928C97.9152 96.9552 91.4282 91.4884 90.8538 91.0229C90.1936 90.9965 82.9902 90.9734 79.7649 99.6887C76.8433 107.589 83.5349 111.976 84.04 112.306Z" fill="#FF725E"/>
<path d="M83.9245 112.636L83.875 112.583C83.8354 112.544 79.9795 108.358 82.7559 100.729C85.9614 91.9142 90.6789 90.7489 90.8902 90.7027L90.9892 90.6796L91.0552 90.7588C91.0883 90.8017 94.5645 95.2089 91.7155 103.228C88.4142 112.471 84.1853 112.633 84.0037 112.636H83.9245ZM90.8572 91.0526C90.1573 91.2771 85.9449 92.9145 83.0629 100.841C81.6467 104.733 82.0098 107.665 82.5677 109.424C82.8747 110.466 83.3815 111.438 84.0599 112.286C84.6244 112.217 88.4109 111.458 91.3887 103.102C92.8511 99.0086 92.6101 95.922 92.1513 94.0568C91.9081 92.9833 91.4695 91.9639 90.8572 91.0493V91.0526Z" fill="#FF725E"/>
<path d="M90.7436 90.7931L83.8291 112.407L84.1435 112.507L91.058 90.8937L90.7436 90.7931Z" fill="#FF725E"/>
<path d="M86.0962 118.914L79.4521 116.778L79.1531 117.709L85.7971 119.844L86.0962 118.914Z" fill="white"/>
<path d="M65.0248 122.973C64.9786 122.956 68.8015 111.418 73.5619 97.1997C78.3223 82.9811 82.2211 71.4498 82.2673 71.4795C82.3135 71.5093 78.4874 83.034 73.7269 97.2525C68.9665 111.471 65.0677 122.986 65.0248 122.973Z" fill="#263238"/>
<path d="M103.04 86.7593L82.728 80.2299L82.1865 81.9144L102.499 88.4439L103.04 86.7593Z" fill="white"/>
<path d="M59.2412 45.1849C59.2412 45.1849 59.7529 48.3971 59.9741 49.1002C60.1953 49.8034 61.2682 52.6821 60.9348 54.4153C60.6014 56.1484 59.7001 57.0959 57.9901 56.9176L57.9504 55.9272C57.9504 55.9272 59.7529 55.9272 59.8256 54.4879C59.8982 53.0485 59.4954 50.7212 58.647 49.909C58.4016 49.6612 58.0712 49.5161 57.7227 49.503V45.1849H59.2412Z" fill="#455A64"/>
<path d="M82.7859 5.42127C82.7859 5.42127 73.6646 4.98221 71.5617 5.03503C69.2322 5.03366 66.9089 5.27374 64.629 5.7514C61.988 6.34563 60.1756 7.09171 59.2314 8.00616L59.8917 5.84383C59.8917 5.84383 64.5597 0.198677 67.0719 0.0666269C69.5842 -0.0654236 74.1465 0.924955 76.9229 2.24876C79.6993 3.57257 82.7859 5.42127 82.7859 5.42127Z" fill="#FF725E"/>
<path opacity="0.3" d="M82.7859 5.42127C82.7859 5.42127 73.6646 4.98221 71.5617 5.03503C69.2322 5.03366 66.9089 5.27374 64.629 5.7514C61.988 6.34563 60.1756 7.09171 59.2314 8.00616L59.8917 5.84383C59.8917 5.84383 64.5597 0.198677 67.0719 0.0666269C69.5842 -0.0654236 74.1465 0.924955 76.9229 2.24876C79.6993 3.57257 82.7859 5.42127 82.7859 5.42127Z" fill="black"/>
<path d="M102.412 71.4332L95.4527 61.8596L85.8395 50.1863L77.0944 38.7243L66.7945 26.1102C66.7945 26.1102 62.3081 21.4389 59.4261 22.9971C58.9209 23.5569 58.6585 24.2942 58.6965 25.0472L59.0992 29.0583C59.0728 28.7776 62.3543 32.8382 62.3543 32.8382L73.5258 47.6708L85.2915 62.3218C85.2915 62.3218 95.73 74.6388 96.6907 75.781C97.6514 76.9232 99.1633 78.6663 100.722 77.7981C101.304 77.4781 101.753 76.9608 101.988 76.3392C102.222 75.7177 102.228 75.0328 102.002 74.4077C101.682 73.5395 102.412 71.4332 102.412 71.4332Z" fill="#FF725E"/>
<path opacity="0.3" d="M102.412 71.4332L95.4527 61.8596L85.8395 50.1863L77.0944 38.7243L66.7945 26.1102C66.7945 26.1102 62.3081 21.4389 59.4261 22.9971C58.9209 23.5569 58.6585 24.2942 58.6965 25.0472L59.0992 29.0583C59.0728 28.7776 62.3543 32.8382 62.3543 32.8382L73.5258 47.6708L85.2915 62.3218C85.2915 62.3218 95.73 74.6388 96.6907 75.781C97.6514 76.9232 99.1633 78.6663 100.722 77.7981C101.304 77.4781 101.753 76.9608 101.988 76.3392C102.222 75.7177 102.228 75.0328 102.002 74.4077C101.682 73.5395 102.412 71.4332 102.412 71.4332Z" fill="black"/>
<path d="M107.579 66.2767C107.523 65.8706 107.486 65.6164 107.486 65.6164L104.974 54.2832L100.62 34.2445C100.62 34.2445 97.883 22.1784 97.0246 19.9996C96.1663 17.8208 89.6892 10.0661 87.2265 8.17777C86.4408 7.58024 84.4963 6.27625 83.5093 5.71173C83.5093 5.71173 76.8407 1.66438 72.11 0.660801C67.3793 -0.342782 65.5966 -0.841273 61.5031 4.02479L60.9683 5.19013C60.9683 5.19013 65.6428 1.10977 66.3559 0.809357C67.069 0.508942 70.8093 0.733428 73.5791 1.59506C76.3488 2.45669 82.4132 5.72824 82.4364 5.74144C83.8955 6.64269 87.5203 8.96017 87.9429 9.90763C88.5521 11.1106 88.955 12.4073 89.1346 13.7437C89.577 16.4507 90.6037 20.0161 91.2309 22.6571C91.2309 22.6571 93.8026 34.4723 94.0733 35.4297C95.4664 40.3023 98.3947 58.0268 98.3947 58.0268C98.3947 58.0268 101.125 72.8396 101.217 73.6649C101.31 74.4902 101.944 76.9661 99.8637 78.0126L107.764 76.1805C107.764 76.1805 108.45 75.9989 108.497 74.4869C108.533 73.272 107.833 68.1089 107.579 66.2767Z" fill="#FF725E"/>
<path d="M29.9824 52.4279V125.019H84.9814V52.4279H29.9824ZM46.6208 58.0004H41.2595C41.113 58.0085 40.9663 57.9866 40.8285 57.9361C40.6906 57.8856 40.5645 57.8076 40.4579 57.7067C40.3513 57.6058 40.2664 57.4842 40.2083 57.3494C40.1503 57.2146 40.1203 57.0693 40.1203 56.9225C40.1203 56.7757 40.1503 56.6305 40.2083 56.4957C40.2664 56.3608 40.3513 56.2393 40.4579 56.1384C40.5645 56.0375 40.6906 55.9594 40.8285 55.9089C40.9663 55.8584 41.113 55.8365 41.2595 55.8447H46.6208C46.8963 55.8599 47.1556 55.9801 47.3452 56.1806C47.5349 56.3811 47.6406 56.6466 47.6406 56.9225C47.6406 57.1985 47.5349 57.464 47.3452 57.6645C47.1556 57.8649 46.8963 57.9851 46.6208 58.0004ZM57.921 58.0004C57.635 58.0004 57.3554 57.9156 57.1177 57.7567C56.8799 57.5978 56.6945 57.372 56.5851 57.1078C56.4757 56.8436 56.447 56.5528 56.5028 56.2723C56.5586 55.9919 56.6963 55.7342 56.8985 55.532C57.1008 55.3298 57.3584 55.1921 57.6389 55.1363C57.9194 55.0805 58.2101 55.1091 58.4743 55.2185C58.7385 55.328 58.9644 55.5133 59.1233 55.7511C59.2821 55.9889 59.3669 56.2685 59.3669 56.5544C59.3669 56.7449 59.3293 56.9334 59.2562 57.1093C59.1832 57.2852 59.0761 57.4449 58.9411 57.5792C58.8061 57.7136 58.646 57.8199 58.4698 57.8922C58.2936 57.9645 58.1048 58.0013 57.9144 58.0004H57.921ZM74.5428 58.0004H69.1783C68.9027 57.9851 68.6435 57.8649 68.4538 57.6645C68.2641 57.464 68.1584 57.1985 68.1584 56.9225C68.1584 56.6466 68.2641 56.3811 68.4538 56.1806C68.6435 55.9801 68.9027 55.8599 69.1783 55.8447H74.5362C74.8118 55.8599 75.071 55.9801 75.2607 56.1806C75.4504 56.3811 75.5561 56.6466 75.5561 56.9225C75.5561 57.1985 75.4504 57.464 75.2607 57.6645C75.071 57.8649 74.8118 57.9851 74.5362 58.0004H74.5428Z" fill="white"/>
<path d="M74.5362 58.0004C74.7601 57.9737 74.9736 57.8908 75.1569 57.7595C75.3158 57.6394 75.4364 57.4757 75.504 57.2882C75.5715 57.1008 75.583 56.8978 75.5372 56.7039C75.4914 56.5101 75.3901 56.3337 75.2458 56.1964C75.1015 56.0591 74.9203 55.9667 74.7244 55.9306C74.5045 55.917 74.284 55.917 74.0642 55.9306H72.5819H69.1783C69.0425 55.9303 68.9081 55.9579 68.7834 56.0117C68.6587 56.0656 68.5464 56.1445 68.4536 56.2436C68.3607 56.3426 68.2892 56.4598 68.2435 56.5877C68.1978 56.7155 68.1788 56.8515 68.1879 56.987C68.2024 57.2432 68.3158 57.4839 68.5043 57.6582C68.6927 57.8325 68.9415 57.9268 69.1981 57.9212L71.9744 57.941L73.8496 57.9674H74.358C74.4179 57.9639 74.478 57.9695 74.5362 57.9839C74.4776 57.9963 74.4178 58.0019 74.358 58.0004H73.8496L71.9744 58.0269L69.1981 58.0467C68.9077 58.0502 68.6265 57.9454 68.4091 57.7529C68.2939 57.6509 68.2002 57.5269 68.1334 57.3883C68.0666 57.2497 68.0281 57.0992 68.0201 56.9455C68.0121 56.7919 68.0348 56.6382 68.0869 56.4934C68.1389 56.3486 68.2193 56.2156 68.3233 56.1022C68.4318 55.9833 68.5638 55.8882 68.711 55.8228C68.8582 55.7575 69.0173 55.7234 69.1783 55.7226H72.5819H74.0642C74.2922 55.7154 74.5205 55.7231 74.7475 55.7457C74.9642 55.7897 75.1636 55.8951 75.3219 56.0494C75.4587 56.1791 75.5607 56.3411 75.6184 56.5205C75.6761 56.6999 75.6877 56.891 75.6521 57.0761C75.5992 57.3537 75.4406 57.5999 75.2097 57.7628C75.0672 57.864 74.9014 57.9276 74.7277 57.9476C74.6682 57.9782 74.603 57.9962 74.5362 58.0004Z" fill="#263238"/>
<path d="M57.9143 58.0004C57.9143 57.9839 58.043 57.9839 58.2444 57.9212C58.5489 57.8339 58.8159 57.6482 59.0037 57.393C59.1383 57.2071 59.2253 56.991 59.2569 56.7636C59.2886 56.5363 59.264 56.3046 59.1853 56.089C59.0879 55.827 58.9126 55.601 58.6831 55.4414C58.4535 55.2818 58.1806 55.1963 57.9011 55.1963C57.6215 55.1963 57.3486 55.2818 57.1191 55.4414C56.8895 55.601 56.7143 55.827 56.6169 56.089C56.5373 56.3045 56.5122 56.5363 56.5439 56.7638C56.5756 56.9913 56.663 57.2075 56.7984 57.393C56.9857 57.6472 57.2513 57.8328 57.5544 57.9212C57.7723 57.9839 57.9011 57.9839 57.9011 58.0004C57.9011 58.0169 57.8681 58.0004 57.8086 58.0004C57.7177 58.0025 57.6268 57.9936 57.5379 57.974C57.2066 57.9043 56.9107 57.7195 56.7027 57.4524C56.5452 57.2532 56.441 57.0171 56.4 56.7664C56.359 56.5157 56.3825 56.2588 56.4683 56.0197C56.5741 55.7244 56.7685 55.469 57.025 55.2885C57.2814 55.1079 57.5874 55.011 57.9011 55.011C58.2147 55.011 58.5207 55.1079 58.7772 55.2885C59.0336 55.469 59.228 55.7244 59.3338 56.0197C59.4187 56.2589 59.4417 56.5157 59.4007 56.7662C59.3598 57.0167 59.2561 57.2527 59.0994 57.4524C58.8908 57.7204 58.5935 57.9053 58.2609 57.974C58.1732 57.9935 58.0834 58.0024 57.9935 58.0004C57.9473 58.0103 57.9143 58.007 57.9143 58.0004Z" fill="#263238"/>
<path d="M46.6207 58.0004C46.8446 57.9737 47.0581 57.8908 47.2413 57.7595C47.3597 57.6685 47.4569 57.5531 47.5263 57.421C47.5958 57.289 47.6358 57.1434 47.6436 56.9944C47.6515 56.8454 47.627 56.6965 47.5718 56.5578C47.5166 56.4192 47.432 56.2942 47.3239 56.1914C47.182 56.0569 47.0043 55.9663 46.8122 55.9306C46.5923 55.917 46.3718 55.917 46.1519 55.9306H44.6664H41.2661C41.1303 55.9303 40.9958 55.9579 40.8712 56.0117C40.7465 56.0656 40.6342 56.1445 40.5413 56.2436C40.4485 56.3426 40.3769 56.4598 40.3312 56.5877C40.2855 56.7155 40.2666 56.8515 40.2757 56.987C40.2902 57.2427 40.4031 57.4828 40.5908 57.657C40.7786 57.8312 41.0265 57.9259 41.2826 57.9212L44.0622 57.941L45.934 57.9674H46.4424C46.5024 57.9635 46.5625 57.9691 46.6207 57.9839C46.5622 57.9966 46.5023 58.0022 46.4424 58.0004H45.934L44.0622 58.0269L41.2826 58.0467C40.9923 58.0498 40.7111 57.9451 40.4936 57.7529C40.3784 57.6509 40.2847 57.5269 40.2179 57.3883C40.1511 57.2497 40.1126 57.0992 40.1046 56.9455C40.0966 56.7919 40.1193 56.6382 40.1713 56.4934C40.2234 56.3486 40.3037 56.2156 40.4077 56.1022C40.5172 55.9835 40.6498 55.8886 40.7975 55.8233C40.9451 55.758 41.1046 55.7237 41.2661 55.7226H44.6664H46.1519C46.38 55.7154 46.6082 55.7231 46.8353 55.7457C47.0517 55.7904 47.2509 55.8958 47.4097 56.0494C47.5455 56.1798 47.6468 56.3418 47.7044 56.5211C47.762 56.7003 47.7742 56.891 47.7398 57.0761C47.6859 57.3541 47.5261 57.6003 47.2942 57.7628C47.1519 57.8646 46.986 57.9282 46.8122 57.9476C46.7526 57.978 46.6874 57.996 46.6207 58.0004Z" fill="#263238"/>
<path d="M29.9826 52.4279L84.9816 52.3552H85.0542V52.4279C85.0542 72.9584 85.0542 98.0051 85.0707 125.013V125.105H84.9816H29.9826H29.9033V125.029C29.9462 82.0072 29.9792 53.1178 29.9792 52.4378C29.9792 53.1178 30.0123 82.0072 30.0552 125.029L29.9792 124.95H84.9782L84.8924 125.036C84.8924 98.0282 84.8924 72.9815 84.9089 52.451L84.9782 52.5203L29.9826 52.4279Z" fill="#263238"/>
<path d="M76.9227 85.9158C76.6111 85.9164 76.3064 85.8246 76.047 85.652C75.7876 85.4794 75.5852 85.2336 75.4655 84.946C75.3459 84.6583 75.3142 84.3416 75.3746 84.0359C75.435 83.7302 75.5847 83.4493 75.8048 83.2287C76.0249 83.0082 76.3055 82.8579 76.611 82.7969C76.9166 82.7358 77.2333 82.7668 77.5213 82.8859C77.8092 83.005 78.0553 83.2068 78.2285 83.4659C78.4017 83.7249 78.4941 84.0295 78.4941 84.3411C78.4933 84.7579 78.3275 85.1574 78.0331 85.4524C77.7387 85.7474 77.3395 85.914 76.9227 85.9158ZM76.9227 83.0965C76.6764 83.0958 76.4355 83.1683 76.2304 83.3046C76.0253 83.441 75.8653 83.6351 75.7705 83.8625C75.6758 84.0898 75.6507 84.3402 75.6984 84.5818C75.746 84.8235 75.8643 85.0455 76.0382 85.2199C76.2121 85.3943 76.4339 85.5132 76.6754 85.5615C76.9169 85.6098 77.1673 85.5853 77.3949 85.4912C77.6226 85.3971 77.8171 85.2376 77.954 85.0328C78.0909 84.8281 78.164 84.5874 78.164 84.3411C78.164 84.0115 78.0333 83.6955 77.8006 83.4622C77.568 83.2289 77.2522 83.0974 76.9227 83.0965Z" fill="#FF725E"/>
<path d="M78.2041 91.4289C78.5925 91.4289 78.9073 91.1141 78.9073 90.7258C78.9073 90.3374 78.5925 90.0226 78.2041 90.0226C77.8158 90.0226 77.501 90.3374 77.501 90.7258C77.501 91.1141 77.8158 91.4289 78.2041 91.4289Z" fill="#FF725E"/>
<path d="M42.3292 69.0794L41.2827 68.0362L42.3292 66.9897L43.3757 68.0362L42.3292 69.0794ZM41.7515 68.0362L42.3292 68.614L42.9102 68.0362L42.3292 67.4552L41.7515 68.0362Z" fill="#FF725E"/>
<path d="M38.9058 107.209L40.1833 107.909L41.4576 108.612L40.2098 109.365L38.9652 110.117L38.9355 108.665L38.9058 107.209Z" fill="#FF725E"/>
<path d="M46.8583 90.2768L46.6569 90.0622C46.4415 89.8506 46.253 89.6134 46.0957 89.3557C46.3406 89.5395 46.5623 89.7523 46.7559 89.9896L46.9375 90.1976C47.2379 89.709 46.9573 88.9365 46.8285 88.8936C46.6998 88.8506 46.5909 89.019 46.5909 89.019C46.5909 89.019 46.4555 88.5965 46.297 88.5898C46.1386 88.5832 46.056 88.8341 46.056 88.8341C46.056 88.8341 45.6632 88.4545 45.4651 88.6889C45.2671 88.9233 45.6071 89.2369 45.6071 89.2369C45.6071 89.2369 45.3001 89.2369 45.343 89.4746C45.3859 89.7123 45.7457 89.8047 45.7457 89.8047C45.5246 89.8575 45.551 89.9797 45.551 89.9797C45.8778 90.5178 46.746 90.3263 46.8583 90.2768Z" fill="#E0E0E0"/>
<path d="M46.0957 89.3557C46.2531 89.6133 46.4416 89.8506 46.6569 90.0622L46.8583 90.2768C46.986 90.4372 47.1361 90.5784 47.304 90.696C47.1986 90.5139 47.0698 90.3463 46.921 90.1975L46.7394 89.9895C46.551 89.7533 46.3349 89.5405 46.0957 89.3557Z" fill="#263238"/>
<path d="M52.5433 90.7026C52.3188 90.7554 52.3486 90.8776 52.3486 90.8776C52.6787 91.4157 53.5601 91.2077 53.6691 91.1648L53.471 90.9469C53.2552 90.7348 53.0657 90.4976 52.9065 90.2404C53.1513 90.4243 53.373 90.6371 53.5667 90.8743L53.7516 91.0822C54.052 90.5937 53.7714 89.8212 53.6393 89.7782C53.5073 89.7353 53.4017 89.9037 53.4017 89.9037C53.4017 89.9037 53.2663 89.4844 53.1111 89.4745C52.956 89.4646 52.8702 89.7188 52.8702 89.7188C52.8702 89.7188 52.474 89.3425 52.2759 89.5736C52.0779 89.8047 52.4179 90.1249 52.4179 90.1249C52.4179 90.1249 52.1109 90.1249 52.1571 90.3593C52.2033 90.5937 52.5433 90.7026 52.5433 90.7026Z" fill="#E0E0E0"/>
<path d="M52.8931 90.2406C53.0523 90.4978 53.2418 90.735 53.4576 90.9471L53.6557 91.1649C53.7858 91.3221 53.9356 91.4619 54.1013 91.5809C53.9993 91.3974 53.8714 91.2295 53.7217 91.0824L53.5368 90.8744C53.3482 90.6383 53.1321 90.4255 52.8931 90.2406Z" fill="#263238"/>
<path d="M60.7965 90.9469C60.582 90.7337 60.3926 90.4967 60.232 90.2404C60.4763 90.4249 60.6979 90.6377 60.8922 90.8743L61.0738 91.0822C61.3742 90.5937 61.0936 89.8212 60.9616 89.7782C60.8295 89.7353 60.7239 89.9037 60.7239 89.9037C60.7239 89.9037 60.5918 89.4844 60.4334 89.4745C60.2749 89.4646 60.1924 89.7188 60.1924 89.7188C60.1924 89.7188 59.7995 89.3425 59.6015 89.5736C59.4034 89.8047 59.7434 90.1249 59.7434 90.1249C59.7434 90.1249 59.4331 90.1249 59.4793 90.3593C59.5255 90.5937 59.8821 90.6894 59.8821 90.6894C59.6576 90.7422 59.6873 90.8644 59.6873 90.8644C60.0174 91.4025 60.8988 91.1945 61.0078 91.1516L60.7965 90.9469Z" fill="#E0E0E0"/>
<path d="M60.2319 90.2406C60.3925 90.4969 60.5819 90.7339 60.7965 90.9471L60.9978 91.1649C61.1263 91.3225 61.2751 91.4623 61.4402 91.5809C61.3382 91.3974 61.2103 91.2295 61.0606 91.0824L60.879 90.8744C60.6888 90.6386 60.4716 90.4259 60.2319 90.2406Z" fill="#263238"/>
<path d="M62.7144 101.963L62.5163 101.749C62.3006 101.537 62.111 101.299 61.9518 101.042C62.19 101.228 62.406 101.441 62.5955 101.676L62.7771 101.884C63.0775 101.395 62.8002 100.623 62.6682 100.58C62.5361 100.537 62.4305 100.705 62.4305 100.705C62.4305 100.705 62.2951 100.286 62.14 100.276C61.9848 100.266 61.8957 100.521 61.8957 100.521C61.8957 100.521 61.5028 100.141 61.3047 100.375C61.1067 100.61 61.4467 100.927 61.4467 100.927C61.4467 100.927 61.1397 100.927 61.1859 101.161C61.2321 101.395 61.5886 101.491 61.5886 101.491C61.3642 101.544 61.3939 101.666 61.3939 101.666C61.7372 102.217 62.6021 102.016 62.7144 101.963Z" fill="#E0E0E0"/>
<path d="M61.9521 101.042C62.1114 101.299 62.3009 101.537 62.5167 101.749L62.7147 101.963C62.8424 102.124 62.9925 102.265 63.1604 102.383C63.055 102.2 62.9263 102.033 62.7775 101.884L62.5959 101.676C62.4063 101.441 62.1903 101.228 61.9521 101.042Z" fill="#263238"/>
<path d="M53.1739 108.899C53.0386 108.853 52.9362 109.028 52.9362 109.028C52.9362 109.028 52.8009 108.606 52.6457 108.596C52.4905 108.586 52.4047 108.84 52.4047 108.84C52.4047 108.84 52.0086 108.464 51.8105 108.695C51.6124 108.926 51.9524 109.246 51.9524 109.246C51.9524 109.246 51.7445 109.246 51.6982 109.385C52.0284 109.513 52.3849 109.632 52.7348 109.741C52.6228 109.63 52.5292 109.502 52.4575 109.362C52.6284 109.484 52.7816 109.63 52.9131 109.794L53.3918 109.926C53.4908 109.467 53.2828 108.936 53.1739 108.899Z" fill="#E0E0E0"/>
<path d="M52.4575 109.361C52.5292 109.502 52.6228 109.63 52.7348 109.741L52.9131 109.794C52.7816 109.63 52.6284 109.484 52.4575 109.361Z" fill="#263238"/>
<path d="M67.9306 94.5386C67.8976 94.6245 67.858 94.7136 67.8184 94.8093C67.7173 95.0947 67.5833 95.3672 67.4189 95.6214C67.483 95.325 67.5839 95.0378 67.7193 94.7664L67.825 94.5221C67.2572 94.4594 66.6794 95.0305 66.6959 95.1824C66.7124 95.3342 66.9105 95.3441 66.9105 95.3441C66.9105 95.3441 66.5804 95.6446 66.6464 95.7898C66.7125 95.9351 66.9766 95.9054 66.9766 95.9054C66.9766 95.9054 66.8016 96.4204 67.0954 96.5029C67.3892 96.5854 67.5345 96.1397 67.5345 96.1397C67.5345 96.1397 67.6698 96.4171 67.8646 96.2784C68.0594 96.1397 68.0065 95.7667 68.0065 95.7667C68.1485 95.9483 68.2475 95.869 68.2475 95.869C68.5744 95.3177 68.023 94.6179 67.9306 94.5386Z" fill="#E0E0E0"/>
<path d="M67.4189 95.6216C67.5833 95.3674 67.7174 95.0948 67.8184 94.8095C67.858 94.7137 67.8976 94.6246 67.9306 94.5388C68.0198 94.3547 68.0831 94.1592 68.1188 93.9578C67.9978 94.133 67.8991 94.3226 67.825 94.5223L67.7194 94.7666C67.5839 95.0379 67.483 95.3252 67.4189 95.6216Z" fill="#263238"/>
<path d="M47.611 93.5154C47.578 93.6012 47.5416 93.6904 47.4987 93.7861C47.3993 94.0721 47.2651 94.3449 47.0993 94.5982C47.1669 94.3028 47.2677 94.016 47.3997 93.7432C47.436 93.6574 47.4723 93.5748 47.5086 93.4989C46.9375 93.4329 46.3631 94.0073 46.3763 94.1592C46.3895 94.311 46.5942 94.3176 46.5942 94.3176C46.5942 94.3176 46.2641 94.6213 46.3268 94.7666C46.3895 94.9119 46.6569 94.8788 46.6569 94.8788C46.6569 94.8788 46.4819 95.3971 46.7757 95.4797C47.0696 95.5622 47.2148 95.1165 47.2148 95.1165C47.2148 95.1165 47.3502 95.3938 47.5449 95.2552C47.7397 95.1165 47.6836 94.7435 47.6836 94.7435C47.8255 94.9251 47.9246 94.8458 47.9246 94.8458C48.2514 94.2912 47.6968 93.5946 47.611 93.5154Z" fill="#E0E0E0"/>
<path d="M47.0928 94.5982C47.2586 94.3448 47.3928 94.0721 47.4922 93.786C47.5351 93.6903 47.5715 93.6012 47.6045 93.5153C47.6938 93.331 47.7582 93.1356 47.7959 92.9343C47.672 93.1078 47.5731 93.2978 47.5021 93.4988C47.4658 93.5748 47.4295 93.6573 47.3932 93.7431C47.2612 94.0159 47.1604 94.3028 47.0928 94.5982Z" fill="#263238"/>
<path d="M66.7949 89.9763C66.8412 90.2074 67.1977 90.3065 67.1977 90.3065C66.9732 90.3593 67.0029 90.4814 67.0029 90.4814C67.3331 91.0228 68.2145 90.8116 68.3234 90.7687C68.2574 90.6993 68.1914 90.63 68.1221 90.5508C67.9075 90.3376 67.7181 90.1006 67.5575 89.8443C67.8027 90.0277 68.0245 90.2406 68.2178 90.4781L68.3994 90.6861C68.6998 90.1975 68.4192 89.4283 68.2904 89.3821C68.1617 89.3359 68.0527 89.5109 68.0527 89.5109C68.0527 89.5109 67.9174 89.0883 67.7589 89.0784C67.6005 89.0685 67.5179 89.3227 67.5179 89.3227C67.5179 89.3227 67.1251 88.9464 66.927 89.1774C66.7289 89.4085 67.069 89.7287 67.069 89.7287C67.069 89.7287 66.7586 89.7453 66.7949 89.9763Z" fill="#E0E0E0"/>
<path d="M67.5605 89.8575C67.7211 90.1138 67.9105 90.3508 68.1251 90.564C68.1944 90.6432 68.2604 90.7126 68.3264 90.7819C68.4553 90.9412 68.6052 91.0823 68.7721 91.2012C68.6673 91.0177 68.5385 90.8489 68.3892 90.6994L68.2076 90.4914C68.0184 90.2547 67.8011 90.0418 67.5605 89.8575Z" fill="#263238"/>
<path d="M54.2735 102.28L54.0754 102.062C53.8609 101.849 53.6715 101.612 53.5109 101.356C53.7504 101.541 53.9666 101.755 54.1546 101.993C54.2206 102.062 54.2801 102.132 54.3395 102.198C54.6399 101.709 54.3593 100.94 54.2272 100.894C54.0952 100.847 53.9896 101.022 53.9896 101.022C53.9896 101.022 53.8575 100.6 53.699 100.593C53.5406 100.587 53.458 100.838 53.458 100.838C53.458 100.838 53.0652 100.458 52.8638 100.689C52.6624 100.92 53.0058 101.24 53.0058 101.24C53.0058 101.24 52.6988 101.24 52.745 101.478C52.7912 101.716 53.1477 101.808 53.1477 101.808C52.9232 101.861 52.953 101.983 52.953 101.983C53.2963 102.534 54.1645 102.33 54.2735 102.28Z" fill="#E0E0E0"/>
<path d="M53.5107 101.356C53.6713 101.612 53.8607 101.849 54.0753 102.062L54.2733 102.28C54.4041 102.438 54.5537 102.579 54.719 102.7C54.6176 102.515 54.4897 102.346 54.3394 102.198C54.2799 102.132 54.2205 102.062 54.1545 101.993C53.9665 101.755 53.7503 101.542 53.5107 101.356Z" fill="#263238"/>
<path d="M63.5827 108.893C63.4474 108.843 63.345 109.018 63.345 109.018C63.345 109.018 63.2097 108.596 63.0545 108.589C62.8993 108.582 62.8135 108.833 62.8135 108.833C62.8135 108.833 62.4174 108.454 62.2193 108.688C62.0212 108.922 62.3612 109.236 62.3612 109.236C62.3612 109.236 62.0542 109.236 62.1004 109.474C62.1305 109.578 62.2005 109.666 62.2952 109.718C62.5164 109.649 62.7343 109.573 62.9555 109.497C62.8927 109.414 62.8597 109.361 62.8696 109.355C62.8795 109.348 62.9357 109.391 63.0215 109.474C63.2702 109.384 63.5145 109.288 63.7544 109.187C63.6983 109.025 63.6322 108.909 63.5827 108.893Z" fill="#E0E0E0"/>
<path d="M62.9518 109.497L63.0179 109.474C62.932 109.391 62.8759 109.345 62.866 109.355C62.8561 109.365 62.8891 109.414 62.9518 109.497Z" fill="#263238"/>
<path d="M53.7842 96.0805C53.7842 95.9352 53.5729 95.9121 53.5729 95.9121C53.5729 95.9121 53.903 95.6216 53.8535 95.473C53.804 95.3245 53.5234 95.3476 53.5234 95.3476C53.5234 95.3476 53.7182 94.8359 53.4244 94.7468C53.1305 94.6576 52.9754 95.0934 52.9754 95.0934C52.9754 95.0934 52.8499 94.8128 52.6453 94.9415C52.4406 95.0703 52.4868 95.4499 52.4868 95.4499C52.3514 95.2618 52.2491 95.3377 52.2491 95.3377C51.8893 95.8659 52.4175 96.5823 52.5066 96.6582C52.5429 96.5757 52.5825 96.4865 52.6288 96.3908C52.7386 96.1096 52.8815 95.8425 53.0546 95.5952C52.9809 95.8887 52.87 96.1716 52.7245 96.437L52.6089 96.6813C53.1966 96.7704 53.7941 96.2158 53.7842 96.0805Z" fill="#E0E0E0"/>
<path d="M53.0747 95.6017C52.9016 95.849 52.7587 96.1161 52.6489 96.3973C52.6026 96.493 52.563 96.5822 52.5267 96.6647C52.4315 96.8461 52.3605 97.0392 52.3154 97.2391C52.4454 97.071 52.5509 96.8854 52.629 96.6878L52.7446 96.4435C52.8901 96.1781 53.001 95.8952 53.0747 95.6017Z" fill="#263238"/>
<path d="M59.4727 105.043C59.4198 104.898 59.1425 104.918 59.1425 104.918C59.1425 104.918 59.3373 104.406 59.0435 104.317C58.7497 104.228 58.5945 104.664 58.5945 104.664C58.5945 104.664 58.4691 104.383 58.2644 104.515C58.0597 104.647 58.1059 105.02 58.1059 105.02C57.9706 104.835 57.8682 104.908 57.8682 104.908C57.5084 105.436 58.0366 106.153 58.1257 106.229C58.1621 106.143 58.2017 106.054 58.2479 105.958C58.3565 105.675 58.5007 105.408 58.6771 105.162C58.6005 105.455 58.4897 105.737 58.3469 106.004C58.3073 106.09 58.271 106.169 58.2314 106.248C58.7992 106.331 59.3967 105.78 59.3868 105.641C59.3769 105.502 59.1755 105.473 59.1755 105.473C59.1755 105.473 59.5255 105.175 59.4727 105.043Z" fill="#E0E0E0"/>
<path d="M58.6972 105.156C58.5208 105.401 58.3766 105.669 58.268 105.951C58.2218 106.047 58.1822 106.136 58.1459 106.222C58.0505 106.402 57.9795 106.594 57.9346 106.793C58.0663 106.626 58.1721 106.44 58.2482 106.242C58.2878 106.163 58.3241 106.083 58.3637 105.997C58.5076 105.731 58.6196 105.448 58.6972 105.156Z" fill="#263238"/>
<path d="M53.0485 86.2262C53.0485 86.0809 52.8405 86.0545 52.8405 86.0545C52.8405 86.0545 53.1706 85.7673 53.1211 85.6188C53.0716 85.4702 52.791 85.4933 52.791 85.4933C52.791 85.4933 52.9857 84.9816 52.6919 84.8892C52.3981 84.7968 52.243 85.2193 52.243 85.2193C52.243 85.2193 52.1175 84.9387 51.9128 85.0708C51.7082 85.2028 51.7544 85.5759 51.7544 85.5759C51.619 85.391 51.5167 85.4669 51.5167 85.4669C51.1568 85.9951 51.6851 86.7115 51.7742 86.7874C51.8116 86.7016 51.8512 86.6125 51.893 86.52C52.0047 86.2391 52.1487 85.972 52.3222 85.7244C52.2479 86.0178 52.137 86.3006 51.9921 86.5662L51.8765 86.8072C52.4641 86.8865 53.0584 86.3484 53.0485 86.2262Z" fill="#E0E0E0"/>
<path d="M52.3418 85.7344C52.1683 85.982 52.0243 86.249 51.9126 86.53C51.8708 86.6224 51.8312 86.7115 51.7938 86.7974C51.6986 86.9788 51.6276 87.1719 51.5825 87.3718C51.7114 87.2018 51.8169 87.0153 51.8961 86.8172L52.0117 86.5762C52.1566 86.3105 52.2675 86.0277 52.3418 85.7344Z" fill="#263238"/>
<path d="M60.3109 95.5292C60.2581 95.384 59.9808 95.4038 59.9808 95.4038C59.9808 95.4038 60.1722 94.8921 59.8817 94.803C59.5912 94.7138 59.4294 95.1331 59.4294 95.1331C59.4294 95.1331 59.3073 94.8525 59.0993 94.9845C58.8913 95.1166 58.9409 95.4896 58.9409 95.4896C58.8055 95.3014 58.7032 95.3774 58.7032 95.3774C58.34 95.9056 58.8682 96.622 58.9574 96.6979C58.997 96.6154 59.0366 96.5262 59.0795 96.4305C59.1912 96.1495 59.3352 95.8825 59.5087 95.6349C59.4314 95.9272 59.3206 96.2097 59.1785 96.4767L59.063 96.721C59.6275 96.8035 60.225 96.2489 60.2151 96.1136C60.2052 95.9782 60.0039 95.9452 60.0039 95.9452C60.0039 95.9452 60.367 95.6778 60.3109 95.5292Z" fill="#E0E0E0"/>
<path d="M59.5357 95.658C59.3622 95.9056 59.2182 96.1726 59.1065 96.4536C59.0636 96.5493 59.024 96.6384 58.9843 96.721C58.8875 96.9013 58.8174 97.0948 58.7764 97.2954C58.9092 97.1263 59.0202 96.941 59.1065 96.7441L59.222 96.4998C59.3584 96.2321 59.4636 95.9496 59.5357 95.658Z" fill="#263238"/>
<path d="M60.2813 86.5564L60.4035 86.289C60.5136 86.0073 60.6577 85.7401 60.8326 85.4934C60.7561 85.786 60.6453 86.0686 60.5025 86.3352C60.4629 86.421 60.4266 86.5003 60.387 86.5762C60.9548 86.662 61.5523 86.1074 61.5424 85.9721C61.5325 85.8367 61.3311 85.8004 61.3311 85.8004C61.3311 85.8004 61.6613 85.5132 61.6117 85.3646C61.5622 85.2161 61.2816 85.2392 61.2816 85.2392C61.2816 85.2392 61.4764 84.7275 61.1859 84.6384C60.8954 84.5492 60.7336 84.985 60.7336 84.985C60.7336 84.985 60.6081 84.7011 60.4035 84.8331C60.1988 84.9652 60.2483 85.3382 60.2483 85.3382C60.1097 85.1534 60.0106 85.2293 60.0106 85.2293C59.664 85.7542 60.1922 86.4706 60.2813 86.5564Z" fill="#E0E0E0"/>
<path d="M60.833 85.4901C60.6581 85.7368 60.514 86.004 60.4039 86.2857L60.2817 86.5531C60.1848 86.7335 60.1148 86.927 60.0737 87.1275C60.2008 86.9569 60.3051 86.7705 60.384 86.5729C60.4237 86.497 60.46 86.4178 60.4996 86.3319C60.6435 86.0654 60.7554 85.7829 60.833 85.4901Z" fill="#263238"/>
<path d="M55.9042 87.0845V87.1109C55.9 87.1279 55.8998 87.1457 55.9035 87.1628C55.9072 87.1799 55.9147 87.1959 55.9255 87.2097C55.9364 87.2235 55.9502 87.2346 55.9659 87.2423C55.9816 87.2499 55.9989 87.2539 56.0164 87.2539C56.0339 87.2539 56.0512 87.2499 56.067 87.2423C56.0827 87.2346 56.0965 87.2235 56.1073 87.2097C56.1181 87.1959 56.1257 87.1799 56.1294 87.1628C56.1331 87.1457 56.1328 87.1279 56.1287 87.1109V87.0845C56.1287 87.0548 56.1168 87.0262 56.0958 87.0052C56.0747 86.9841 56.0462 86.9723 56.0164 86.9723C55.9867 86.9723 55.9581 86.9841 55.9371 87.0052C55.916 87.0262 55.9042 87.0548 55.9042 87.0845Z" fill="#263238"/>
<path d="M49.3116 87.3024C49.3405 87.3024 49.3682 87.2909 49.3886 87.2704C49.409 87.25 49.4205 87.2223 49.4205 87.1934C49.4205 87.1645 49.409 87.1368 49.3886 87.1164C49.3682 87.0959 49.3405 87.0845 49.3116 87.0845C49.2827 87.0845 49.255 87.0959 49.2345 87.1164C49.2141 87.1368 49.2026 87.1645 49.2026 87.1934C49.2026 87.2223 49.2141 87.25 49.2345 87.2704C49.255 87.2909 49.2827 87.3024 49.3116 87.3024Z" fill="#263238"/>
<path d="M49.6383 90.3725V90.3494C49.6283 90.333 49.6142 90.3195 49.5975 90.3101C49.5807 90.3007 49.5618 90.2958 49.5426 90.2958C49.5234 90.2958 49.5045 90.3007 49.4877 90.3101C49.4709 90.3195 49.4569 90.333 49.4468 90.3494V90.3725C49.3214 90.6003 49.744 90.6003 49.6383 90.3725Z" fill="#263238"/>
<path d="M44.8641 91.8384C44.838 91.8429 44.8144 91.8565 44.7974 91.8767C44.7803 91.8969 44.771 91.9225 44.771 91.949C44.771 91.9754 44.7803 92.001 44.7974 92.0212C44.8144 92.0415 44.838 92.055 44.8641 92.0596C44.8901 92.055 44.9137 92.0415 44.9308 92.0212C44.9478 92.001 44.9571 91.9754 44.9571 91.949C44.9571 91.9225 44.9478 91.8969 44.9308 91.8767C44.9137 91.8565 44.8901 91.8429 44.8641 91.8384Z" fill="#263238"/>
<path d="M57.5148 91.4751V91.419C57.51 91.3905 57.4953 91.3646 57.4732 91.3459C57.4512 91.3272 57.4232 91.3169 57.3943 91.3169C57.3653 91.3169 57.3373 91.3272 57.3153 91.3459C57.2932 91.3646 57.2785 91.3905 57.2738 91.419V91.4751C57.2441 91.6369 57.5148 91.6369 57.5148 91.4751Z" fill="#263238"/>
<path d="M50.1562 97.5197L50.1397 97.5693C50.0769 97.7442 50.4137 97.7475 50.3509 97.5693L50.3344 97.5197C50.3291 97.5002 50.3174 97.483 50.3013 97.4707C50.2852 97.4584 50.2656 97.4518 50.2453 97.4518C50.2251 97.4518 50.2054 97.4584 50.1893 97.4707C50.1732 97.483 50.1615 97.5002 50.1562 97.5197Z" fill="#263238"/>
<path d="M53.5832 93.1258L53.6129 93.1787C53.6855 93.3008 53.8506 93.1787 53.7978 93.0697L53.7746 93.0103C53.7185 92.8848 53.5072 92.9971 53.5832 93.1258Z" fill="#263238"/>
<path d="M56.7826 96.6285C56.8167 96.6285 56.8495 96.6149 56.8736 96.5908C56.8977 96.5666 56.9113 96.5339 56.9113 96.4997C56.9113 96.4656 56.8977 96.4328 56.8736 96.4087C56.8495 96.3845 56.8167 96.371 56.7826 96.371C56.7484 96.371 56.7157 96.3845 56.6915 96.4087C56.6674 96.4328 56.6538 96.4656 56.6538 96.4997C56.6538 96.5339 56.6674 96.5666 56.6915 96.5908C56.7157 96.6149 56.7484 96.6285 56.7826 96.6285Z" fill="#263238"/>
<path d="M61.8067 93.215C61.8353 93.2103 61.8612 93.1955 61.8799 93.1735C61.8986 93.1514 61.9089 93.1234 61.9089 93.0945C61.9089 93.0656 61.8986 93.0376 61.8799 93.0155C61.8612 92.9935 61.8353 92.9787 61.8067 92.974C61.7782 92.9787 61.7523 92.9935 61.7336 93.0155C61.7149 93.0376 61.7046 93.0656 61.7046 93.0945C61.7046 93.1234 61.7149 93.1514 61.7336 93.1735C61.7523 93.1955 61.7782 93.2103 61.8067 93.215Z" fill="#263238"/>
<path d="M63.1767 97.041H63.2064C63.3253 97.041 63.3715 96.8891 63.2989 96.8165C63.2262 96.7439 63.0579 96.7901 63.0744 96.9089V96.9353C63.0744 96.9628 63.085 96.9892 63.1041 97.0089C63.1232 97.0286 63.1493 97.0401 63.1767 97.041Z" fill="#263238"/>
<path d="M66.0619 92.208C66.0407 92.2121 66.0217 92.2233 66.008 92.2399C65.9943 92.2565 65.9868 92.2773 65.9868 92.2988C65.9868 92.3203 65.9943 92.3411 66.008 92.3577C66.0217 92.3743 66.0407 92.3855 66.0619 92.3896H66.1147C66.2368 92.3896 66.2368 92.1915 66.1147 92.2014L66.0619 92.208Z" fill="#263238"/>
<path d="M63.6982 88.9399C63.7244 88.9399 63.7496 88.9295 63.7682 88.9109C63.7868 88.8923 63.7972 88.8671 63.7972 88.8409C63.7972 88.8146 63.7868 88.7894 63.7682 88.7708C63.7496 88.7523 63.7244 88.7418 63.6982 88.7418C63.6719 88.7418 63.6467 88.7523 63.6281 88.7708C63.6096 88.7894 63.5991 88.8146 63.5991 88.8409C63.5991 88.8671 63.6096 88.8923 63.6281 88.9109C63.6467 88.9295 63.6719 88.9399 63.6982 88.9399Z" fill="#263238"/>
<path d="M64.1933 85.9456C64.2195 85.9456 64.2447 85.9352 64.2633 85.9166C64.2819 85.8981 64.2923 85.8729 64.2923 85.8466C64.2923 85.8203 64.2819 85.7951 64.2633 85.7766C64.2447 85.758 64.2195 85.7476 64.1933 85.7476C64.167 85.7476 64.1418 85.758 64.1232 85.7766C64.1047 85.7951 64.0942 85.8203 64.0942 85.8466C64.0942 85.8729 64.1047 85.8981 64.1232 85.9166C64.1418 85.9352 64.167 85.9456 64.1933 85.9456Z" fill="#263238"/>
<path d="M70.6736 93.6277C70.6434 93.6326 70.616 93.648 70.5961 93.6713C70.5763 93.6946 70.5654 93.7242 70.5654 93.7548C70.5654 93.7854 70.5763 93.8149 70.5961 93.8382C70.616 93.8615 70.6434 93.877 70.6736 93.8819C70.7038 93.877 70.7313 93.8615 70.7511 93.8382C70.7709 93.8149 70.7818 93.7854 70.7818 93.7548C70.7818 93.7242 70.7709 93.6946 70.7511 93.6713C70.7313 93.648 70.7038 93.6326 70.6736 93.6277Z" fill="#263238"/>
<path d="M57.4683 100.227H57.5178C57.5381 100.221 57.5561 100.209 57.5689 100.193C57.5817 100.176 57.5886 100.156 57.5886 100.134C57.5886 100.113 57.5817 100.093 57.5689 100.076C57.5561 100.06 57.5381 100.047 57.5178 100.042H57.4683C57.4522 100.033 57.4341 100.029 57.4157 100.029C57.3973 100.029 57.3793 100.034 57.3635 100.043C57.3477 100.053 57.3346 100.066 57.3254 100.082C57.3163 100.098 57.3115 100.116 57.3115 100.134C57.3115 100.153 57.3163 100.171 57.3254 100.187C57.3346 100.203 57.3477 100.216 57.3635 100.225C57.3793 100.235 57.3973 100.24 57.4157 100.24C57.4341 100.24 57.4522 100.236 57.4683 100.227Z" fill="#263238"/>
<path d="M50.9884 102.749C51.0046 102.745 51.0191 102.736 51.0295 102.723C51.0399 102.711 51.0456 102.694 51.0456 102.678C51.0456 102.661 51.0399 102.645 51.0295 102.632C51.0191 102.619 51.0046 102.61 50.9884 102.607C50.9722 102.61 50.9577 102.619 50.9472 102.632C50.9368 102.645 50.9312 102.661 50.9312 102.678C50.9312 102.694 50.9368 102.711 50.9472 102.723C50.9577 102.736 50.9722 102.745 50.9884 102.749Z" fill="#263238"/>
<path d="M53.1832 106.43L53.1337 106.463C53.038 106.522 53.0974 106.697 53.2129 106.651L53.269 106.631C53.4209 106.572 53.3153 106.344 53.1832 106.43Z" fill="#263238"/>
<path d="M56.3398 104.162V104.188C56.3398 104.334 56.5775 104.334 56.5676 104.188V104.162C56.5676 104.132 56.5556 104.103 56.5343 104.081C56.5129 104.06 56.4839 104.048 56.4537 104.048C56.4235 104.048 56.3946 104.06 56.3732 104.081C56.3518 104.103 56.3398 104.132 56.3398 104.162Z" fill="#263238"/>
<path d="M56.6734 108.972L56.69 108.992C56.6993 109.007 56.7126 109.02 56.7285 109.03C56.7444 109.039 56.7624 109.043 56.7807 109.043C56.799 109.043 56.817 109.039 56.833 109.03C56.8489 109.02 56.8622 109.007 56.8715 108.992V108.972C56.8816 108.953 56.8868 108.932 56.8864 108.911C56.886 108.89 56.8801 108.869 56.8692 108.851C56.8584 108.833 56.843 108.818 56.8246 108.807C56.8062 108.797 56.7854 108.791 56.7642 108.791C56.7431 108.791 56.7222 108.797 56.7038 108.807C56.6854 108.818 56.6701 108.833 56.6592 108.851C56.6484 108.869 56.6425 108.89 56.6421 108.911C56.6417 108.932 56.6468 108.953 56.6569 108.972H56.6734Z" fill="#263238"/>
<path d="M60.8729 107.985C60.8387 107.985 60.806 107.998 60.7819 108.022C60.7577 108.047 60.7441 108.079 60.7441 108.113C60.7441 108.148 60.7577 108.18 60.7819 108.205C60.806 108.229 60.8387 108.242 60.8729 108.242C60.907 108.242 60.9398 108.229 60.9639 108.205C60.9881 108.18 61.0016 108.148 61.0016 108.113C61.0016 108.079 60.9881 108.047 60.9639 108.022C60.9398 107.998 60.907 107.985 60.8729 107.985Z" fill="#263238"/>
<path d="M63.0938 104.244C63.058 104.244 63.0235 104.259 62.9981 104.284C62.9728 104.309 62.9585 104.344 62.9585 104.38C62.9585 104.416 62.9728 104.45 62.9981 104.475C63.0235 104.501 63.058 104.515 63.0938 104.515C63.1297 104.515 63.1642 104.501 63.1896 104.475C63.2149 104.45 63.2292 104.416 63.2292 104.38C63.2292 104.344 63.2149 104.309 63.1896 104.284C63.1642 104.259 63.1297 104.244 63.0938 104.244Z" fill="#263238"/>
<path d="M30.471 122.015C30.953 118.714 34.5084 116.571 37.8559 116.423C41.2034 116.274 44.4221 117.568 47.6045 118.615C50.787 119.661 54.2797 120.467 57.4423 119.358C61.4401 117.951 63.8005 113.924 67.016 111.161C69.4643 109.107 72.4197 107.749 75.5727 107.229C78.7257 106.71 81.9605 107.047 84.9385 108.206V125.019H29.9824L30.471 122.015Z" fill="#FF725E"/>
<path d="M67.7488 113.498H49.3872V114.472H67.7488V113.498Z" fill="#263238"/>
<path d="M73.8365 115.789H43.2998V116.763H73.8365V115.789Z" fill="#263238"/>
<path d="M29.9824 52.4279C32.8677 56.0593 38.711 58.6111 43.3393 58.9281C46.426 59.1426 49.4995 58.4989 52.5828 58.215C55.6662 57.9311 58.9378 58.0532 61.5986 59.6279C64.8701 61.5658 66.6132 65.3193 69.5216 67.7853C73.7835 71.4167 80.5775 71.6511 85.0772 68.3201V51.8931L29.9824 52.4279ZM46.6208 58.0004H41.2595C41.113 58.0085 40.9663 57.9866 40.8285 57.9361C40.6906 57.8856 40.5645 57.8076 40.4579 57.7067C40.3513 57.6058 40.2664 57.4842 40.2083 57.3494C40.1503 57.2146 40.1203 57.0693 40.1203 56.9225C40.1203 56.7757 40.1503 56.6305 40.2083 56.4957C40.2664 56.3608 40.3513 56.2393 40.4579 56.1384C40.5645 56.0375 40.6906 55.9594 40.8285 55.9089C40.9663 55.8584 41.113 55.8366 41.2595 55.8447H46.6208C46.8963 55.8599 47.1556 55.9801 47.3452 56.1806C47.5349 56.3811 47.6406 56.6466 47.6406 56.9225C47.6406 57.1985 47.5349 57.464 47.3452 57.6645C47.1556 57.8649 46.8963 57.9851 46.6208 58.0004ZM57.921 58.0004C57.635 58.0004 57.3554 57.9156 57.1177 57.7567C56.8799 57.5978 56.6945 57.372 56.5851 57.1078C56.4757 56.8436 56.447 56.5528 56.5028 56.2724C56.5586 55.9919 56.6963 55.7342 56.8985 55.532C57.1008 55.3298 57.3584 55.1921 57.6389 55.1363C57.9194 55.0805 58.2101 55.1091 58.4743 55.2186C58.7385 55.328 58.9644 55.5133 59.1233 55.7511C59.2821 55.9889 59.3669 56.2685 59.3669 56.5544C59.3669 56.7449 59.3293 56.9335 59.2562 57.1093C59.1832 57.2852 59.0761 57.4449 58.9411 57.5792C58.8061 57.7136 58.646 57.82 58.4698 57.8922C58.2936 57.9645 58.1048 58.0013 57.9144 58.0004H57.921ZM74.5428 58.0004H69.1783C68.9027 57.9851 68.6435 57.8649 68.4538 57.6645C68.2641 57.464 68.1584 57.1985 68.1584 56.9225C68.1584 56.6466 68.2641 56.3811 68.4538 56.1806C68.6435 55.9801 68.9027 55.8599 69.1783 55.8447H74.5362C74.8118 55.8599 75.071 55.9801 75.2607 56.1806C75.4504 56.3811 75.5561 56.6466 75.5561 56.9225C75.5561 57.1985 75.4504 57.464 75.2607 57.6645C75.071 57.8649 74.8118 57.9851 74.5362 58.0004H74.5428Z" fill="#FF725E"/>
<path opacity="0.5" d="M29.9824 52.4279C32.8677 56.0593 38.711 58.6111 43.3393 58.9281C46.426 59.1426 49.4995 58.4989 52.5828 58.215C55.6662 57.9311 58.9378 58.0532 61.5986 59.6279C64.8701 61.5658 66.6132 65.3193 69.5216 67.7853C73.7835 71.4167 80.5775 71.6511 85.0772 68.3201V51.8931L29.9824 52.4279ZM46.6208 58.0004H41.2595C41.113 58.0085 40.9663 57.9866 40.8285 57.9361C40.6906 57.8856 40.5645 57.8076 40.4579 57.7067C40.3513 57.6058 40.2664 57.4842 40.2083 57.3494C40.1503 57.2146 40.1203 57.0693 40.1203 56.9225C40.1203 56.7757 40.1503 56.6305 40.2083 56.4957C40.2664 56.3608 40.3513 56.2393 40.4579 56.1384C40.5645 56.0375 40.6906 55.9594 40.8285 55.9089C40.9663 55.8584 41.113 55.8366 41.2595 55.8447H46.6208C46.8963 55.8599 47.1556 55.9801 47.3452 56.1806C47.5349 56.3811 47.6406 56.6466 47.6406 56.9225C47.6406 57.1985 47.5349 57.464 47.3452 57.6645C47.1556 57.8649 46.8963 57.9851 46.6208 58.0004ZM57.921 58.0004C57.635 58.0004 57.3554 57.9156 57.1177 57.7567C56.8799 57.5978 56.6945 57.372 56.5851 57.1078C56.4757 56.8436 56.447 56.5528 56.5028 56.2724C56.5586 55.9919 56.6963 55.7342 56.8985 55.532C57.1008 55.3298 57.3584 55.1921 57.6389 55.1363C57.9194 55.0805 58.2101 55.1091 58.4743 55.2186C58.7385 55.328 58.9644 55.5133 59.1233 55.7511C59.2821 55.9889 59.3669 56.2685 59.3669 56.5544C59.3669 56.7449 59.3293 56.9335 59.2562 57.1093C59.1832 57.2852 59.0761 57.4449 58.9411 57.5792C58.8061 57.7136 58.646 57.82 58.4698 57.8922C58.2936 57.9645 58.1048 58.0013 57.9144 58.0004H57.921ZM74.5428 58.0004H69.1783C68.9027 57.9851 68.6435 57.8649 68.4538 57.6645C68.2641 57.464 68.1584 57.1985 68.1584 56.9225C68.1584 56.6466 68.2641 56.3811 68.4538 56.1806C68.6435 55.9801 68.9027 55.8599 69.1783 55.8447H74.5362C74.8118 55.8599 75.071 55.9801 75.2607 56.1806C75.4504 56.3811 75.5561 56.6466 75.5561 56.9225C75.5561 57.1985 75.4504 57.464 75.2607 57.6645C75.071 57.8649 74.8118 57.9851 74.5362 58.0004H74.5428Z" fill="white"/>
<path d="M60.0999 44.4851H55.729C54.8132 44.4851 53.9349 44.1213 53.2873 43.4737C52.6397 42.8261 52.2759 41.9478 52.2759 41.032C52.2759 40.1162 52.6397 39.2378 53.2873 38.5903C53.9349 37.9427 54.8132 37.5789 55.729 37.5789H60.0999C61.0157 37.5789 61.894 37.9427 62.5416 38.5903C63.1892 39.2378 63.553 40.1162 63.553 41.032C63.553 41.9478 63.1892 42.8261 62.5416 43.4737C61.894 44.1213 61.0157 44.4851 60.0999 44.4851ZM55.729 38.8994C55.1634 38.8994 54.621 39.124 54.221 39.524C53.8211 39.9239 53.5964 40.4664 53.5964 41.032C53.5964 41.5976 53.8211 42.14 54.221 42.54C54.621 42.9399 55.1634 43.1646 55.729 43.1646H60.0999C60.6655 43.1646 61.2079 42.9399 61.6078 42.54C62.0078 42.14 62.2325 41.5976 62.2325 41.032C62.2325 40.4664 62.0078 39.9239 61.6078 39.524C61.2079 39.124 60.6655 38.8994 60.0999 38.8994H55.729Z" fill="#263238"/>
<path d="M56.7656 45.1849C56.7656 45.1849 56.2539 48.3971 56.0327 49.1002C55.8115 49.8034 54.7386 52.6821 55.072 54.4153C55.4054 56.1484 56.3067 57.0959 58.0167 56.9176L58.0564 55.9272C58.0564 55.9272 56.2539 55.9272 56.1779 54.4879C56.102 53.0485 56.5081 50.7212 57.3598 49.909C57.6052 49.6612 57.9356 49.5161 58.2841 49.503V45.1849H56.7656Z" fill="#455A64"/>
<path d="M56.9538 47.882H55.2801C55.1272 47.8815 54.9758 47.9113 54.8344 47.9695C54.693 48.0277 54.5645 48.1132 54.4563 48.2211C54.348 48.3291 54.2621 48.4573 54.2035 48.5985C54.1449 48.7397 54.1147 48.8911 54.1147 49.044C54.1147 49.1969 54.1449 49.3483 54.2035 49.4895C54.2621 49.6307 54.348 49.7589 54.4563 49.8669C54.5645 49.9748 54.693 50.0603 54.8344 50.1185C54.9758 50.1767 55.1272 50.2065 55.2801 50.206H56.5544L56.9538 47.882Z" fill="#455A64"/>
<path d="M56.2012 42.8575V44.8119H56.594V45.5415H59.2218V44.9142H59.6279V42.8575H56.2012Z" fill="#263238"/>
<path d="M59.0201 42.1444H56.7158V43.3131H59.0201V42.1444Z" fill="#263238"/>
<path d="M54.8742 39.8831L54.4186 24.0767C54.4186 24.0767 54.2799 19.4549 54.4417 15.7443C54.544 13.374 54.8279 11.6706 56.0065 10.0926C57.327 8.31648 63.6555 1.95825 63.6555 1.95825C63.6555 1.95825 61.3975 6.82761 61.3446 9.61057C61.2852 13.0076 61.3876 15.1567 61.4932 19.2932C61.5592 21.8285 61.8068 24.7733 61.8827 26.6055C61.9851 29.0154 62.1931 34.5648 62.1931 34.5648V39.8831H54.8742Z" fill="#FF725E"/>
</svg>
