<svg xmlns="http://www.w3.org/2000/svg" viewBox="0 0 208 198">
  <defs>
    <style>
      .cls-2 {
        fill: #f08849;
      }
    </style>
  </defs>
  <g id="Layer_2" data-name="Layer 2">
    <g id="Layer_1-2" data-name="Layer 1">
      <path class="cls-2" d="M205.05,120.34c-.67-2.88-2.91-5.41-5-7.42-.09,6.42,1.4,11.69,4.46,16.17a104,104,0,0,0,3.05-25A105.29,105.29,0,0,0,206.89,92c-4.85.4-9.7.69-14.57.71C200.65,99.35,203.49,110.34,205.05,120.34Z" />
      <path class="cls-2" d="M87.19,67.11a122.08,122.08,0,0,0-.82,21.28,71.68,71.68,0,0,0,3.53,15.67,45.65,45.65,0,0,0,5.88,11c14.47,21.24,31.28,26.09,52.37,23.35a16,16,0,0,0,3.47-2.06l.3-.1q.81-1.09,1.59-2.22c8.06-11.85,15.65-34.35-1.84-41.86-7.28-3.12-15.82-3.22-23.6-3.48-10.09-.35-30.14-.06-30.28-.54,3.1-9.37,11.73-13.54,20.34-16.9.57-3,4.23-5.09,6.61-6.38,10.58-5.75,24.19-4.34,35.77-3.64,8.62.53,13.71-1.59,12.72-11.38,6.34,4.48,3,11.08-1.16,15.82a6.21,6.21,0,0,1,1.25.9c1.83,2.25,6.45,3.27,9,3.93C189,72.25,196,72.8,203,73.24a104,104,0,0,0-73.9-69.85c-1.7,1.21-3.84,2.4-4.64,3C100.08,24.92,89.65,54,87.19,67.11Z" />
      <path class="cls-2" d="M74.52,195.57c-8.39-2.76-16.86-5.47-24.86-9.22-24.07-11.27-39.65-39.88-39.3-66,3.85,6.1,6,13.17,10.05,19.24,4.88,7.26,11,13.71,18.74,18-5-5.07-9.93-10.18-13.93-16.06-7.22-10.58-11.16-23.45-12.91-36-2-14.79,1.85-29.39,7.16-43.12.64,3.22,1.85,20.5,2.45,23.73C24.38,99.16,27.64,115.16,39,132a67.8,67.8,0,0,0,23.68,20.92c-14-10.46-21.93-25.49-25.55-32.32.23.33.45.66.69,1-8.5-16.07-13.33-32.76-11.42-51.33,1.93-18.86,12.16-33,23.79-47.87-2.3,9-5.13,16.78-6.12,24.82A168.82,168.82,0,0,0,42.38,69.7c.82,10.64,1.4,35.59,19.73,61.38a54.69,54.69,0,0,0,21.75,18,63,63,0,0,1-19.09-18.53c-18.12-27-19.36-48.67-18.94-57.29,0,.13-2.45-23.74,10-44.12C64,15.67,78.27,6.31,93.3,2.89c-2.12,2.59-8.41,7.45-10.64,9.83a54.15,54.15,0,0,0-6.54,9C73,27,68.64,36.8,68.57,37c.33-.4-16.47,37.06,3.57,76.43,8.28,16.25,20.42,24.59,32.93,28.12-10.79-4.59-21-13.2-28.31-27.62-20.05-39.36-6.61-67.45,1.63-82.66,9.77-13.44,19-22,31.71-26.44,3.46-1.21,7-2.1,10.56-3.13A105.16,105.16,0,0,0,103.81.28,103.8,103.8,0,0,0,41.19,186.87a11.26,11.26,0,0,1-.15-1.33C50.62,194.19,62.06,195.48,74.52,195.57Z" />
    </g>
  </g>
</svg>