<svg xmlns="http://www.w3.org/2000/svg" viewBox="0 0 1097.24 208.56"><defs><style>.cls-1{fill:#fff;}.cls-2{fill:#f08849;}</style></defs><g id="Layer_2" data-name="Layer 2"><g id="Layer_1-2" data-name="Layer 1"><path class="cls-1" d="M336.77,43.44V24.52a7.29,7.29,0,0,1,2.27-5.3,9.23,9.23,0,0,1,6-2.12H366V36a6.87,6.87,0,0,1-2.57,5.29,8.42,8.42,0,0,1-5.75,2.12Zm27.85,164.69H338V62.36h26.64Z"/><path class="cls-1" d="M516.74,23.92H425v79.92h83.4v23.91H425v80.38H398.38V23.92h-5.45L386.87,0H516.74Z"/><path class="cls-1" d="M537.94,43.44V24.52a7.25,7.25,0,0,1,2.27-5.3,9.23,9.23,0,0,1,6-2.12h20.89V36a6.87,6.87,0,0,1-2.57,5.29,8.44,8.44,0,0,1-5.76,2.12Zm27.85,164.69H539.15V62.36h26.64Z"/><path class="cls-1" d="M710.65,168.93l16,20.43q-23.31,18.76-54.19,18.77-3.33,0-6.81-.15-32.7-2.11-54.79-23.61Q588,162.41,588,131.08q0-31.93,22.7-54.49,22.71-22.4,55-22.4,32.09,0,54.8,22.4,22.69,22.56,22.7,54.49a9.06,9.06,0,0,1-3.18,7,9.87,9.87,0,0,1-7.26,2.87h-117a50.49,50.49,0,0,0,17.26,30A48.93,48.93,0,0,0,665.69,183,75.83,75.83,0,0,0,710.65,168.93ZM665.54,79.17a49.25,49.25,0,0,0-30,9.83,50.5,50.5,0,0,0-18.17,25.28h96.12A50.17,50.17,0,0,0,695.21,89,48.8,48.8,0,0,0,665.54,79.17Z"/><path class="cls-1" d="M886.53,208.13H859.89V120.79a33.32,33.32,0,0,0-10-24.22,32.13,32.13,0,0,0-23.76-10q-14.39,0-26,10Q788,107,788,120.79v87.34H761.35V62.36H788V77.2q15.43-14.83,38.14-14.84,24.68,0,42.23,16.65t18.16,40.27Z"/><path class="cls-1" d="M907.73,43.44V24.52a7.25,7.25,0,0,1,2.27-5.3,9.23,9.23,0,0,1,6-2.12h20.89V36a6.87,6.87,0,0,1-2.57,5.29,8.44,8.44,0,0,1-5.76,2.12Zm27.85,164.69H908.94V62.36h26.64Z"/><path class="cls-1" d="M1027.61,113.37l37.39-51h32.24l-53.59,73,53.59,72.81H1065l-37.39-51m0,0-37.69,51H957.83l53.58-72.81-53.58-73h32.09l37.69,51"/><polygon class="cls-2" points="957.83 62.36 989.92 62.36 1043.65 135.32 989.94 208.56 957.83 208.13 1011.41 135.32 957.83 62.36"/><path class="cls-2" d="M206.61,89.83a104.35,104.35,0,0,0-2.94-14.08,75.22,75.22,0,0,1-17,4.57C193.32,83.48,199.77,87.13,206.61,89.83Z"/><path class="cls-2" d="M205.05,120.34c-.67-2.88-2.91-5.41-5-7.42-.09,6.42,1.4,11.69,4.46,16.17a104,104,0,0,0,3.05-25A105.29,105.29,0,0,0,206.89,92c-4.85.4-9.7.69-14.57.71C200.65,99.35,203.49,110.34,205.05,120.34Z"/><path class="cls-2" d="M87.19,67.11a122.08,122.08,0,0,0-.82,21.28,71.68,71.68,0,0,0,3.53,15.67,45.65,45.65,0,0,0,5.88,11c14.47,21.24,31.28,26.09,52.37,23.35a16,16,0,0,0,3.47-2.06l.3-.1q.81-1.09,1.59-2.22c8.06-11.85,15.65-34.35-1.84-41.86-7.28-3.12-15.82-3.22-23.6-3.48-10.09-.35-30.14-.06-30.28-.54,3.1-9.37,11.73-13.54,20.34-16.9.57-3,4.23-5.09,6.61-6.38,10.58-5.75,24.19-4.34,35.77-3.64,8.62.53,13.71-1.59,12.72-11.38,6.34,4.48,3,11.08-1.16,15.82a6.21,6.21,0,0,1,1.25.9c1.83,2.25,6.45,3.27,9,3.93C189,72.25,196,72.8,203,73.24a104,104,0,0,0-73.9-69.85c-1.7,1.21-3.84,2.4-4.64,3C100.08,24.92,89.65,54,87.19,67.11Z"/><path class="cls-2" d="M74.52,195.57c-8.39-2.76-16.86-5.47-24.86-9.22-24.07-11.27-39.65-39.88-39.3-66,3.85,6.1,6,13.17,10.05,19.24,4.88,7.26,11,13.71,18.74,18-5-5.07-9.93-10.18-13.93-16.06-7.22-10.58-11.16-23.45-12.91-36-2-14.79,1.85-29.39,7.16-43.12.64,3.22,1.85,20.5,2.45,23.73C24.38,99.16,27.64,115.16,39,132a67.8,67.8,0,0,0,23.68,20.92c-14-10.46-21.93-25.49-25.55-32.32.23.33.45.66.69,1-8.5-16.07-13.33-32.76-11.42-51.33,1.93-18.86,12.16-33,23.79-47.87-2.3,9-5.13,16.78-6.12,24.82A168.82,168.82,0,0,0,42.38,69.7c.82,10.64,1.4,35.59,19.73,61.38a54.69,54.69,0,0,0,21.75,18,63,63,0,0,1-19.09-18.53c-18.12-27-19.36-48.67-18.94-57.29,0,.13-2.45-23.74,10-44.12C64,15.67,78.27,6.31,93.3,2.89c-2.12,2.59-8.41,7.45-10.64,9.83a54.15,54.15,0,0,0-6.54,9C73,27,68.64,36.8,68.57,37c.33-.4-16.47,37.06,3.57,76.43,8.28,16.25,20.42,24.59,32.93,28.12-10.79-4.59-21-13.2-28.31-27.62-20.05-39.36-6.61-67.45,1.63-82.66,9.77-13.44,19-22,31.71-26.44,3.46-1.21,7-2.1,10.56-3.13A105.16,105.16,0,0,0,103.81.28,103.8,103.8,0,0,0,41.19,186.87a11.26,11.26,0,0,1-.15-1.33C50.62,194.19,62.06,195.48,74.52,195.57Z"/><path class="cls-1" d="M208.16,73.56,203,73.24c.26.83.48,1.67.72,2.51A43.26,43.26,0,0,0,208.16,73.56Z"/><path class="cls-1" d="M211.5,91.57c-1.66-.51-3.28-1.1-4.89-1.74.1.72.19,1.43.28,2.15C208.42,91.85,210,91.72,211.5,91.57Z"/><path class="cls-1" d="M131.39.82c-2.46-.82-4.91-.82-10.65.82l-.08,0c2.84.47,5.64,1,8.39,1.73C130.34,2.46,131.39,1.52,131.39.82Z"/><path class="cls-1" d="M204.56,129.09c-3.06-4.48-4.55-9.75-4.46-16.17,2,2,4.28,4.54,5,7.42-1.56-10-4.4-21-12.73-27.65,4.87,0,9.72-.31,14.57-.71-.09-.72-.18-1.43-.28-2.15-6.84-2.7-13.29-6.35-19.91-9.51a75.22,75.22,0,0,0,17-4.57c-.24-.84-.46-1.68-.72-2.51-6.92-.44-13.92-1-20.61-2.7-2.57-.66-7.19-1.68-9-3.93a6.21,6.21,0,0,0-1.25-.9c4.11-4.74,7.5-11.34,1.16-15.82,1,9.79-4.1,11.91-12.72,11.38-11.58-.7-25.19-2.11-35.77,3.64-2.38,1.29-6,3.43-6.61,6.38-8.61,3.36-17.24,7.53-20.34,16.9.14.48,20.19.19,30.28.54,7.78.26,16.32.36,23.6,3.48,17.49,7.51,9.9,30,1.84,41.86q-.78,1.13-1.59,2.22l-.3.1a16,16,0,0,1-3.47,2.06c-21.09,2.74-37.9-2.11-52.37-23.35a45.65,45.65,0,0,1-5.88-11,71.68,71.68,0,0,1-3.53-15.67,122.08,122.08,0,0,1,.82-21.28C89.65,54,100.08,24.92,124.41,6.4c.8-.61,2.94-1.8,4.64-3-2.75-.69-5.55-1.26-8.39-1.73-3.52,1-7.1,1.92-10.56,3.13-12.72,4.48-21.94,13-31.71,26.44-8.24,15.21-21.68,43.3-1.63,82.66,7.33,14.42,17.52,23,28.31,27.62C92.56,138,80.42,129.64,72.14,113.39,52.1,74,68.9,36.56,68.57,37c.07-.16,4.4-9.94,7.55-15.24a54.15,54.15,0,0,1,6.54-9c2.23-2.38,8.52-7.24,10.64-9.83C78.27,6.31,64,15.67,55.78,29.16c-12.4,20.38-10,44.25-10,44.12-.42,8.62.82,30.28,18.94,57.29A63,63,0,0,0,83.86,149.1a54.69,54.69,0,0,1-21.75-18C43.78,105.29,43.2,80.34,42.38,69.7A168.82,168.82,0,0,1,44.1,47.16c1-8,3.82-15.85,6.12-24.82-11.63,14.83-21.86,29-23.79,47.87-1.91,18.57,2.92,35.26,11.42,51.33-.24-.33-.46-.66-.69-1,3.62,6.83,11.55,21.86,25.55,32.32A67.8,67.8,0,0,1,39,132C27.64,115.16,24.38,99.16,21.92,86.06c-.6-3.23-1.81-20.51-2.45-23.73-5.31,13.73-9.2,28.33-7.16,43.12,1.75,12.6,5.69,25.47,12.91,36.05,4,5.88,9,11,13.93,16.06-7.72-4.25-13.86-10.7-18.74-18-4.07-6.07-6.2-13.14-10-19.24-.35,26.11,15.23,54.72,39.3,66,8,3.75,16.47,6.46,24.86,9.22-12.46-.09-23.9-1.38-33.48-10a11.26,11.26,0,0,0,.15,1.33,103.8,103.8,0,0,0,163.37-57.78Z"/></g></g></svg>