<svg width="283" height="346" viewBox="0 0 283 346" fill="none" xmlns="http://www.w3.org/2000/svg">
<path d="M141.161 345.381C63.2 345.381 3.05176e-05 309.479 3.05176e-05 265.191C3.05176e-05 220.903 63.2 185 141.161 185C219.122 185 282.322 220.903 282.322 265.191C282.322 309.479 219.122 345.381 141.161 345.381Z" fill="#383838"/>
<path d="M100.464 298.438L205.835 237.597C206.762 237.063 207.532 236.294 208.068 235.368C208.603 234.442 208.885 233.391 208.885 232.321C208.885 231.251 208.603 230.2 208.068 229.274C207.532 228.348 206.762 227.579 205.835 227.045L195.441 220.49C193.647 219.457 191.612 218.913 189.542 218.913C187.471 218.913 185.437 219.457 183.642 220.49L78.2568 281.339C77.3298 281.873 76.56 282.642 76.0246 283.568C75.4893 284.494 75.2075 285.545 75.2075 286.615C75.2075 287.685 75.4893 288.735 76.0246 289.662C76.56 290.588 77.3298 291.357 78.2568 291.891L88.6513 298.438C90.4464 299.477 92.4838 300.024 94.5578 300.024C96.6319 300.024 98.6692 299.477 100.464 298.438Z" fill="black"/>
<path d="M63.0982 245.978L53.069 251.745C53.069 251.745 58.1911 235.648 55.4617 219.422C54.4301 213.29 52.2165 210.245 51.4428 208.605C50.6692 206.964 44.6731 196.828 50.0101 192.185C55.3471 187.543 67.7618 196.878 67.0884 221.858C66.7823 230.034 65.4415 238.139 63.0982 245.978Z" fill="#EF9933"/>
<path opacity="0.5" d="M63.0982 245.978L53.069 251.745C53.069 251.745 58.1911 235.648 55.4617 219.422C54.4301 213.29 52.2165 210.245 51.4428 208.605C50.6692 206.964 44.6731 196.828 50.0101 192.185C55.3471 187.543 67.7618 196.878 67.0884 221.858C66.7823 230.034 65.4415 238.139 63.0982 245.978Z" fill="black"/>
<path d="M58.4348 249.015C58.5078 249.017 58.5795 248.996 58.6398 248.955C58.7002 248.914 58.7462 248.855 58.7715 248.786C58.8073 248.679 62.6399 238.205 62.5182 221.371C62.3964 204.536 53.5492 195.395 53.4632 195.309C53.4299 195.275 53.3903 195.249 53.3467 195.231C53.303 195.212 53.2562 195.203 53.2089 195.203C53.1616 195.203 53.1148 195.212 53.0711 195.231C53.0275 195.249 52.9879 195.275 52.9546 195.309C52.921 195.342 52.8944 195.382 52.8762 195.426C52.858 195.469 52.8486 195.516 52.8486 195.563C52.8486 195.611 52.858 195.657 52.8762 195.701C52.8944 195.745 52.921 195.784 52.9546 195.818C53.0405 195.904 61.68 204.772 61.8018 221.378C61.9236 237.983 58.1411 248.442 58.0981 248.543C58.0659 248.632 58.0704 248.73 58.1107 248.816C58.151 248.902 58.2238 248.969 58.3131 249.001C58.3524 249.013 58.3937 249.018 58.4348 249.015Z" fill="white"/>
<path d="M58.9145 248.442L45.2032 256.322C43.7745 257.167 42.08 257.442 40.4576 257.093C38.8351 256.744 37.4039 255.796 36.4491 254.438C35.5415 253.026 35.1587 251.34 35.3674 249.674C36.0264 242.554 39.1212 240.913 35.3315 237.74C31.5419 234.566 30.5533 234.344 30.7683 231.292C30.9832 228.241 33.0678 226.908 34.0564 225.705C35.045 224.501 37.7815 221.98 35.919 218.254C34.0564 214.529 31.5133 210.926 35.3674 209.278C37.6669 208.29 41.4995 209.608 44.0211 212.344C46.5428 215.081 48.6203 217.051 51.0344 217.71C53.4486 218.369 58.4775 218.476 58.2626 222.639C58.0477 226.801 56.9445 228.226 57.9331 230.082C59.7957 233.549 67.8978 235.519 58.9145 248.442Z" fill="#EF9933"/>
<path d="M52.1376 252.683C52.2269 252.68 52.3122 252.645 52.378 252.585C52.4437 252.524 52.4855 252.442 52.4958 252.353C52.4958 252.11 54.6019 227.524 37.6956 211.162C37.6258 211.104 37.5369 211.075 37.4467 211.081C37.3564 211.086 37.2715 211.125 37.209 211.19C37.1464 211.256 37.1109 211.342 37.1094 211.433C37.108 211.523 37.1408 211.611 37.2013 211.678C53.8641 227.803 51.8009 252.045 51.7794 252.289C51.7714 252.383 51.8008 252.476 51.8611 252.549C51.9215 252.621 52.008 252.667 52.1018 252.676L52.1376 252.683Z" fill="white"/>
<path d="M49.4226 231.522C49.5128 231.522 49.5998 231.488 49.6663 231.427C49.7327 231.366 49.7736 231.282 49.7808 231.192C49.9308 229.287 50.4674 227.432 51.3579 225.741C52.2484 224.05 53.4741 222.558 54.9602 221.356C54.9989 221.329 55.0319 221.295 55.0572 221.255C55.0825 221.215 55.0997 221.17 55.1076 221.123C55.1156 221.077 55.1143 221.029 55.1038 220.983C55.0932 220.937 55.0736 220.893 55.0461 220.855C55.0196 220.816 54.9857 220.783 54.9464 220.758C54.9071 220.733 54.8631 220.716 54.8171 220.708C54.771 220.7 54.7238 220.701 54.6783 220.712C54.6328 220.722 54.5898 220.741 54.5518 220.769C52.9682 222.025 51.6627 223.596 50.7181 225.383C49.7734 227.169 49.2103 229.133 49.0644 231.149C49.0564 231.245 49.0866 231.34 49.1483 231.414C49.2099 231.487 49.2982 231.534 49.3939 231.543L49.4226 231.522Z" fill="white"/>
<path d="M50.5901 235.741C50.6767 235.742 50.7607 235.712 50.8265 235.655C50.8976 235.592 50.9411 235.503 50.9478 235.408C50.9545 235.313 50.9239 235.219 50.8623 235.147C50.6904 234.946 46.4567 230.275 36.5349 231.515C36.4409 231.527 36.3557 231.576 36.298 231.652C36.2402 231.727 36.2146 231.822 36.2268 231.916C36.2394 232.01 36.2884 232.096 36.3633 232.155C36.4383 232.214 36.5333 232.241 36.628 232.231C46.1558 231.035 50.2892 235.576 50.3322 235.619C50.3648 235.656 50.4045 235.686 50.4488 235.706C50.4931 235.727 50.5412 235.739 50.5901 235.741Z" fill="white"/>
<path d="M103.674 291.167L196.343 237.661C202.884 233.885 208.185 223.756 208.185 215.038V16.6027C208.185 7.88441 202.884 3.8799 196.343 7.65518L103.674 61.161C97.1331 64.9363 91.8319 75.0658 91.8319 83.784V282.219C91.8319 290.93 97.1331 294.942 103.674 291.167Z" fill="#455A64"/>
<path d="M92.9999 54.9217L185.677 1.41588C188.471 -0.195955 191.035 -0.382213 193.063 0.606381C193.311 0.730675 193.55 0.871895 193.779 1.02904L204.167 7.06806C202.075 5.81441 199.338 5.90753 196.337 7.64115L103.667 61.147C97.1262 64.9223 91.825 75.0518 91.825 83.77V282.205C91.825 286.819 93.3079 290.085 95.6719 291.633L85.4207 285.665C82.8059 284.275 81.1224 280.873 81.1224 275.994V77.5591C81.1224 68.8265 86.4594 58.697 92.9999 54.9217Z" fill="#37474F"/>
<path d="M91.8318 83.77V282.205C91.8318 286.819 93.3147 290.085 95.6787 291.633L85.4203 285.665C82.8055 284.275 81.122 280.873 81.122 275.994V77.5591L91.796 83.7557L91.8318 83.77Z" fill="#263238"/>
<path d="M81.1581 92.9541L91.832 99.1149V103.929L81.1581 97.761V92.9541Z" fill="#37474F"/>
<path d="M85.8356 124.969C86.7883 125.52 87.562 124.933 87.562 123.665V113.314C87.5523 112.666 87.3911 112.031 87.0913 111.457C86.7915 110.884 86.3614 110.388 85.8356 110.011C84.8828 109.459 84.1091 110.011 84.1091 111.315V121.666C84.1188 122.314 84.28 122.949 84.5798 123.523C84.8796 124.096 85.3097 124.592 85.8356 124.969Z" fill="#37474F"/>
<path d="M87.5691 123.694V113.313C87.5594 112.666 87.3982 112.03 87.0984 111.457C86.7985 110.883 86.3684 110.388 85.8426 110.011C85.6855 109.901 85.5024 109.834 85.3115 109.816C85.1205 109.799 84.9283 109.831 84.7537 109.911L86.0504 109.244C86.2277 109.159 86.4244 109.122 86.6207 109.137C86.8169 109.152 87.0057 109.219 87.1679 109.33C87.6942 109.708 88.1251 110.203 88.4261 110.776C88.7271 111.349 88.8899 111.985 88.9015 112.633V122.977C88.9284 123.239 88.8886 123.502 88.7859 123.744C88.6832 123.986 88.5209 124.198 88.3141 124.36L86.9601 125.076C87.1757 124.921 87.3458 124.711 87.4528 124.468C87.5599 124.225 87.6 123.957 87.5691 123.694Z" fill="#455A64"/>
<path d="M85.8356 150.021C86.7883 150.572 87.562 150.021 87.562 148.717V138.365C87.5518 137.718 87.3903 137.083 87.0906 136.509C86.7908 135.936 86.361 135.44 85.8356 135.063C84.8828 134.511 84.1091 135.063 84.1091 136.374V146.718C84.1177 147.365 84.2784 148.002 84.5783 148.575C84.8782 149.149 85.3089 149.644 85.8356 150.021Z" fill="#37474F"/>
<path d="M87.5697 148.716V138.365C87.5594 137.718 87.398 137.082 87.0982 136.509C86.7984 135.935 86.3686 135.44 85.8432 135.062C85.6852 134.954 85.5023 134.888 85.3118 134.871C85.1212 134.853 84.9294 134.885 84.7543 134.962L86.051 134.289C86.2273 134.199 86.4247 134.16 86.6217 134.176C86.8187 134.191 87.0078 134.26 87.1685 134.375C87.6961 134.751 88.1278 135.245 88.429 135.819C88.7301 136.393 88.8922 137.029 88.9021 137.677V148.05C88.9297 148.311 88.8902 148.576 88.7874 148.817C88.6847 149.059 88.522 149.271 88.3147 149.433L86.9607 150.149C87.1851 149.99 87.3608 149.772 87.4683 149.519C87.5759 149.266 87.6109 148.988 87.5697 148.716Z" fill="#455A64"/>
<path d="M106.911 66.7273L197.977 14.1313C198.357 13.9127 198.787 13.7972 199.226 13.7964C199.664 13.7956 200.095 13.9094 200.476 14.1267C200.857 14.3439 201.174 14.6569 201.397 15.0347C201.619 15.4126 201.739 15.842 201.745 16.2804V215.038C201.745 221.671 197.038 229.817 191.293 233.133L102.463 284.447C102.041 284.69 101.564 284.817 101.078 284.817C100.592 284.816 100.114 284.688 99.6934 284.445C99.2725 284.202 98.923 283.852 98.6797 283.432C98.4365 283.011 98.3082 282.533 98.3077 282.047V81.6494C98.2718 76.1763 102.155 69.4639 106.911 66.7273Z" fill="#EF9933"/>
<path opacity="0.9" d="M106.911 66.7273L197.977 14.1313C198.357 13.9127 198.787 13.7972 199.226 13.7964C199.664 13.7956 200.095 13.9094 200.476 14.1267C200.857 14.3439 201.174 14.6569 201.397 15.0347C201.619 15.4126 201.739 15.842 201.745 16.2804V215.038C201.745 221.671 197.038 229.817 191.293 233.133L102.463 284.447C102.041 284.69 101.564 284.817 101.078 284.817C100.592 284.816 100.114 284.688 99.6934 284.445C99.2725 284.202 98.923 283.852 98.6797 283.432C98.4365 283.011 98.3082 282.533 98.3077 282.047V81.6494C98.2718 76.1763 102.155 69.4639 106.911 66.7273Z" fill="white"/>
<path d="M170.74 27.8643L169.329 33.803L139.141 51.2108L133.926 48.4313L170.74 27.8643Z" fill="#455A64"/>
<path d="M161.864 33.6021C161.864 34.5907 162.581 34.9847 163.412 34.4976C163.858 34.2014 164.228 33.8047 164.493 33.3394C164.758 32.8741 164.91 32.3532 164.938 31.8184C164.938 30.8369 164.221 30.4358 163.39 30.9301C162.944 31.2247 162.574 31.62 162.309 32.0842C162.044 32.5484 161.891 33.0683 161.864 33.6021Z" fill="#263238"/>
<path d="M141.527 46.1745C141.692 46.1732 141.854 46.1314 141.999 46.0528L157.416 37.4563C157.633 37.3285 157.792 37.1206 157.859 36.8771C157.925 36.6336 157.894 36.3737 157.772 36.153C157.649 35.9323 157.445 35.7683 157.203 35.6959C156.961 35.6235 156.701 35.6485 156.477 35.7657L141.054 44.3621C140.866 44.4663 140.719 44.6299 140.634 44.8271C140.55 45.0243 140.534 45.244 140.588 45.4516C140.642 45.6591 140.764 45.8428 140.934 45.9737C141.103 46.1045 141.312 46.1752 141.527 46.1745Z" fill="#263238"/>
<path d="M137.808 155.331L166.298 138.854C166.626 138.627 167.005 138.485 167.402 138.441C167.798 138.397 168.199 138.453 168.569 138.603C168.647 138.639 168.721 138.683 168.791 138.732L174.988 142.364H174.945C175.725 142.809 176.22 143.84 176.22 145.316V177.008C176.22 179.687 174.594 182.804 172.581 183.964L144.09 200.441C143.729 200.702 143.299 200.852 142.853 200.871C142.407 200.89 141.966 200.778 141.583 200.548C141.602 200.556 141.62 200.568 141.633 200.584L135.48 197.002C134.677 196.572 134.169 195.526 134.169 194.029V162.287C134.169 159.607 135.766 156.491 137.808 155.331Z" fill="#EF9933"/>
<path d="M135.186 158.332C135.762 157.107 136.67 156.067 137.808 155.331L166.298 138.854C166.626 138.627 167.005 138.485 167.401 138.441C167.798 138.397 168.199 138.453 168.569 138.603C168.646 138.639 168.721 138.683 168.791 138.732L174.987 142.364C174.608 142.171 174.183 142.085 173.759 142.116C173.334 142.148 172.926 142.296 172.58 142.544L144.09 159.02C142.914 159.789 141.982 160.877 141.404 162.158L135.186 158.332Z" fill="#EF9933"/>
<path d="M140.451 197.654C140.451 199.087 140.91 200.083 141.633 200.52L135.48 196.938C134.677 196.508 134.169 195.462 134.169 193.965V162.287C134.199 160.908 134.547 159.555 135.186 158.333L141.404 162.158C140.807 163.344 140.482 164.649 140.451 165.976V197.654Z" fill="#EF9933"/>
<path opacity="0.3" d="M135.186 158.332C135.762 157.107 136.67 156.067 137.808 155.331L166.298 138.854C166.626 138.627 167.005 138.485 167.401 138.441C167.798 138.397 168.199 138.453 168.569 138.603C168.646 138.639 168.721 138.683 168.791 138.732L174.987 142.364C174.608 142.171 174.183 142.085 173.759 142.116C173.334 142.148 172.926 142.296 172.58 142.544L144.09 159.02C142.914 159.789 141.982 160.877 141.404 162.158L135.186 158.332Z" fill="black"/>
<path opacity="0.6" d="M140.451 197.654C140.451 199.087 140.91 200.083 141.633 200.52L135.48 196.938C134.677 196.508 134.169 195.462 134.169 193.965V162.287C134.199 160.908 134.547 159.555 135.186 158.333L141.404 162.158C140.807 163.344 140.482 164.649 140.451 165.976V197.654Z" fill="black"/>
<path d="M148.804 175.052C148.804 179.157 150.43 180.554 152.866 179.143C153.538 178.76 154.126 178.246 154.593 177.63C155.061 177.015 155.4 176.311 155.588 175.561C156.305 176.442 157.415 176.499 158.977 175.597C161.541 174.114 163.561 170.582 163.561 167.151C163.561 163.719 161.563 162.537 158.977 164.027C157.664 164.801 156.604 165.938 155.925 167.301V165.947L153.224 167.509V174.93C153.264 175.321 153.197 175.715 153.029 176.07C152.861 176.425 152.599 176.727 152.271 176.943C151.362 177.474 150.803 176.578 150.803 173.92C150.803 169.271 153.783 164.342 158.189 161.799C162.594 159.256 165.567 161.026 165.567 165.811C165.51 168.35 164.81 170.834 163.533 173.029C162.257 175.225 160.445 177.062 158.268 178.369C157.085 179.097 155.742 179.525 154.356 179.616L153.719 182.087C155.332 181.957 156.892 181.444 158.268 180.59C163.998 177.273 167.788 170.596 167.788 164.55C167.788 158.504 163.963 156.312 158.189 159.65C152.608 162.867 148.804 169.307 148.804 175.052ZM155.882 171.606C155.868 170.698 156.09 169.802 156.525 169.004C156.961 168.207 157.596 167.536 158.368 167.058C159.801 166.219 160.825 166.807 160.825 168.755C160.843 169.665 160.627 170.564 160.197 171.366C159.766 172.168 159.136 172.845 158.368 173.333C156.935 174.142 155.882 173.62 155.882 171.606Z" fill="#EF9933"/>
<g opacity="0.9">
<path d="M167.503 174.969C168.263 178.554 166.933 180.11 164.293 179.382C163.566 179.187 162.897 178.859 162.326 178.418C161.755 177.977 161.295 177.433 160.972 176.817C160.435 177.735 159.361 178.014 157.669 177.549C154.89 176.785 152.263 174.118 151.629 171.122C150.994 168.125 152.727 166.679 155.529 167.445C156.953 167.849 158.199 168.623 159.115 169.673L158.864 168.491L161.791 169.296L163.164 175.777C163.197 176.127 163.336 176.457 163.565 176.732C163.795 177.007 164.107 177.217 164.467 177.338C165.453 177.613 165.833 176.715 165.342 174.394C164.482 170.334 160.659 166.646 155.886 165.337C151.113 164.027 148.536 166.187 149.422 170.367C149.948 172.572 151.091 174.596 152.743 176.25C154.396 177.904 156.505 179.133 158.874 179.824C160.164 180.215 161.555 180.311 162.925 180.103L164.005 182.13C162.405 182.35 160.787 182.224 159.285 181.763C153.074 180.052 148.138 175.005 147.019 169.725C145.901 164.445 149.232 161.739 155.488 163.46C161.534 165.114 166.44 169.952 167.503 174.969ZM159.953 173.424C159.799 172.628 159.416 171.891 158.843 171.285C158.27 170.679 157.526 170.224 156.684 169.966C155.129 169.53 154.238 170.255 154.598 171.957C154.748 172.755 155.126 173.496 155.695 174.107C156.264 174.718 157.004 175.179 157.845 175.446C159.394 175.857 160.326 175.182 159.953 173.424Z" fill="white"/>
</g>
<path d="M137.808 211.766L166.298 195.29C166.625 195.061 167.005 194.919 167.402 194.876C167.799 194.834 168.2 194.892 168.569 195.046C168.647 195.082 168.721 195.125 168.791 195.175L174.988 198.807H174.945C175.725 199.251 176.22 200.283 176.22 201.751V233.429C176.22 236.116 174.594 239.225 172.581 240.385L144.09 256.862C143.73 257.125 143.299 257.276 142.853 257.295C142.407 257.314 141.965 257.201 141.583 256.969L141.633 257.012L135.48 253.394C134.677 252.972 134.169 251.962 134.169 250.422V218.715C134.169 216.036 135.766 212.927 137.808 211.766Z" fill="#EF9933"/>
<path d="M135.186 214.768C135.76 213.541 136.669 212.5 137.808 211.766L166.298 195.29C166.625 195.061 167.005 194.919 167.402 194.876C167.799 194.834 168.2 194.892 168.569 195.046C168.646 195.082 168.721 195.125 168.791 195.175L174.987 198.807C174.609 198.611 174.184 198.524 173.76 198.554C173.335 198.585 172.927 198.732 172.58 198.979L144.09 215.455C142.912 216.225 141.98 217.317 141.404 218.6L135.186 214.768Z" fill="#EF9933"/>
<path d="M140.451 254.083C140.451 255.515 140.91 256.511 141.633 256.984L135.48 253.366C134.677 252.944 134.169 251.933 134.169 250.393V218.715C134.199 217.339 134.547 215.988 135.186 214.768L141.404 218.593C140.807 219.777 140.482 221.079 140.451 222.405V254.083Z" fill="#EF9933"/>
<path opacity="0.3" d="M135.186 214.768C135.76 213.541 136.669 212.5 137.808 211.766L166.298 195.29C166.625 195.061 167.005 194.919 167.402 194.876C167.799 194.834 168.2 194.892 168.569 195.046C168.646 195.082 168.721 195.125 168.791 195.175L174.987 198.807C174.609 198.611 174.184 198.524 173.76 198.554C173.335 198.585 172.927 198.732 172.58 198.979L144.09 215.455C142.912 216.225 141.98 217.317 141.404 218.6L135.186 214.768Z" fill="black"/>
<path opacity="0.6" d="M140.451 254.083C140.451 255.515 140.91 256.511 141.633 256.984L135.48 253.366C134.677 252.944 134.169 251.933 134.169 250.393V218.715C134.199 217.339 134.547 215.988 135.186 214.768L141.404 218.593C140.807 219.777 140.482 221.079 140.451 222.405V254.083Z" fill="black"/>
<path d="M161.52 225.929L168.39 214.768V229.891L161.52 225.929Z" fill="#EF9933"/>
<path d="M155.137 229.145L148.282 241.016V225.915L155.137 229.145Z" fill="#EF9933"/>
<path d="M167.351 214.259L160.295 225.721C160.265 225.746 160.238 225.775 160.216 225.807C160.21 225.836 160.21 225.865 160.216 225.893L158.117 229.303L156.34 228.465C156.313 228.435 156.281 228.408 156.247 228.386C156.177 228.345 156.099 228.321 156.018 228.314L148.854 224.955L167.351 214.259Z" fill="#EF9933"/>
<path d="M156.176 229.633L158.096 230.535C158.17 230.57 158.251 230.587 158.332 230.585C158.431 230.587 158.528 230.562 158.615 230.514C158.702 230.467 158.775 230.397 158.826 230.313L160.925 226.903L167.817 230.886L149.27 241.589L156.176 229.633Z" fill="#EF9933"/>
<g opacity="0.9">
<path d="M161.52 225.929L168.39 214.768V229.891L161.52 225.929Z" fill="white"/>
<path d="M155.136 229.145L148.281 241.016V225.915L155.136 229.145Z" fill="white"/>
<path d="M167.351 214.259L160.294 225.721C160.264 225.746 160.238 225.775 160.216 225.807C160.209 225.836 160.209 225.865 160.216 225.893L158.117 229.303L156.34 228.465C156.312 228.435 156.281 228.408 156.247 228.386C156.177 228.345 156.098 228.321 156.018 228.314L148.854 224.955L167.351 214.259Z" fill="white"/>
<path d="M156.175 229.633L158.095 230.535C158.169 230.57 158.25 230.587 158.332 230.585C158.431 230.587 158.528 230.562 158.615 230.514C158.701 230.467 158.774 230.397 158.826 230.313L160.925 226.903L167.816 230.886L149.27 241.589L156.175 229.633Z" fill="white"/>
</g>
<path d="M137.808 98.9233L166.298 82.4468C166.625 82.2183 167.005 82.0761 167.402 82.0335C167.799 81.991 168.2 82.0493 168.569 82.2032C168.647 82.2391 168.721 82.2823 168.791 82.3321L174.988 85.9641H174.945C175.725 86.4011 176.22 87.4399 176.22 88.9084V120.586C176.22 123.266 174.594 126.382 172.581 127.542L144.09 144.019C143.73 144.282 143.299 144.433 142.853 144.452C142.407 144.471 141.965 144.358 141.583 144.126L141.633 144.162L135.48 140.58C134.677 140.158 134.169 139.148 134.169 137.607V105.851C134.169 103.171 135.766 100.055 137.808 98.9233Z" fill="#EF9933"/>
<path d="M135.186 101.903C135.76 100.674 136.669 99.6317 137.808 98.8947L166.298 82.4468C166.625 82.2183 167.005 82.0761 167.402 82.0335C167.799 81.991 168.2 82.0493 168.569 82.2032C168.646 82.2391 168.721 82.2823 168.791 82.3321L174.987 85.9641C174.609 85.7686 174.184 85.6811 173.76 85.7115C173.335 85.7418 172.927 85.8887 172.58 86.1361L144.09 102.613C142.912 103.382 141.98 104.474 141.404 105.758L135.186 101.903Z" fill="#EF9933"/>
<path d="M140.451 141.19C140.451 142.622 140.91 143.618 141.633 144.055L135.48 140.473C134.677 140.051 134.169 139.041 134.169 137.5V105.851C134.199 104.474 134.547 103.124 135.186 101.904L141.404 105.729C140.807 106.913 140.482 108.215 140.451 109.54V141.19Z" fill="#EF9933"/>
<path opacity="0.3" d="M135.186 101.903C135.76 100.674 136.669 99.6317 137.808 98.8947L166.298 82.4468C166.625 82.2183 167.005 82.0761 167.402 82.0335C167.799 81.991 168.2 82.0493 168.569 82.2032C168.646 82.2391 168.721 82.2823 168.791 82.3321L174.987 85.9641C174.609 85.7686 174.184 85.6811 173.76 85.7115C173.335 85.7418 172.927 85.8887 172.58 86.1361L144.09 102.613C142.912 103.382 141.98 104.474 141.404 105.758L135.186 101.903Z" fill="black"/>
<path opacity="0.6" d="M140.451 141.19C140.451 142.622 140.91 143.618 141.633 144.055L135.48 140.473C134.677 140.051 134.169 139.041 134.169 137.5V105.851C134.199 104.474 134.547 103.124 135.186 101.904L141.404 105.729C140.807 106.913 140.482 108.215 140.451 109.54V141.19Z" fill="black"/>
<path d="M149.771 127.578C150.867 125.773 151.971 123.996 153.067 122.177C153.24 121.832 153.483 121.527 153.78 121.281C154.078 121.034 154.422 120.851 154.793 120.744C155.323 120.637 155.853 120.515 156.398 120.357C156.592 120.276 156.755 120.136 156.863 119.956C158.657 116.887 160.083 113.616 161.111 110.213C161.133 110.141 161.14 110.064 161.13 109.989C161.12 109.913 161.094 109.841 161.054 109.776C160.717 109.44 160.338 109.132 159.994 108.831C159.65 108.53 159.471 107.835 159.722 106.932C160.252 105.02 160.76 103.107 161.291 101.201C161.393 100.66 161.636 100.155 161.996 99.7376C162.356 99.3201 162.819 99.0047 163.339 98.8231C164.495 98.5019 165.721 98.547 166.85 98.9521C167.287 99.1168 167.516 99.5108 167.523 100.191C167.337 101.502 167.215 102.799 166.964 104.131C165.197 113.74 160.947 122.576 154.213 130.637C154.037 130.905 153.801 131.127 153.523 131.286C153.246 131.445 152.935 131.537 152.615 131.554C151.5 131.528 150.429 131.115 149.585 130.386C148.947 129.813 149.012 128.796 149.771 127.578Z" fill="#EF9933"/>
<path d="M149.857 117.814C150.007 115.754 150.575 113.745 151.526 111.911C152.237 110.479 153.141 109.151 154.213 107.964C154.492 107.649 154.728 107.549 154.872 107.785C155.015 108.022 154.872 108.358 154.6 108.666L154.32 108.989C152.34 111.274 151.092 114.102 150.738 117.105C150.742 117.324 150.72 117.543 150.674 117.757C150.584 118.003 150.439 118.226 150.251 118.409C150.101 118.516 149.929 118.409 149.807 118.409C149.85 118.115 149.843 117.965 149.857 117.814Z" fill="#EF9933"/>
<path d="M156.348 111.933C155.448 112.922 154.901 114.182 154.793 115.515C154.746 115.717 154.671 115.913 154.571 116.095C154.134 116.453 153.919 116.331 153.919 115.88C154.072 114.171 154.779 112.559 155.932 111.288C156.204 111.009 156.426 110.923 156.555 111.159C156.602 111.294 156.607 111.44 156.57 111.578C156.533 111.716 156.455 111.839 156.348 111.933Z" fill="#EF9933"/>
<g opacity="0.9">
<path d="M168.493 123.961C167.36 122.423 166.219 120.91 165.086 119.36C164.907 119.066 164.655 118.806 164.348 118.596C164.041 118.386 163.685 118.231 163.301 118.14C162.753 118.048 162.205 117.944 161.643 117.81C161.442 117.741 161.273 117.621 161.161 117.468C159.307 114.854 157.833 112.068 156.769 109.17C156.747 109.108 156.74 109.043 156.751 108.979C156.761 108.914 156.787 108.853 156.829 108.798C157.177 108.511 157.569 108.248 157.925 107.992C158.28 107.736 158.465 107.144 158.206 106.375C157.658 104.746 157.132 103.117 156.584 101.494C156.478 101.033 156.227 100.603 155.855 100.247C155.483 99.8913 155.004 99.6227 154.466 99.468C153.272 99.1944 152.004 99.2328 150.837 99.5778C150.386 99.7182 150.149 100.054 150.141 100.633C150.334 101.75 150.46 102.854 150.719 103.989C152.546 112.174 156.94 119.7 163.901 126.566C164.083 126.794 164.327 126.983 164.614 127.119C164.901 127.254 165.223 127.333 165.553 127.347C166.705 127.325 167.813 126.973 168.686 126.353C169.345 125.864 169.278 124.998 168.493 123.961Z" fill="white"/>
<path d="M168.404 115.644C168.249 113.889 167.662 112.178 166.679 110.616C165.944 109.396 165.01 108.264 163.901 107.254C163.613 106.985 163.368 106.9 163.22 107.101C163.072 107.303 163.22 107.589 163.501 107.852L163.79 108.126C165.837 110.073 167.127 112.482 167.493 115.04C167.49 115.226 167.512 115.413 167.56 115.595C167.653 115.805 167.802 115.995 167.997 116.15C168.152 116.242 168.33 116.15 168.456 116.15C168.412 115.9 168.419 115.772 168.404 115.644Z" fill="white"/>
<path d="M161.694 110.634C162.624 111.477 163.19 112.549 163.302 113.685C163.35 113.857 163.428 114.024 163.531 114.179C163.983 114.484 164.205 114.38 164.205 113.996C164.047 112.54 163.316 111.167 162.124 110.085C161.843 109.847 161.613 109.773 161.48 109.975C161.432 110.09 161.427 110.214 161.465 110.331C161.503 110.449 161.583 110.554 161.694 110.634Z" fill="white"/>
</g>
<path d="M102.47 15.865L95.7576 19.6832V17.3049C95.7576 17.1401 95.7576 16.9682 95.7576 16.8034C95.7576 16.6386 95.7576 16.481 95.7576 16.3234V16.2375C95.5141 13.0926 93.1286 11.8819 90.2201 13.5654C88.9033 14.3753 87.7749 15.4573 86.9104 16.7389C86.2585 12.4407 82.7698 10.922 78.5504 13.3505C73.8653 16.0584 70.0685 22.6633 70.0685 28.0505V33.1367C70.0752 33.5436 69.9748 33.945 69.7774 34.3009C69.58 34.6567 69.2925 34.9544 68.9438 35.164L64.9895 37.4779C64.136 37.9839 63.4286 38.7028 62.9363 39.5642C62.4441 40.4256 62.1839 41.4001 62.1813 42.3922C62.1811 42.8038 62.2895 43.2082 62.4954 43.5646C62.7012 43.9211 62.9974 44.2169 63.354 44.4225C63.7106 44.628 64.1151 44.736 64.5267 44.7355C64.9383 44.735 65.3426 44.626 65.6987 44.4196L102.37 23.2221C103.343 22.6571 104.151 21.8474 104.714 20.8735C105.277 19.8995 105.575 18.7952 105.579 17.6702C105.579 17.3061 105.484 16.9482 105.303 16.6326C105.121 16.3169 104.86 16.0545 104.545 15.8717C104.23 15.6888 103.872 15.5919 103.508 15.5908C103.144 15.5896 102.786 15.6842 102.47 15.865Z" fill="#E6E6E6" fill-opacity="0.45"/>
<path d="M51.2996 14.8691L46.4211 17.6701V15.9222C46.4211 15.8004 46.4211 15.6786 46.4211 15.5568C46.4211 15.4351 46.4211 15.3204 46.4211 15.2058V15.1628C46.242 12.8776 44.5084 11.9965 42.3951 13.2215C41.4381 13.8078 40.6175 14.5919 39.9881 15.521C39.5081 12.412 36.9721 11.2873 33.9061 13.0567C30.4961 15.0267 27.7381 19.8121 27.7381 23.745V27.4486C27.7355 27.739 27.6576 28.0236 27.5119 28.2748C27.3663 28.526 27.1578 28.735 26.9071 28.8814L24.0416 30.5648C23.4181 30.9315 22.9015 31.4552 22.5433 32.0836C22.1851 32.712 21.9978 33.4233 22 34.1467C22.0004 34.443 22.0781 34.734 22.2253 34.9911C22.3725 35.2482 22.5841 35.4626 22.8394 35.613C23.0946 35.7634 23.3847 35.8447 23.6809 35.8488C23.9771 35.853 24.2694 35.7799 24.5288 35.6368L51.2279 20.2204C51.9354 19.8111 52.5229 19.2231 52.9315 18.5153C53.3401 17.8074 53.5555 17.0046 53.5561 16.1873C53.5567 15.9227 53.4877 15.6627 53.3563 15.4331C53.2248 15.2036 53.0354 15.0125 52.807 14.8791C52.5786 14.7457 52.3192 14.6746 52.0546 14.6728C51.7901 14.671 51.5297 14.7387 51.2996 14.8691Z" fill="#E6E6E6" fill-opacity="0.45"/>
<path d="M128.162 83.3251C128.171 83.1945 128.216 83.0674 128.293 82.9538C128.343 82.8679 128.42 82.795 128.516 82.7429L129.526 82.2535C129.562 82.2329 129.604 82.2218 129.647 82.2218C129.691 82.2218 129.733 82.2329 129.769 82.2535C129.809 82.2891 129.838 82.3322 129.854 82.3792C129.869 82.4262 129.871 82.4757 129.86 82.5235C129.83 83.0072 129.745 83.4875 129.607 83.9578C129.458 84.4791 129.234 84.9834 128.94 85.4596C128.634 85.9639 128.254 86.4344 127.808 86.8602C127.345 87.3161 126.787 87.699 126.161 87.9908C125.708 88.236 125.185 88.3759 124.646 88.3957C124.229 88.3957 123.828 88.263 123.524 88.0245C123.183 87.7299 122.939 87.3665 122.817 86.9699C122.631 86.4433 122.529 85.8987 122.514 85.3499C122.514 84.9534 122.514 84.5062 122.514 84.0169C122.514 83.5275 122.514 83.0804 122.514 82.667C122.542 82.022 122.644 81.3808 122.817 80.7517C122.978 80.1503 123.215 79.5648 123.524 79.0053C123.826 78.4854 124.203 77.9981 124.646 77.5541C125.076 77.1337 125.588 76.7771 126.161 76.4995C126.652 76.2278 127.221 76.0705 127.808 76.0438C128.219 76.0287 128.621 76.1398 128.94 76.356C129.254 76.5785 129.485 76.8712 129.607 77.1997C129.754 77.5823 129.839 77.9795 129.86 78.3809C129.868 78.5038 129.837 78.6263 129.769 78.7353C129.718 78.8327 129.634 78.9151 129.526 78.9715L128.516 79.4609C128.48 79.4771 128.44 79.4856 128.399 79.4856C128.359 79.4856 128.319 79.4771 128.283 79.4609C128.24 79.4316 128.205 79.3942 128.182 79.3517C128.16 79.3092 128.149 79.2627 128.152 79.2162C128.126 79.0292 128.065 78.8469 127.97 78.6762C127.889 78.5146 127.745 78.3802 127.562 78.2946C127.379 78.2089 127.167 78.177 126.96 78.2037C126.66 78.2375 126.374 78.3269 126.121 78.4653C125.796 78.6196 125.508 78.8227 125.272 79.0643C125.029 79.322 124.829 79.6058 124.676 79.908C124.511 80.2108 124.385 80.5276 124.302 80.853C124.212 81.1855 124.161 81.5246 124.151 81.8654C124.151 82.2789 124.151 82.7091 124.151 83.2238C124.151 83.7385 124.151 84.1519 124.151 84.5484C124.158 84.8339 124.209 85.1174 124.302 85.3921C124.37 85.6057 124.498 85.8025 124.676 85.9659C124.834 86.1 125.047 86.1786 125.272 86.1852C125.574 86.1855 125.869 86.1122 126.121 85.9743C126.434 85.8264 126.717 85.6385 126.96 85.4174C127.192 85.2095 127.395 84.9802 127.566 84.734C127.725 84.5045 127.854 84.2612 127.95 84.0085C128.046 83.7867 128.117 83.5579 128.162 83.3251Z" fill="#E78945"/>
<path d="M170.02 63.5135C170.029 63.383 170.074 63.2559 170.152 63.1423C170.201 63.0564 170.278 62.9834 170.374 62.9314L171.384 62.442C171.42 62.4213 171.462 62.4102 171.506 62.4102C171.549 62.4102 171.591 62.4213 171.627 62.442C171.667 62.4776 171.696 62.5207 171.712 62.5677C171.728 62.6147 171.73 62.6642 171.718 62.712C171.688 63.1957 171.604 63.676 171.465 64.1463C171.317 64.6676 171.093 65.1719 170.798 65.6481C170.492 66.1524 170.112 66.6229 169.667 67.0487C169.203 67.5046 168.645 67.8875 168.02 68.1792C167.567 68.4245 167.043 68.5643 166.504 68.5842C166.087 68.5842 165.686 68.4514 165.383 68.213C165.042 67.9184 164.798 67.555 164.675 67.1583C164.49 66.6318 164.388 66.0871 164.372 65.5384C164.372 65.1419 164.372 64.6947 164.372 64.2054C164.372 63.716 164.372 63.2689 164.372 62.8554C164.401 62.2105 164.502 61.5692 164.675 60.9402C164.836 60.3387 165.073 59.7533 165.383 59.1937C165.685 58.6739 166.061 58.1866 166.504 57.7426C166.934 57.3221 167.447 56.9656 168.02 56.6879C168.51 56.4163 169.079 56.259 169.667 56.2323C170.077 56.2172 170.48 56.3283 170.798 56.5445C171.112 56.767 171.344 57.0597 171.465 57.3882C171.612 57.7708 171.697 58.168 171.718 58.5694C171.727 58.6922 171.695 58.8148 171.627 58.9238C171.577 59.0212 171.492 59.1036 171.384 59.16L170.374 59.6493C170.338 59.6656 170.298 59.6741 170.258 59.6741C170.217 59.6741 170.177 59.6656 170.142 59.6493C170.098 59.6201 170.064 59.5827 170.041 59.5402C170.018 59.4976 170.008 59.4512 170.01 59.4047C169.985 59.2177 169.923 59.0354 169.828 58.8647C169.747 58.703 169.604 58.5687 169.421 58.483C169.238 58.3974 169.025 58.3654 168.818 58.3922C168.519 58.4259 168.232 58.5153 167.979 58.6538C167.655 58.8081 167.367 59.0112 167.131 59.2528C166.887 59.5105 166.687 59.7942 166.534 60.0965C166.369 60.3993 166.244 60.7161 166.161 61.0415C166.07 61.374 166.02 61.7131 166.009 62.0539C166.009 62.4673 166.009 62.8976 166.009 63.4123C166.009 63.9269 166.009 64.3404 166.009 64.7369C166.017 65.0224 166.067 65.3059 166.161 65.5806C166.228 65.7941 166.356 65.9909 166.534 66.1543C166.692 66.2885 166.906 66.367 167.131 66.3737C167.432 66.374 167.727 66.3007 167.979 66.1628C168.292 66.0149 168.575 65.827 168.818 65.6059C169.05 65.398 169.254 65.1687 169.424 64.9225C169.583 64.693 169.712 64.4497 169.808 64.1969C169.904 63.9752 169.975 63.7464 170.02 63.5135Z" fill="#E78945"/>
<path d="M131.003 78.3446C131.026 77.7365 131.118 77.1313 131.278 76.5365C131.429 75.9527 131.667 75.3854 131.986 74.8467C132.289 74.3176 132.684 73.8254 133.16 73.385C133.624 72.9363 134.186 72.5585 134.819 72.2697C135.313 72.0154 135.881 71.8697 136.468 71.8472C136.685 71.846 136.899 71.8798 137.099 71.9466C137.299 72.0134 137.48 72.1118 137.631 72.2359C137.979 72.5267 138.227 72.8848 138.349 73.2751C138.53 73.7839 138.626 74.3094 138.635 74.8382C138.635 75.041 138.635 75.2607 138.635 75.5057C138.635 75.7507 138.635 75.9957 138.635 76.2577C138.635 76.5196 138.635 76.7731 138.635 77.0181C138.635 77.2631 138.635 77.4997 138.635 77.7025C138.612 78.3134 138.52 78.9214 138.36 79.519C138.203 80.1016 137.966 80.6684 137.652 81.2089C137.341 81.7344 136.947 82.2257 136.479 82.6706C136.011 83.1125 135.449 83.4845 134.819 83.769C134.324 84.0283 133.751 84.1771 133.16 84.1999C132.943 84.2049 132.727 84.1746 132.525 84.1106C132.323 84.0467 132.14 83.9506 131.986 83.8281C131.637 83.5326 131.393 83.168 131.278 82.772C131.107 82.2647 131.015 81.7426 131.003 81.2173C131.003 81.023 131.003 80.8033 131.003 80.5583C131.003 80.3133 131.003 80.0598 131.003 79.7979C131.003 79.5359 131.003 79.2825 131.003 79.0374C131.003 78.7924 130.993 78.5558 131.003 78.3446ZM136.88 75.7169C136.91 75.4455 136.872 75.1721 136.768 74.9125C136.665 74.6529 136.498 74.4123 136.278 74.2045C136.062 74.0828 135.802 74.0218 135.538 74.031C135.274 74.0401 135.021 74.119 134.819 74.2552C134.177 74.5582 133.667 75.0127 133.36 75.5564C132.977 76.2014 132.768 76.9039 132.747 77.618C132.747 78.032 132.747 78.4629 132.747 78.9783C132.747 79.4937 132.747 79.9246 132.747 80.3217C132.72 80.591 132.761 80.862 132.866 81.1187C132.971 81.3755 133.139 81.6129 133.36 81.8172C133.72 82.0651 134.206 82.0482 134.819 81.7665C135.456 81.4585 135.964 81.0055 136.278 80.4654C136.665 79.8248 136.871 79.1237 136.88 78.4122C136.88 77.9982 136.88 77.5673 136.88 77.0519C136.88 76.5365 136.901 76.1056 136.88 75.7169Z" fill="#E78945"/>
<path d="M146.21 78.5954C146.07 78.6628 145.97 78.6712 145.89 78.5954L145.729 78.4437L142.287 73.4885V80.0532C142.287 80.1762 142.253 80.2975 142.187 80.4072C142.141 80.5062 142.061 80.5913 141.957 80.6516L140.956 81.1319C140.923 81.1568 140.88 81.1705 140.836 81.1705C140.792 81.1705 140.749 81.1568 140.716 81.1319C140.68 81.0974 140.653 81.0573 140.636 81.0139C140.619 80.9706 140.612 80.9247 140.616 80.8791V70.5391C140.62 70.4166 140.654 70.2962 140.716 70.1851C140.763 70.0862 140.847 70.0032 140.956 69.9492L141.817 69.5278C141.957 69.4604 142.057 69.452 142.137 69.5278L142.297 69.6795L145.739 74.6346V68.0699C145.74 67.948 145.771 67.8276 145.829 67.716C145.882 67.618 145.965 67.5337 146.07 67.4716L147.07 66.9913C147.103 66.9664 147.146 66.9526 147.19 66.9526C147.235 66.9526 147.277 66.9664 147.31 66.9913C147.379 67.0622 147.411 67.1531 147.401 67.2441V77.542C147.4 77.6639 147.369 77.7843 147.31 77.8959C147.261 77.9933 147.177 78.0755 147.07 78.1319L146.21 78.5954Z" fill="#E78945"/>
<path d="M160.27 60.4776C160.403 60.4085 160.505 60.4085 160.576 60.4776C160.66 60.5755 160.719 60.6873 160.749 60.8058L163.802 69.633C163.808 69.6703 163.808 69.708 163.802 69.7453C163.802 69.8675 163.77 69.9882 163.711 70.0994C163.66 70.2016 163.575 70.2887 163.466 70.3499L162.571 70.7904C162.398 70.8682 162.286 70.8854 162.214 70.7904C162.151 70.7316 162.105 70.6604 162.082 70.5831L161.543 69.0371L157.594 70.9718L157.054 73.0534C157.018 73.169 156.971 73.2817 156.912 73.3902C156.836 73.5213 156.716 73.6298 156.566 73.7011L155.66 74.1416C155.627 74.1648 155.586 74.1775 155.543 74.1775C155.5 74.1775 155.459 74.1648 155.426 74.1416C155.388 74.1072 155.359 74.0662 155.342 74.0215C155.324 73.9768 155.318 73.9294 155.324 73.8825C155.324 73.8393 155.324 73.7962 155.324 73.7616L158.377 61.9286C158.407 61.7555 158.465 61.5868 158.55 61.4277C158.608 61.3072 158.712 61.2068 158.846 61.1427L160.27 60.4776ZM160.963 67.3096L159.589 63.3365L158.215 68.6657L160.963 67.3096Z" fill="#E78945"/>
<path d="M154.99 63.0255C155.022 63.0027 155.063 62.9902 155.105 62.9902C155.147 62.9902 155.188 63.0027 155.221 63.0255C155.291 63.0967 155.327 63.1879 155.321 63.2806V64.4282C155.317 64.5491 155.283 64.6679 155.221 64.7767C155.174 64.8764 155.094 64.9621 154.99 65.0233L152.761 66.1114V74.9268C152.761 75.0471 152.73 75.1659 152.671 75.2754C152.621 75.3759 152.537 75.4616 152.43 75.5219L151.426 76.0064C151.392 76.0299 151.35 76.0427 151.306 76.0427C151.262 76.0427 151.22 76.0299 151.185 76.0064C151.119 75.9307 151.087 75.8371 151.095 75.7429V66.936L148.867 68.0241C148.834 68.0469 148.794 68.0594 148.751 68.0594C148.709 68.0594 148.668 68.0469 148.636 68.0241C148.599 67.9883 148.571 67.9464 148.554 67.9011C148.536 67.8558 148.53 67.8079 148.536 67.7605V66.6214C148.535 66.4974 148.57 66.375 148.636 66.2644C148.679 66.1652 148.76 66.0813 148.867 66.0264L154.99 63.0255Z" fill="#E78945"/>
<path d="M179.582 51.8369C179.616 51.8145 179.658 51.8022 179.702 51.8022C179.746 51.8022 179.789 51.8145 179.822 51.8369C179.896 51.9068 179.933 51.9963 179.927 52.0874V53.2145C179.923 53.3333 179.887 53.45 179.822 53.5568C179.774 53.6547 179.69 53.7389 179.582 53.799L177.261 54.8677V63.5257C177.26 63.6438 177.228 63.7605 177.167 63.868C177.115 63.9667 177.027 64.0509 176.916 64.1101L175.87 64.586C175.835 64.6091 175.79 64.6217 175.745 64.6217C175.699 64.6217 175.655 64.6091 175.619 64.586C175.55 64.5117 175.516 64.4197 175.525 64.3272V55.6775L173.204 56.7462C173.17 56.7686 173.128 56.7809 173.084 56.7809C173.04 56.7809 172.997 56.7686 172.963 56.7462C172.925 56.7111 172.896 56.6699 172.878 56.6254C172.86 56.5809 172.853 56.5339 172.859 56.4874V55.3686C172.858 55.2467 172.894 55.1265 172.963 55.0179C173.008 54.9206 173.093 54.8382 173.204 54.7842L179.582 51.8369Z" fill="#E78945"/>
</svg>
