<svg width="44" height="43" viewBox="0 0 44 43" fill="none" xmlns="http://www.w3.org/2000/svg">
<path d="M5.5 12.5418V8.9585H9.16667V7.16683C9.16667 6.21647 9.55298 5.30504 10.2406 4.63303C10.9282 3.96102 11.8609 3.5835 12.8333 3.5835H23.8333V16.1252L28.4167 13.4377L33 16.1252V3.5835H34.8333C36.7583 3.5835 38.5 5.28558 38.5 7.16683V35.8335C38.5 37.7147 36.7583 39.4168 34.8333 39.4168H12.8333C10.9083 39.4168 9.16667 37.7147 9.16667 35.8335V34.0418H5.5V30.4585H9.16667V23.2918H5.5V19.7085H9.16667V12.5418H5.5ZM12.8333 19.7085H9.16667V23.2918H12.8333V19.7085ZM12.8333 12.5418V8.9585H9.16667V12.5418H12.8333ZM12.8333 34.0418V30.4585H9.16667V34.0418H12.8333Z" fill="white"/>
</svg>
